<svg width="18" height="17" viewBox="0 0 18 17" fill="none" xmlns="http://www.w3.org/2000/svg">
<path d="M16.0007 9.88119H10.1673V15.7145C10.1673 16.3562 9.64232 16.8812 9.00065 16.8812C8.35898 16.8812 7.83398 16.3562 7.83398 15.7145V9.88119H2.00065C1.35898 9.88119 0.833984 9.35619 0.833984 8.71452C0.833984 8.07285 1.35898 7.54785 2.00065 7.54785H7.83398V1.71452C7.83398 1.07285 8.35898 0.547852 9.00065 0.547852C9.64232 0.547852 10.1673 1.07285 10.1673 1.71452V7.54785H16.0007C16.6423 7.54785 17.1673 8.07285 17.1673 8.71452C17.1673 9.35619 16.6423 9.88119 16.0007 9.88119Z" fill="#5801A9"/>
</svg>
