<svg width="19" height="19" viewBox="0 0 19 19" fill="none" xmlns="http://www.w3.org/2000/svg">
<path fill-rule="evenodd" clip-rule="evenodd" d="M11.9845 13.0896C10.5803 14.2116 8.79983 14.7533 7.00869 14.6035C5.21755 14.4537 3.55176 13.6237 2.35344 12.2841C1.15511 10.9444 0.515237 9.19679 0.565223 7.40009C0.615208 5.6034 1.35126 3.89403 2.62221 2.62308C3.89316 1.35213 5.60253 0.616078 7.39922 0.566092C9.19592 0.516107 10.9436 1.15598 12.2832 2.35431C13.6229 3.55263 14.4528 5.21842 14.6026 7.00956C14.7524 8.8007 14.2107 10.5812 13.0887 11.9854L18.4595 17.3552C18.5363 17.4267 18.5979 17.513 18.6406 17.6088C18.6833 17.7047 18.7062 17.8081 18.7081 17.913C18.7099 18.0179 18.6906 18.1221 18.6513 18.2194C18.612 18.3167 18.5536 18.405 18.4794 18.4792C18.4052 18.5534 18.3168 18.6119 18.2195 18.6512C18.1223 18.6905 18.0181 18.7098 17.9132 18.7079C17.8083 18.7061 17.7048 18.6831 17.609 18.6404C17.5132 18.5977 17.4269 18.5361 17.3554 18.4594L11.9845 13.0896ZM3.72934 11.4625C2.9648 10.6979 2.44408 9.72378 2.233 8.66331C2.02192 7.60283 2.12994 6.50358 2.54342 5.50448C2.95689 4.50538 3.65727 3.65128 4.55602 3.05011C5.45478 2.44894 6.51157 2.12769 7.59285 2.12696C8.67413 2.12624 9.73136 2.44606 10.6309 3.04602C11.5305 3.64598 12.232 4.49914 12.6468 5.49768C13.0617 6.49622 13.1712 7.59533 12.9615 8.65609C12.7518 9.71684 12.2324 10.6916 11.4689 11.4573L11.4637 11.4625L11.4585 11.4667C10.4326 12.4902 9.04228 13.0647 7.59306 13.0639C6.14384 13.0632 4.75418 12.4872 3.72934 11.4625Z" fill="#555555"/>
</svg>
