<svg width="19" height="19" viewBox="0 0 19 19" fill="none" xmlns="http://www.w3.org/2000/svg">
<path d="M19 9.49922V9.49447C19 6.68327 17.7761 4.15864 15.8325 2.42252L15.823 2.4146C15.799 2.38874 15.7722 2.36564 15.7431 2.34572L15.7415 2.34493C14.0152 0.829501 11.7955 -0.00424163 9.49842 1.62281e-05C7.09809 1.62281e-05 4.90675 0.891433 3.23634 2.36235L3.24663 2.35364C3.22656 2.36899 3.208 2.38622 3.19121 2.4051C2.18704 3.29432 1.38326 4.38754 0.83311 5.61082C0.282956 6.8341 -0.00101601 8.1603 2.73136e-06 9.5016C2.73136e-06 12.312 1.22234 14.8366 3.16429 16.5736L3.17379 16.5815C3.19906 16.6099 3.22718 16.6356 3.25771 16.6583L3.25929 16.6591C4.985 18.1724 7.20313 19.005 9.49842 19.0008C11.8044 19.0044 14.0321 18.1641 15.7613 16.6385L15.751 16.6472C16.7726 15.759 17.5915 14.6617 18.1523 13.4296C18.7131 12.1975 19.0028 10.8593 19.0016 9.50556V9.50002L19 9.49922ZM15.4676 15.6782C14.9968 15.2978 14.4907 14.9632 13.9563 14.6791L13.9048 14.6538C14.3901 13.2549 14.6823 11.6423 14.71 9.96472V9.95206H18.0833C17.9698 12.1224 17.0356 14.1685 15.47 15.6758L15.4676 15.6782ZM9.95284 14.4867C10.9685 14.5413 11.9178 14.7646 12.7933 15.128L12.7363 15.1074C12.0349 16.7066 11.0477 17.8054 9.95284 18.0468V14.4867ZM9.95284 13.5811V9.95206H13.8067C13.776 11.4548 13.5154 12.9441 13.034 14.368L13.0649 14.2643C12.0822 13.8597 11.0367 13.6288 9.975 13.5818L9.95363 13.5811H9.95284ZM9.95284 9.04639V5.41739C11.0431 5.36779 12.1165 5.12912 13.125 4.71202L13.0625 4.73497C13.5019 6.01668 13.7718 7.49393 13.8067 9.02977V9.04639H9.95284ZM9.95284 4.51172V0.953183C11.0477 1.19464 12.0349 2.28872 12.7363 3.89264C11.9178 4.23306 10.9685 4.45552 9.97579 4.51093L9.95284 4.51172ZM12.2123 1.34506C13.1454 1.65561 14.0179 2.12483 14.7915 2.73206L14.7733 2.71781C14.4226 2.99331 14.0291 3.25297 13.6143 3.4786L13.57 3.50077C13.2356 2.70922 12.7746 1.97738 12.2051 1.33397L12.2123 1.34268V1.34506ZM9.04559 0.955558V4.51172C8.06905 4.46197 7.10829 4.24508 6.20509 3.87047L6.26209 3.89106C6.96667 2.29189 7.9523 1.19385 9.04717 0.952391L9.04559 0.955558ZM5.42925 3.49839C5.00022 3.26732 4.59134 3.00065 4.20692 2.70118L4.22592 2.71543C4.97695 2.126 5.82222 1.66776 6.726 1.3601L6.78617 1.34189C6.23212 1.96828 5.78082 2.6785 5.44904 3.44614L5.42925 3.49839ZM9.04717 5.4166V9.0456H5.19334C5.22817 7.49314 5.49813 6.01589 5.96838 4.63047L5.9375 4.73418C6.92024 5.13676 7.9649 5.36733 9.02579 5.41581L9.04717 5.4166ZM9.04717 9.95127V13.5803C7.95689 13.6299 6.88352 13.8685 5.87496 14.2856L5.9375 14.2627C5.49813 12.9818 5.22817 11.5037 5.19334 9.96789V9.95127H9.04717ZM9.04717 14.4859V18.0445C7.9523 17.803 6.96509 16.7089 6.26367 15.105C7.08225 14.7646 8.03146 14.5429 9.02421 14.4875L9.04717 14.4859ZM6.79092 17.6526C5.85864 17.3416 4.98634 16.8736 4.21167 16.2688L4.23067 16.283C4.58138 16.0075 4.97484 15.7478 5.38967 15.5222L5.434 15.5001C5.76585 16.2918 6.2268 17.0229 6.79804 17.6637L6.79092 17.6558V17.6526ZM13.5708 15.4993C14.0299 15.7486 14.4234 16.0075 14.7931 16.2965L14.7741 16.2822C14.0231 16.8717 13.1778 17.3299 12.274 17.6376L12.2138 17.6558C12.7678 17.0296 13.2191 16.3197 13.551 15.5523L13.5708 15.5008V15.4993ZM18.0833 9.04639H14.71C14.6852 7.40844 14.4025 5.78462 13.8724 4.23464L13.9048 4.34389C14.464 4.04937 14.9935 3.70153 15.4858 3.30522L15.4668 3.31947C17.0298 4.82068 17.9644 6.85943 18.0817 9.02343L18.0833 9.04639ZM3.53242 3.32027C3.98842 3.69077 4.50063 4.03039 5.04371 4.31935L5.09517 4.34468C4.60988 5.74356 4.31775 7.35618 4.29004 9.03372V9.04639H0.915961C1.0294 6.87604 1.96359 4.82995 3.52925 3.32264L3.53242 3.32027ZM0.916753 9.95206H4.29004C4.3148 11.59 4.59746 13.2138 5.12763 14.7638L5.09517 14.6546C4.50063 14.9704 3.98921 15.3101 3.51421 15.6932L3.53321 15.679C1.97019 14.1778 1.03557 12.139 0.918336 9.97502L0.917544 9.95285L0.916753 9.95206Z" fill="white"/>
</svg>
