<svg width="60" height="98" viewBox="0 0 60 98" fill="none" xmlns="http://www.w3.org/2000/svg">
<path d="M49.0624 84.665C48.2543 81.7434 46.9169 79.1523 46.981 76.3684C46.9954 75.8791 46.8159 75.2945 46.9866 74.9334C47.2802 74.3588 47.6871 73.7116 48.2318 73.5001C48.9794 73.2171 49.6243 74.0303 50.0102 74.6992C50.729 75.9509 51.3595 77.2534 51.9387 78.5478C52.5721 79.9801 53.2055 81.4125 53.6606 82.8684C54.6519 85.9741 56.1998 88.8313 58.0777 91.5854C58.3025 91.9184 58.5275 92.2514 58.7016 92.6023C60.1791 95.733 59.1104 97.621 55.9395 97.5603C52.679 97.4985 49.4968 96.9445 46.2561 95.5146C43.8418 94.448 41.2991 93.9173 38.8131 93.0722C37.3837 92.6009 35.9525 92.0516 34.5702 91.4066C34.2344 91.2501 33.784 90.5581 33.8151 90.2396C33.858 89.8842 34.3371 89.5976 34.7035 89.4097C34.9815 89.2725 35.392 89.3372 35.738 89.3789C38.7347 89.6449 41.7446 89.9259 44.7538 90.181C45.471 90.2424 46.1731 90.211 47.1832 90.2281C46.8593 89.4785 46.7054 88.898 46.3755 88.4449C45.9264 87.8049 45.3256 87.2444 44.7881 86.6551C41.0389 82.5449 37.1386 78.5403 33.5397 74.2987C30.1114 70.2521 26.9845 65.9685 23.7071 61.8164C22.5492 60.366 21.2028 59.054 20.1082 57.5747C17.5365 54.1032 14.5251 50.9633 12.8461 46.8435C11.7361 44.133 9.82597 41.6455 8.27146 39.0588C7.85987 38.3859 7.39756 37.7308 7.06233 37.0441C4.67993 32.3477 2.85601 27.4807 1.7462 22.5453C0.750288 18.1195 -0.0421904 13.6482 0.292322 9.27707C0.38073 8.11391 0.224498 6.87337 0.165572 5.41532C0.781365 4.40007 1.53266 3.16039 2.29702 1.93576C2.59298 1.46506 2.94082 1.02844 3.32806 0.636824C3.803 0.168501 4.96455 0.662266 5.12199 1.39856C5.2508 2.00098 5.31635 2.63223 5.23993 3.20226C3.80892 13.2729 5.80542 23.4447 10.1519 33.5476C11.9879 37.8215 14.5857 41.8792 16.8661 46.0292C17.4931 47.1759 18.2088 48.2979 18.8865 49.4267C20.3748 51.9124 21.9132 54.3541 23.9439 56.5244C25.1226 57.7711 26.1141 59.2082 27.155 60.5755C32.8739 68.101 39.5189 74.7637 45.8769 81.7304C46.885 82.782 48.0047 83.6831 49.0624 84.665Z" fill="white"/>
</svg>
