<svg width="188" height="51" viewBox="0 0 188 51" fill="none" xmlns="http://www.w3.org/2000/svg">
<path d="M8.85713 40.3242H0.977543L11.2121 9.99077H20.9727L31.2073 40.3242H23.3277L16.2035 17.6334H15.9665L8.85713 40.3242ZM7.80553 28.3863H24.2756V33.9554H7.80553V28.3863ZM45.889 17.5741V22.9062H31.5369V17.5741H45.889ZM34.5435 12.1236H41.7862V33.1704C41.7862 33.6147 41.8554 33.9751 41.9936 34.2516C42.1417 34.5182 42.354 34.7108 42.6305 34.8292C42.907 34.9379 43.2377 34.9922 43.6228 34.9922C43.8993 34.9922 44.1906 34.9675 44.4967 34.9181C44.8127 34.8589 45.0497 34.8095 45.2076 34.77L46.3037 39.9984C45.9581 40.0971 45.4693 40.2205 44.8374 40.3687C44.2153 40.5168 43.4698 40.6106 42.6009 40.6501C40.9025 40.7291 39.4461 40.5316 38.2315 40.0576C37.0269 39.5738 36.1037 38.8233 35.4618 37.8063C34.8299 36.7893 34.5238 35.5106 34.5435 33.9702V12.1236ZM62.4257 17.5741V22.9062H48.0736V17.5741H62.4257ZM51.0803 12.1236H58.323V33.1704C58.323 33.6147 58.3921 33.9751 58.5304 34.2516C58.6785 34.5182 58.8908 34.7108 59.1672 34.8292C59.4437 34.9379 59.7745 34.9922 60.1596 34.9922C60.4361 34.9922 60.7274 34.9675 61.0335 34.9181C61.3494 34.8589 61.5864 34.8095 61.7444 34.77L62.8404 39.9984C62.4948 40.0971 62.0061 40.2205 61.3741 40.3687C60.7521 40.5168 60.0066 40.6106 59.1376 40.6501C57.4393 40.7291 55.9828 40.5316 54.7683 40.0576C53.5637 39.5738 52.6404 38.8233 51.9986 37.8063C51.3667 36.7893 51.0606 35.5106 51.0803 33.9702V12.1236ZM76.5112 40.7537C74.1315 40.7537 72.0777 40.2847 70.3497 39.3467C68.6316 38.3988 67.3085 37.0509 66.3803 35.3032C65.462 33.5456 65.0029 31.4572 65.0029 29.038C65.0029 26.688 65.467 24.6342 66.3951 22.8766C67.3233 21.1091 68.6316 19.7366 70.3201 18.759C72.0086 17.7716 73.9982 17.2779 76.2891 17.2779C77.9084 17.2779 79.3895 17.5297 80.7324 18.0333C82.0753 18.5369 83.2355 19.2824 84.2131 20.2698C85.1906 21.2572 85.9509 22.4767 86.494 23.9282C87.0371 25.3698 87.3086 27.0237 87.3086 28.8899V30.6969H67.5356V26.4905H80.5695C80.5596 25.7203 80.377 25.0341 80.0215 24.4317C79.666 23.8294 79.1772 23.3604 78.5552 23.0247C77.943 22.6791 77.237 22.5063 76.4372 22.5063C75.6275 22.5063 74.9017 22.689 74.2599 23.0543C73.6181 23.4098 73.1096 23.8985 72.7344 24.5206C72.3591 25.1328 72.1617 25.8289 72.1419 26.609V30.8895C72.1419 31.8176 72.3246 32.6322 72.6899 33.3333C73.0553 34.0245 73.5737 34.5626 74.2451 34.9477C74.9165 35.3328 75.7164 35.5254 76.6445 35.5254C77.2863 35.5254 77.8689 35.4365 78.3923 35.2588C78.9156 35.081 79.3649 34.8194 79.7401 34.4738C80.1153 34.1282 80.3967 33.7036 80.5843 33.2L87.2346 33.3926C86.9581 34.8836 86.3508 36.182 85.4128 37.2879C84.4846 38.3839 83.2652 39.2381 81.7544 39.8503C80.2437 40.4526 78.4959 40.7537 76.5112 40.7537ZM98.2504 27.3496V40.3242H91.0077V17.5741H97.895V21.7509H98.1468C98.6503 20.3587 99.5094 19.2676 100.724 18.4776C101.938 17.6778 103.385 17.2779 105.064 17.2779C106.663 17.2779 108.051 17.6383 109.226 18.3591C110.41 19.0701 111.329 20.0674 111.98 21.351C112.642 22.6248 112.968 24.1158 112.958 25.824V40.3242H105.715V27.2459C105.725 25.982 105.404 24.9946 104.753 24.2836C104.111 23.5727 103.217 23.2172 102.072 23.2172C101.311 23.2172 100.64 23.3851 100.057 23.7208C99.4847 24.0467 99.0404 24.5157 98.7244 25.1279C98.4183 25.7401 98.2603 26.4806 98.2504 27.3496Z" fill="white"/>
<path d="M137.304 24.5206L130.654 24.6983C130.585 24.2244 130.397 23.8047 130.091 23.4394C129.785 23.0642 129.385 22.7729 128.891 22.5655C128.407 22.3483 127.845 22.2397 127.203 22.2397C126.363 22.2397 125.648 22.4075 125.055 22.7433C124.473 23.079 124.186 23.5332 124.196 24.1059C124.186 24.5502 124.364 24.9353 124.729 25.2612C125.104 25.587 125.771 25.8487 126.729 26.0462L131.113 26.8756C133.384 27.3101 135.072 28.0309 136.178 29.038C137.294 30.0452 137.857 31.3782 137.867 33.0371C137.857 34.5972 137.393 35.9549 136.475 37.1102C135.566 38.2655 134.322 39.164 132.742 39.8058C131.162 40.4378 129.355 40.7537 127.321 40.7537C124.073 40.7537 121.51 40.0872 119.634 38.7542C117.768 37.4113 116.702 35.6142 116.435 33.3629L123.589 33.1852C123.747 34.0146 124.157 34.6466 124.818 35.081C125.48 35.5155 126.324 35.7327 127.351 35.7327C128.279 35.7327 129.034 35.5599 129.617 35.2143C130.2 34.8687 130.496 34.4096 130.506 33.8369C130.496 33.3234 130.269 32.9137 129.824 32.6076C129.38 32.2916 128.684 32.0447 127.736 31.867L123.767 31.1116C121.486 30.6969 119.787 29.9317 118.671 28.8159C117.556 27.6902 117.003 26.2585 117.013 24.5206C117.003 23 117.408 21.7015 118.227 20.6253C119.047 19.5391 120.212 18.7097 121.723 18.137C123.233 17.5643 125.016 17.2779 127.069 17.2779C130.15 17.2779 132.579 17.9247 134.357 19.2182C136.134 20.5018 137.116 22.2693 137.304 24.5206ZM145.861 48.8555C144.992 48.8555 144.173 48.7864 143.403 48.6481C142.632 48.5198 141.971 48.347 141.418 48.1297L143.017 42.8718C143.728 43.1087 144.37 43.247 144.943 43.2865C145.525 43.326 146.024 43.2322 146.439 43.0051C146.863 42.7878 147.189 42.3978 147.416 41.835L147.698 41.1536L139.611 17.5741H147.194L151.386 33.8073H151.623L155.874 17.5741H163.501L154.926 42.5015C154.511 43.7456 153.923 44.8417 153.163 45.7896C152.413 46.7474 151.44 47.4978 150.245 48.0409C149.06 48.584 147.599 48.8555 145.861 48.8555ZM186.14 24.5206L179.49 24.6983C179.421 24.2244 179.233 23.8047 178.927 23.4394C178.621 23.0642 178.221 22.7729 177.728 22.5655C177.244 22.3483 176.681 22.2397 176.039 22.2397C175.2 22.2397 174.484 22.4075 173.892 22.7433C173.309 23.079 173.023 23.5332 173.032 24.1059C173.023 24.5502 173.2 24.9353 173.566 25.2612C173.941 25.587 174.607 25.8487 175.565 26.0462L179.949 26.8756C182.22 27.3101 183.909 28.0309 185.015 29.038C186.131 30.0452 186.693 31.3782 186.703 33.0371C186.693 34.5972 186.229 35.9549 185.311 37.1102C184.403 38.2655 183.158 39.164 181.579 39.8058C179.999 40.4378 178.192 40.7537 176.158 40.7537C172.909 40.7537 170.347 40.0872 168.471 38.7542C166.604 37.4113 165.538 35.6142 165.271 33.3629L172.425 33.1852C172.583 34.0146 172.993 34.6466 173.655 35.081C174.316 35.5155 175.16 35.7327 176.187 35.7327C177.115 35.7327 177.871 35.5599 178.453 35.2143C179.036 34.8687 179.332 34.4096 179.342 33.8369C179.332 33.3234 179.105 32.9137 178.661 32.6076C178.216 32.2916 177.52 32.0447 176.572 31.867L172.603 31.1116C170.322 30.6969 168.624 29.9317 167.508 28.8159C166.392 27.6902 165.839 26.2585 165.849 24.5206C165.839 23 166.244 21.7015 167.064 20.6253C167.883 19.5391 169.048 18.7097 170.559 18.137C172.07 17.5643 173.852 17.2779 175.906 17.2779C178.987 17.2779 181.416 17.9247 183.193 19.2182C184.97 20.5018 185.953 22.2693 186.14 24.5206Z" fill="#9B51E0"/>
<rect x="11.0059" y="1.40039" width="9.62927" height="6.87805" fill="#9B51E0"/>
</svg>
