<svg width="57" height="57" viewBox="0 0 57 57" fill="none" xmlns="http://www.w3.org/2000/svg">
<circle cx="28.5" cy="28.5" r="28.5" fill="#4A90E2" fill-opacity="0.12"/>
<path d="M17.2877 30.3897V34.8906C17.2877 36.0599 17.9284 37.1491 18.9535 37.7097L26.9622 42.0825C27.9233 42.611 29.0765 42.611 30.0376 42.0825L38.0463 37.7097C39.0714 37.1491 39.7121 36.0599 39.7121 34.8906V30.3897L30.0376 35.6755C29.0765 36.2041 27.9233 36.2041 26.9622 35.6755L17.2877 30.3897ZM26.9622 14.9169L13.4595 22.2849C12.3543 22.8936 12.3543 24.4953 13.4595 25.104L26.9622 32.472C27.9233 33.0006 29.0765 33.0006 30.0376 32.472L42.9156 25.4403V34.9067C42.9156 35.7876 43.6364 36.5084 44.5173 36.5084C45.3983 36.5084 46.1191 35.7876 46.1191 34.9067V24.6395C46.1191 24.0468 45.7987 23.5183 45.2862 23.2299L30.0376 14.9169C29.5643 14.6645 29.0362 14.5325 28.4999 14.5325C27.9636 14.5325 27.4355 14.6645 26.9622 14.9169Z" fill="#699BF7"/>
</svg>
