<svg width="71" height="71" viewBox="0 0 71 71" fill="none" xmlns="http://www.w3.org/2000/svg">
<path d="M19.9349 11.4572C20.7744 13.8356 21.9638 15.8901 23.5721 17.6969C23.7826 17.9422 24.0208 18.1908 24.1586 18.478C24.8167 19.8032 25.5025 21.1318 26.0707 22.5024C26.4976 23.5234 27.1083 24.3357 27.9196 25.0708C29.6702 26.6413 31.1436 28.4486 31.9453 30.7266C32.0519 31.0382 32.2104 31.3391 32.414 31.5949C33.8115 33.3366 35.2228 35.0574 36.6341 36.7783C36.9516 37.1549 37.3799 37.4548 37.642 37.8698C38.2421 38.8104 39.0674 39.4796 40.0452 39.9646C40.9643 40.4254 41.7657 40.9735 41.774 42.1071C42.4659 42.0107 43.0127 41.7728 43.379 41.9412C43.7626 42.1061 43.9934 42.6356 44.2381 43.0541C44.4519 43.4069 44.4995 43.8747 44.7549 44.1649C45.0689 44.5242 45.497 44.9142 45.9327 44.9784C46.3407 45.0391 46.8117 44.6906 47.2201 44.526C46.9397 42.7451 45.811 41.5432 44.9627 40.2118C44.5868 39.6309 43.9028 39.176 43.2636 38.8561C42.4551 38.4538 41.9996 37.8801 41.6933 37.0597C41.4318 36.3743 41.1288 35.6162 40.6213 35.1433C39.6926 34.2699 39.072 33.2254 38.4064 32.1811C37.9236 31.4237 37.3578 30.7014 36.7364 30.0625C35.5939 28.8814 35.0227 27.2681 33.7381 26.1881C33.3825 25.8914 33.1552 25.3793 33.0004 24.9153C32.2228 22.7135 31.0609 20.7524 29.4697 19.0323C28.9106 18.4347 28.535 17.6735 28.0832 16.982C26.8693 15.1216 25.6519 13.244 24.4449 11.3733C24.0656 10.775 23.5786 10.406 22.8107 10.4818C22.4924 10.5109 22.1606 10.4255 21.8391 10.3471C20.9334 10.1358 20.3897 10.5262 19.9349 11.4572Z" fill="#4A90E2"/>
<path d="M48.0338 17.5711C47.6287 17.8432 47.2166 18.1256 46.8184 18.3872C46.8162 19.6041 46.7968 20.7344 46.7878 21.8716C47.7916 23.3063 47.1694 25.0284 47.5746 26.5765C47.8013 27.4492 47.8237 28.3817 47.9743 29.279C48.1556 30.3322 48.3751 31.3506 48.8367 32.3645C49.2879 33.3716 49.6627 34.5384 49.4392 35.7285C49.4078 35.8881 49.3971 36.0615 49.3933 36.2244C49.4184 37.625 50.0054 38.1357 51.4478 38.0121C51.6069 37.9975 51.7902 38.0142 51.939 37.9477C52.7142 37.6811 53.4963 37.4041 54.403 37.0746C54.4654 35.1155 54.4966 33.1809 53.8535 31.2489C53.2378 29.3654 52.816 27.4152 52.2904 25.4863C52.0946 24.7694 51.8954 24.0353 51.575 23.3709C51.2684 22.7308 50.9963 22.0835 50.2258 21.6914C49.6454 21.3956 49.3079 20.5995 48.8386 20.0016C49.2539 19.8266 49.5378 19.7146 49.9185 19.5466C49.7304 18.4137 49.6045 17.2771 49.3402 16.1687C49.1961 15.5314 48.9033 14.9155 48.6139 14.3168C48.3107 13.694 47.7545 13.3843 47.4911 13.6904C47.2485 13.9652 47.0228 14.4168 47.0603 14.7426C47.1592 15.4702 47.4242 16.1729 47.6443 16.8758C47.7165 17.1043 47.8683 17.3256 47.9751 17.5471C48.0306 17.4186 48.0793 17.3005 48.1348 17.172C48.138 17.3246 48.0894 17.4426 48.0338 17.5711Z" fill="#4A90E2"/>
<path d="M48.938 61.9887C47.8763 61.9444 46.8043 61.8932 45.7427 61.8489C45.4971 61.836 45.1962 61.8615 45.0236 61.7166C43.9944 60.9268 42.6074 61.0121 41.5918 60.3817C39.8058 59.2691 37.7765 58.8369 35.9245 57.936C34.5009 57.2449 33.1604 56.4737 31.8408 55.6261C30.6767 54.8819 29.5992 54.0299 28.0813 53.8626C27.0889 53.7591 26.1842 52.9619 25.2133 52.5116C24.4703 52.1679 23.6996 51.8659 23.0016 51.5671C21.7447 52.3556 20.5848 53.0883 19.4665 53.8035C19.693 54.7213 20.3706 54.8712 20.958 55.1566C22.9552 56.1089 24.9559 57.0785 26.9531 58.0309C27.7686 58.4228 28.6118 58.7731 29.4377 59.1269C30.5781 59.6146 31.7046 60.1232 32.8554 60.5727C34.0857 61.0601 35.2849 61.5719 36.6508 61.6531C37.543 61.705 38.4313 62.01 39.3092 62.263C41.639 62.9401 44.0423 63.0795 46.4423 63.1566C47.0129 63.1751 47.6218 63.1137 48.1409 62.9175C48.4593 62.7984 48.6469 62.3365 48.8999 62.0235L48.938 61.9887Z" fill="#4A90E2"/>
<path d="M48.0338 17.5711C48.0824 17.4531 48.1207 17.3281 48.1763 17.1996C48.1207 17.3281 48.0721 17.4462 48.0165 17.5747L48.0338 17.5711Z" fill="#4A90E2"/>
</svg>
