<svg width="71" height="71" viewBox="0 0 71 71" fill="none" xmlns="http://www.w3.org/2000/svg">
<circle cx="35.5" cy="35.5" r="35.5" fill="#4A90E2" fill-opacity="0.12"/>
<g clip-path="url(#clip0_33_90)">
<path d="M18.8334 13H53.8334V59.6667H18.8334V13ZM50.9167 56.75V15.9167H21.75V56.75H50.9167ZM48.0001 24.6667V27.5833H36.3334V24.6667H48.0001ZM48.0001 36.3333V39.25H36.3334V36.3333H48.0001ZM48.0001 48V50.9167H36.3334V48H48.0001ZM34.4421 22.7754L29.0417 28.1758L25.0997 24.2337L27.1504 22.1829L29.0417 24.0742L32.3913 20.7246L34.4421 22.7754ZM34.4421 34.4421L29.0417 39.8425L25.0997 35.9004L27.1504 33.8496L29.0417 35.7409L32.3913 32.3913L34.4421 34.4421ZM34.4421 46.1087L29.0417 51.5091L25.0997 47.5671L27.1504 45.5163L29.0417 47.4076L32.3913 44.058L34.4421 46.1087Z" fill="#9B51E0"/>
</g>
<defs>
<clipPath id="clip0_33_90">
<rect width="46.6667" height="46.6667" fill="white" transform="translate(13 13)"/>
</clipPath>
</defs>
</svg>
