<svg width="18" height="19" viewBox="0 0 18 19" fill="none" xmlns="http://www.w3.org/2000/svg">
<path d="M0.666626 16.6663V2.49967C0.666626 2.05765 0.842221 1.63372 1.15478 1.32116C1.46734 1.0086 1.89127 0.833008 2.33329 0.833008H12.3333C12.7753 0.833008 13.1992 1.0086 13.5118 1.32116C13.8244 1.63372 14 2.05765 14 2.49967V16.6663C14 16.8108 13.9825 16.9497 13.9475 17.083H15.6666C15.7771 17.083 15.8831 17.0391 15.9613 16.961C16.0394 16.8828 16.0833 16.7768 16.0833 16.6663V9.99967C16.0833 9.93499 16.0682 9.87119 16.0393 9.81334C16.0104 9.75548 15.9684 9.70515 15.9166 9.66634L15.5 9.35384C15.3673 9.25438 15.2797 9.10632 15.2562 8.94223C15.2328 8.77813 15.2755 8.61145 15.375 8.47884C15.4744 8.34623 15.6225 8.25856 15.7866 8.23512C15.9507 8.21168 16.1174 8.25438 16.25 8.35384L16.6666 8.66634C17.0866 8.98134 17.3333 9.47467 17.3333 9.99967V16.6663C17.3333 17.1084 17.1577 17.5323 16.8451 17.8449C16.5326 18.1574 16.1087 18.333 15.6666 18.333H12.6983C12.6518 18.3319 12.6056 18.3269 12.56 18.318C12.4855 18.328 12.41 18.333 12.3333 18.333H9.20829C9.04253 18.333 8.88356 18.2672 8.76635 18.15C8.64914 18.0327 8.58329 17.8738 8.58329 17.708V15.833H6.08329V17.708C6.08329 17.8738 6.01744 18.0327 5.90023 18.15C5.78302 18.2672 5.62405 18.333 5.45829 18.333H2.33329C1.89127 18.333 1.46734 18.1574 1.15478 17.8449C0.842221 17.5323 0.666626 17.1084 0.666626 16.6663ZM2.33329 17.083H4.83329V15.208C4.83329 15.0422 4.89914 14.8833 5.01635 14.7661C5.13356 14.6489 5.29253 14.583 5.45829 14.583H9.20829C9.37405 14.583 9.53302 14.6489 9.65023 14.7661C9.76744 14.8833 9.83329 15.0422 9.83329 15.208V17.083H12.3333C12.4438 17.083 12.5498 17.0391 12.6279 16.961C12.7061 16.8828 12.75 16.7768 12.75 16.6663V2.49967C12.75 2.38917 12.7061 2.28319 12.6279 2.20505C12.5498 2.12691 12.4438 2.08301 12.3333 2.08301H2.33329C2.22279 2.08301 2.11681 2.12691 2.03866 2.20505C1.96052 2.28319 1.91663 2.38917 1.91663 2.49967V16.6663C1.91663 16.7768 1.96052 16.8828 2.03866 16.961C2.11681 17.0391 2.22279 17.083 2.33329 17.083Z" fill="#2D3A4B"/>
</svg>
