<svg width="33" height="33" viewBox="0 0 33 33" fill="none" xmlns="http://www.w3.org/2000/svg">
<path d="M28.875 27.5V8.25C28.875 6.73337 27.6416 5.5 26.125 5.5H23.375V2.75H20.625V5.5H12.375V2.75H9.625V5.5H6.875C5.35837 5.5 4.125 6.73337 4.125 8.25V27.5C4.125 29.0166 5.35837 30.25 6.875 30.25H26.125C27.6416 30.25 28.875 29.0166 28.875 27.5ZM12.375 24.75H9.625V22H12.375V24.75ZM12.375 19.25H9.625V16.5H12.375V19.25ZM17.875 24.75H15.125V22H17.875V24.75ZM17.875 19.25H15.125V16.5H17.875V19.25ZM23.375 24.75H20.625V22H23.375V24.75ZM23.375 19.25H20.625V16.5H23.375V19.25ZM26.125 12.375H6.875V9.625H26.125V12.375Z" fill="white"/>
</svg>
