<svg width="26" height="23" viewBox="0 0 26 23" fill="none" xmlns="http://www.w3.org/2000/svg">
<path d="M14.0837 19.8426L16.2503 18.9345L18.417 19.8426V13.4856H14.0837M18.417 8.94494V7.12866L16.2503 8.0368L14.0837 7.12866V8.94494L11.917 9.85308L14.0837 10.7612V12.5775L16.2503 11.6694L18.417 12.5775V10.7612L20.5837 9.85308M21.667 3.49609H4.33366C3.75902 3.49609 3.20792 3.68745 2.80159 4.02807C2.39527 4.36869 2.16699 4.83067 2.16699 5.31238V14.3938C2.16699 14.8755 2.39527 15.3375 2.80159 15.6781C3.20792 16.0187 3.75902 16.2101 4.33366 16.2101H11.917V14.3938H4.33366V5.31238H21.667V14.3938H20.5837V16.2101H21.667C22.2416 16.2101 22.7927 16.0187 23.1991 15.6781C23.6054 15.3375 23.8337 14.8755 23.8337 14.3938V5.31238C23.8337 4.83067 23.6054 4.36869 23.1991 4.02807C22.7927 3.68745 22.2416 3.49609 21.667 3.49609ZM11.917 8.0368H5.41699V6.22052H11.917M9.75033 10.7612H5.41699V8.94494H9.75033M11.917 13.4856H5.41699V11.6694H11.917V13.4856Z" fill="#A01B9B"/>
</svg>
