<svg width="56" height="57" viewBox="0 0 56 57" fill="none" xmlns="http://www.w3.org/2000/svg">
<circle cx="28" cy="28.5" r="28" fill="#F0F2F5"/>
<path d="M20.9993 25.584C20.9993 22.0402 23.8722 19.1673 27.416 19.1673C30.5552 19.1673 33.17 21.4227 33.7242 24.4018C33.8019 24.8195 34.1006 25.162 34.5039 25.2958C36.8265 26.0661 38.4994 28.2562 38.4994 30.834C38.4994 34.0556 35.8877 36.6673 32.666 36.6673C32.0217 36.6673 31.4993 37.1897 31.4993 37.834C31.4993 38.4783 32.0217 39.0007 32.666 39.0007C37.1763 39.0007 40.8327 35.3443 40.8327 30.834C40.8327 27.4594 38.7866 24.5655 35.87 23.3202C34.872 19.585 31.4664 16.834 27.416 16.834C22.5835 16.834 18.666 20.7515 18.666 25.584C18.666 25.701 18.6683 25.8175 18.6729 25.9335C16.5782 27.1419 15.166 29.4053 15.166 32.0007C15.166 35.8666 18.3 39.0007 22.166 39.0007C22.8103 39.0007 23.3327 38.4783 23.3327 37.834C23.3327 37.1897 22.8103 36.6673 22.166 36.6673C19.5887 36.6673 17.4993 34.578 17.4993 32.0007C17.4993 30.0671 18.6756 28.4055 20.3561 27.6976C20.8424 27.4928 21.1307 26.987 21.0591 26.4642C21.0197 26.177 20.9993 25.8832 20.9993 25.584Z" fill="#475367"/>
<path d="M27.2243 31.1287C27.6663 30.7358 28.3324 30.7358 28.7744 31.1287L30.5244 32.6842C31.006 33.1123 31.0494 33.8497 30.6213 34.3313C30.2468 34.7526 29.6356 34.8385 29.166 34.5668V40.1673C29.166 40.8117 28.6437 41.334 27.9993 41.334C27.355 41.334 26.8327 40.8117 26.8327 40.1673V34.5668C26.3631 34.8385 25.7519 34.7526 25.3774 34.3313C24.9493 33.8497 24.9927 33.1123 25.4743 32.6842L27.2243 31.1287Z" fill="#475367"/>
</svg>
