<svg width="21" height="21" viewBox="0 0 21 21" fill="none" xmlns="http://www.w3.org/2000/svg">
<g clip-path="url(#clip0_188_5411)">
<path d="M17.2083 4.08301H6.125C5.89294 4.08301 5.67038 4.17519 5.50628 4.33929C5.34219 4.50338 5.25 4.72594 5.25 4.95801V18.958C5.25 19.1901 5.34219 19.4126 5.50628 19.5767C5.67038 19.7408 5.89294 19.833 6.125 19.833H17.2083C17.4404 19.833 17.663 19.7408 17.8271 19.5767C17.9911 19.4126 18.0833 19.1901 18.0833 18.958V4.95801C18.0833 4.72594 17.9911 4.50338 17.8271 4.33929C17.663 4.17519 17.4404 4.08301 17.2083 4.08301ZM16.9167 18.6663H6.41667V5.24967H16.9167V18.6663Z" fill="#5801A9"/>
<path d="M15.1667 2.04199C15.1667 1.80993 15.0745 1.58737 14.9104 1.42327C14.7463 1.25918 14.5238 1.16699 14.2917 1.16699H3.20837C2.97631 1.16699 2.75375 1.25918 2.58966 1.42327C2.42556 1.58737 2.33337 1.80993 2.33337 2.04199V16.042C2.33337 16.2741 2.42556 16.4966 2.58966 16.6607C2.75375 16.8248 2.97631 16.917 3.20837 16.917H3.50004V2.33366H15.1667V2.04199Z" fill="#5801A9"/>
</g>
<defs>
<clipPath id="clip0_188_5411">
<rect width="21" height="21" fill="white"/>
</clipPath>
</defs>
</svg>
