<svg width="22" height="23" viewBox="0 0 22 23" fill="none" xmlns="http://www.w3.org/2000/svg">
<path d="M0.167969 20.6673V2.25065C0.167969 1.67602 0.396242 1.12492 0.802571 0.718586C1.2089 0.312258 1.76 0.0839844 2.33464 0.0839844H15.3346C15.9093 0.0839844 16.4604 0.312258 16.8667 0.718586C17.273 1.12492 17.5013 1.67602 17.5013 2.25065V20.6673C17.5013 20.8551 17.4786 21.0357 17.4331 21.209H19.668C19.8116 21.209 19.9494 21.1519 20.051 21.0503C20.1526 20.9488 20.2096 20.811 20.2096 20.6673V12.0007C20.2096 11.9166 20.1901 11.8336 20.1524 11.7584C20.1148 11.6832 20.0602 11.6178 19.993 11.5673L19.4513 11.1611C19.2789 11.0318 19.1649 10.8393 19.1345 10.626C19.104 10.4127 19.1595 10.196 19.2888 10.0236C19.4181 9.85118 19.6106 9.73721 19.8239 9.70673C20.0372 9.67626 20.2539 9.73177 20.4263 9.86107L20.968 10.2673C21.514 10.6768 21.8346 11.3182 21.8346 12.0007V20.6673C21.8346 21.242 21.6064 21.7931 21.2 22.1994C20.7937 22.6057 20.2426 22.834 19.668 22.834H15.8091C15.7488 22.8325 15.6886 22.826 15.6293 22.8145C15.5325 22.8275 15.4343 22.834 15.3346 22.834H11.2721C11.0566 22.834 10.85 22.7484 10.6976 22.596C10.5452 22.4436 10.4596 22.237 10.4596 22.0215V19.584H7.20963V22.0215C7.20963 22.237 7.12403 22.4436 6.97166 22.596C6.81929 22.7484 6.61262 22.834 6.39713 22.834H2.33464C1.76 22.834 1.2089 22.6057 0.802571 22.1994C0.396242 21.7931 0.167969 21.242 0.167969 20.6673ZM2.33464 21.209H5.58463V18.7715C5.58463 18.556 5.67024 18.3493 5.82261 18.197C5.97498 18.0446 6.18165 17.959 6.39713 17.959H11.2721C11.4876 17.959 11.6943 18.0446 11.8467 18.197C11.999 18.3493 12.0846 18.556 12.0846 18.7715V21.209H15.3346C15.4783 21.209 15.6161 21.1519 15.7177 21.0503C15.8192 20.9488 15.8763 20.811 15.8763 20.6673V2.25065C15.8763 2.10699 15.8192 1.96922 15.7177 1.86764C15.6161 1.76605 15.4783 1.70898 15.3346 1.70898H2.33464C2.19098 1.70898 2.0532 1.76605 1.95162 1.86764C1.85004 1.96922 1.79297 2.10699 1.79297 2.25065V20.6673C1.79297 20.811 1.85004 20.9488 1.95162 21.0503C2.0532 21.1519 2.19098 21.209 2.33464 21.209Z" fill="#4A90E2"/>
</svg>
