<svg width="18" height="18" viewBox="0 0 18 18" fill="none" xmlns="http://www.w3.org/2000/svg">
<path d="M16.0002 10.1663H10.1668V15.9997C10.1668 16.6413 9.64183 17.1663 9.00016 17.1663C8.3585 17.1663 7.8335 16.6413 7.8335 15.9997V10.1663H2.00016C1.3585 10.1663 0.833496 9.64134 0.833496 8.99967C0.833496 8.35801 1.3585 7.83301 2.00016 7.83301H7.8335V1.99967C7.8335 1.35801 8.3585 0.833008 9.00016 0.833008C9.64183 0.833008 10.1668 1.35801 10.1668 1.99967V7.83301H16.0002C16.6418 7.83301 17.1668 8.35801 17.1668 8.99967C17.1668 9.64134 16.6418 10.1663 16.0002 10.1663Z" fill="#5801A9"/>
</svg>
