<svg width="20" height="23" viewBox="0 0 20 23" fill="none" xmlns="http://www.w3.org/2000/svg">
<path d="M19.9036 20.3528V5.20645C19.9036 4.01313 18.9332 3.04268 17.7398 3.04268H15.5761V0.878906H13.4123V3.04268H6.921V0.878906H4.75723V3.04268H2.59346C1.40014 3.04268 0.429688 4.01313 0.429688 5.20645V20.3528C0.429688 21.5462 1.40014 22.5166 2.59346 22.5166H17.7398C18.9332 22.5166 19.9036 21.5462 19.9036 20.3528ZM6.921 18.1891H4.75723V16.0253H6.921V18.1891ZM6.921 13.8615H4.75723V11.6978H6.921V13.8615ZM11.2485 18.1891H9.08477V16.0253H11.2485V18.1891ZM11.2485 13.8615H9.08477V11.6978H11.2485V13.8615ZM15.5761 18.1891H13.4123V16.0253H15.5761V18.1891ZM15.5761 13.8615H13.4123V11.6978H15.5761V13.8615ZM17.7398 8.4521H2.59346V6.28833H17.7398V8.4521Z" fill="#2D3A4B"/>
</svg>
