<svg width="16" height="23" viewBox="0 0 16 23" fill="none" xmlns="http://www.w3.org/2000/svg">
<path d="M8.38179 10.7984C7.66445 10.7984 6.9765 10.5135 6.46927 10.0062C5.96204 9.49899 5.67708 8.81104 5.67708 8.0937C5.67708 7.37637 5.96204 6.68842 6.46927 6.18118C6.9765 5.67395 7.66445 5.38899 8.38179 5.38899C9.09912 5.38899 9.78708 5.67395 10.2943 6.18118C10.8015 6.68842 11.0865 7.37637 11.0865 8.0937C11.0865 8.44889 11.0165 8.8006 10.8806 9.12875C10.7447 9.4569 10.5455 9.75507 10.2943 10.0062C10.0432 10.2574 9.74499 10.4566 9.41684 10.5925C9.08869 10.7285 8.73698 10.7984 8.38179 10.7984ZM8.38179 0.520508C6.37325 0.520508 4.44698 1.3184 3.02673 2.73865C1.60648 4.1589 0.808594 6.08517 0.808594 8.0937C0.808594 13.7736 8.38179 22.1582 8.38179 22.1582C8.38179 22.1582 15.955 13.7736 15.955 8.0937C15.955 6.08517 15.1571 4.1589 13.7368 2.73865C12.3166 1.3184 10.3903 0.520508 8.38179 0.520508Z" fill="#2D3A4B"/>
</svg>
