<svg width="28" height="28" viewBox="0 0 28 28" fill="none" xmlns="http://www.w3.org/2000/svg">
<path d="M5.83333 23.333C5.83333 23.9518 6.07917 24.5453 6.51675 24.9829C6.95434 25.4205 7.54783 25.6663 8.16667 25.6663H19.8333C20.4522 25.6663 21.0457 25.4205 21.4832 24.9829C21.9208 24.5453 22.1667 23.9518 22.1667 23.333V9.33301H24.5V6.99967H19.8333V4.66634C19.8333 4.0475 19.5875 3.45401 19.1499 3.01643C18.7123 2.57884 18.1188 2.33301 17.5 2.33301H10.5C9.88116 2.33301 9.28767 2.57884 8.85008 3.01643C8.4125 3.45401 8.16667 4.0475 8.16667 4.66634V6.99967H3.5V9.33301H5.83333V23.333ZM10.5 4.66634H17.5V6.99967H10.5V4.66634ZM9.33333 9.33301H19.8333V23.333H8.16667V9.33301H9.33333Z" fill="#A14B4C"/>
<path d="M10.5 11.667H12.8333V21.0003H10.5V11.667ZM15.1667 11.667H17.5V21.0003H15.1667V11.667Z" fill="#A14B4C"/>
</svg>
