<svg width="20" height="20" viewBox="0 0 20 20" fill="none" xmlns="http://www.w3.org/2000/svg">
<path d="M10 18.7529C14.9706 18.7529 19 14.7235 19 9.75293C19 4.78237 14.9706 0.75293 10 0.75293C5.02944 0.75293 1 4.78237 1 9.75293C1 14.7235 5.02944 18.7529 10 18.7529Z" stroke="white" stroke-width="1.375" stroke-linecap="round" stroke-linejoin="round"/>
<path d="M9.307 7.49193L13 6.75293L12.261 10.4459C12.1836 10.833 11.9935 11.1885 11.7144 11.4677C11.4354 11.7469 11.08 11.9373 10.693 12.0149L7 12.7529L7.739 9.05993C7.81654 8.67304 8.00678 8.31773 8.28579 8.03872C8.5648 7.75971 8.92011 7.56947 9.307 7.49193Z" stroke="white" stroke-width="1.375" stroke-linecap="round" stroke-linejoin="round"/>
</svg>
