<svg width="352" height="25" viewBox="0 0 352 25" fill="none" xmlns="http://www.w3.org/2000/svg">
<rect y="12.5" width="352" height="1" fill="#F0F2F5"/>
<rect width="34" height="17" transform="translate(158.5 4)" fill="white"/>
<path d="M175.61 12.6364C175.61 13.5767 175.434 14.3821 175.082 15.0526C174.732 15.7202 174.255 16.2315 173.65 16.5866C173.048 16.9418 172.365 17.1193 171.6 17.1193C170.836 17.1193 170.151 16.9418 169.546 16.5866C168.944 16.2287 168.467 15.7159 168.115 15.0483C167.765 14.3778 167.59 13.5739 167.59 12.6364C167.59 11.696 167.765 10.892 168.115 10.2244C168.467 9.55398 168.944 9.04119 169.546 8.68608C170.151 8.33097 170.836 8.15341 171.6 8.15341C172.365 8.15341 173.048 8.33097 173.65 8.68608C174.255 9.04119 174.732 9.55398 175.082 10.2244C175.434 10.892 175.61 11.696 175.61 12.6364ZM174.021 12.6364C174.021 11.9744 173.917 11.4162 173.71 10.9616C173.505 10.5043 173.221 10.1591 172.857 9.92614C172.494 9.69034 172.075 9.57244 171.6 9.57244C171.126 9.57244 170.707 9.69034 170.343 9.92614C169.98 10.1591 169.694 10.5043 169.487 10.9616C169.282 11.4162 169.18 11.9744 169.18 12.6364C169.18 13.2983 169.282 13.858 169.487 14.3153C169.694 14.7699 169.98 15.1151 170.343 15.3509C170.707 15.5838 171.126 15.7003 171.6 15.7003C172.075 15.7003 172.494 15.5838 172.857 15.3509C173.221 15.1151 173.505 14.7699 173.71 14.3153C173.917 13.858 174.021 13.2983 174.021 12.6364ZM177.105 17V8.27273H180.378C181.048 8.27273 181.611 8.3892 182.065 8.62216C182.523 8.85511 182.868 9.18182 183.101 9.60227C183.336 10.0199 183.454 10.5071 183.454 11.0639C183.454 11.6236 183.335 12.1094 183.096 12.5213C182.861 12.9304 182.513 13.2472 182.052 13.4716C181.592 13.6932 181.027 13.804 180.356 13.804H178.025V12.4915H180.143C180.535 12.4915 180.856 12.4375 181.106 12.3295C181.356 12.2187 181.541 12.0582 181.66 11.848C181.782 11.6349 181.844 11.3736 181.844 11.0639C181.844 10.7543 181.782 10.4901 181.66 10.2713C181.538 10.0497 181.352 9.8821 181.102 9.76847C180.852 9.65199 180.53 9.59375 180.135 9.59375H178.686V17H177.105ZM181.613 13.0455L183.774 17H182.01L179.888 13.0455H181.613Z" fill="#98A2B3"/>
</svg>
