<svg width="12" height="7" viewBox="0 0 12 7" fill="none" xmlns="http://www.w3.org/2000/svg">
<path d="M11.3527 2.56962C11.2771 2.536 10.8652 2.79099 10.784 2.75736C10.7476 2.74055 10.812 2.69011 10.9661 2.61166C11.2603 2.46035 11.2294 2.3707 10.9353 2.5164C10.7756 2.59486 10.714 2.60045 10.6887 2.54441C10.6663 2.49678 10.6047 2.48277 10.5291 2.51079C10.4422 2.53881 10.4254 2.53599 10.4758 2.49396C10.5571 2.42952 10.4898 2.35108 10.3666 2.36789C10.1677 2.39591 9.95474 2.44915 9.93233 2.47717C9.89871 2.5192 9.81186 2.41832 9.92392 2.3931C9.97155 2.38189 10.064 2.35107 10.134 2.32585C10.2265 2.28943 10.2461 2.26422 10.2013 2.2334C10.1705 2.21099 10.1088 2.21099 10.0724 2.2334C9.97715 2.29785 9.85108 2.23339 9.76984 2.28662C9.68859 2.34266 9.26556 2.3679 9.21514 2.44355C9.18992 2.48278 9.19553 2.48837 9.23195 2.46595C9.29358 2.42953 9.39723 2.54162 9.3384 2.58364C9.28237 2.62287 9.12829 2.56683 9.13949 2.51079C9.1451 2.48277 9.12829 2.47715 9.10027 2.49677C9.02743 2.5472 8.84253 2.43514 8.83413 2.33707C8.82853 2.26702 8.88736 2.2474 9.19273 2.22499C9.39443 2.21098 9.55972 2.21938 9.56253 2.2502C9.56253 2.28102 9.58494 2.27263 9.61015 2.2334C9.68019 2.13253 9.73622 2.24462 9.84828 2.17457C9.8875 2.14936 10.0696 2.10172 10.2545 2.0709C10.5459 2.02047 10.5851 2.00363 10.5571 1.93638C10.4954 1.78788 10.5431 1.74025 10.8036 1.68981C10.9493 1.66179 11.0725 1.63378 11.081 1.62818C11.0894 1.62257 11.081 1.59737 11.0669 1.57215C11.0501 1.54693 10.8764 1.55813 10.6775 1.59455C9.94073 1.73185 10.473 1.54411 10.8036 1.51329C10.8596 1.50768 10.9129 1.48809 10.9157 1.46848C10.9325 1.37041 10.036 1.55252 9.98556 1.48247C9.92953 1.40402 10.0696 1.32836 10.2573 1.33957C10.4562 1.35078 10.6299 1.29477 10.5851 1.23032C10.5543 1.18549 10.2125 1.17147 10.1536 1.2135C10.0864 1.26113 9.57933 1.23031 9.57653 1.17707C9.57653 1.15185 9.49809 1.11264 9.40844 1.09023C9.1535 1.02858 8.90697 0.896889 8.94899 0.840851C8.9658 0.815633 8.95179 0.776387 8.91537 0.75117C8.83973 0.700735 8.37468 0.692349 8.30744 0.73718C8.28223 0.753992 8.26262 0.745564 8.25982 0.714743C8.25982 0.664308 8.01889 0.619491 7.96286 0.658718C7.90122 0.700747 7.21205 0.541027 7.16442 0.473781C7.1336 0.42895 7.09158 0.426168 7.05516 0.459792C7.02154 0.493415 6.95991 0.4878 6.91228 0.448573C6.86746 0.409346 6.81143 0.398116 6.78341 0.426136C6.761 0.451353 6.71898 0.451353 6.69937 0.426136C6.64894 0.358889 6.27914 0.406523 6.11945 0.322465C5.95976 0.235606 5.87852 0.238432 5.96537 0.277659C6.0242 0.305679 6.01299 0.314088 5.91494 0.31689C5.8449 0.319692 5.78607 0.288868 5.77486 0.244037C5.76366 0.193603 5.74685 0.187982 5.72724 0.227209C5.68521 0.319673 5.12491 0.185191 5.04647 0.238428C5.01845 0.258042 4.98483 0.255231 4.96802 0.230014C4.926 0.171173 4.56741 0.339295 4.48896 0.305672C4.45815 0.291662 4.42453 0.300055 4.41612 0.328075C4.40492 0.353292 4.36289 0.344899 4.31807 0.305672C4.27325 0.266445 4.22002 0.263634 4.1976 0.297258C4.13597 0.38692 3.85862 0.330899 3.77738 0.210416C3.72975 0.143169 3.67092 0.120756 3.58967 0.143172C3.40757 0.196409 3.4636 0.238429 3.33473 0.204806C3.2815 0.190797 3.17505 0.221621 3.0938 0.277659C2.94532 0.381331 2.66517 0.448576 2.38222 0.451378C2.29817 0.451378 2.12728 0.5074 2.00681 0.574646C1.88635 0.639091 1.76028 0.683915 1.72946 0.672707C1.66503 0.644688 1.51935 0.737156 1.55296 0.781987C1.56417 0.798798 1.67343 0.810028 1.78829 0.804424C2.00681 0.793216 2.09366 0.840853 1.99 0.913704C1.86954 0.997762 1.9928 1.22191 2.33739 1.14906C2.45506 1.12384 2.5307 1.13785 2.5419 1.18548C2.56151 1.26674 2.38502 1.35359 2.33739 1.28635C2.32058 1.26393 2.29817 1.27233 2.28136 1.30875C2.26735 1.34237 2.21132 1.35919 2.1665 1.34518C2.02362 1.30035 1.56977 1.33118 1.48293 1.39002C1.39608 1.44886 1.21958 1.43203 0.998263 1.40962C1.15235 1.69261 1.18036 1.68701 1.00667 1.86633C0.922621 1.95319 0.869392 2.04846 0.886201 2.07367C0.936629 2.14652 0.782544 2.25581 0.673285 2.22499C0.622857 2.21098 0.533209 2.23341 0.477179 2.27263C0.381927 2.33988 0.384728 2.35388 0.507996 2.47717C0.692896 2.6593 0.880598 2.72375 1.12433 2.69292C1.46051 2.64809 2.44385 2.79379 2.51669 2.89746C2.56431 2.96751 2.50548 3.02075 2.38782 3.01235C2.18051 2.99834 1.33445 2.91706 1.32604 2.95629C1.31483 3.01513 1.95919 3.28974 1.44651 3.15525C1.32324 3.12163 1.23359 3.11601 1.2504 3.13842C1.26441 3.16084 1.21398 3.15803 1.14114 3.13001C1.04029 3.09358 1.00106 3.09918 0.989858 3.15802C0.981454 3.20005 0.939431 3.26172 0.90021 3.28974C0.807759 3.35418 0.911415 3.5195 1.07951 3.57554C1.14394 3.59796 1.21958 3.64836 1.2476 3.68759C1.27561 3.72682 1.32044 3.74644 1.34285 3.73243C1.36526 3.71562 1.40168 3.72681 1.42129 3.75483C1.47452 3.83049 1.68183 3.77164 1.74347 3.8585C1.76588 3.88933 1.83872 3.92018 1.90035 3.92298C2.04603 3.92858 2.32899 4.04907 2.32058 4.1023C2.30938 4.16395 2.13568 4.12752 1.9844 4.02945C1.87234 3.9566 1.84152 3.95941 1.82191 4.03226C1.78269 4.17516 1.89475 4.07988 2.02642 4.26761C2.07405 4.33766 2.20292 4.4077 2.34019 4.44133C2.58112 4.50017 2.80245 4.7103 2.73241 4.80836C2.67077 4.89242 2.15809 4.63466 2.00401 4.6879C1.85833 4.73833 1.84993 4.56461 1.69024 4.5478C1.60619 4.5394 1.59499 4.54781 1.6258 4.58984C1.69584 4.69071 1.9872 4.90363 2.02082 4.88122C2.04043 4.86721 2.06844 4.87563 2.08525 4.89804C2.10206 4.92046 2.21132 4.97929 2.32899 5.02973C2.59793 5.1418 2.67077 5.25107 2.89489 5.47803C3.00415 5.5873 3.01816 5.62372 2.96493 5.64614C2.92851 5.66295 2.9117 5.69377 2.92851 5.71619C2.94532 5.7386 3.13583 5.85068 3.34594 5.95995C3.73535 6.16169 4.51418 6.35224 4.70748 6.2934C4.86437 6.24577 5.07728 6.43349 5.6544 6.53156C6.027 6.596 6.2175 6.57358 7.72753 6.3102C8.19258 6.22894 8.29063 6.19254 8.52876 6.02162C8.71366 5.88713 8.7753 5.85909 8.71927 5.93194C8.63242 6.04402 9.52611 5.39677 9.74463 5.18942C9.84548 5.09416 9.85108 5.07175 9.77544 5.05493C9.72221 5.04373 9.68579 5.05496 9.68579 5.07737C9.68579 5.10259 9.57653 5.20064 9.43646 5.30151C9.04985 5.5817 9.34401 5.30432 9.30479 5.24829C9.29638 5.23428 9.16751 5.31273 9.01903 5.422C8.61841 5.71621 8.36347 5.7386 9.63817 4.98208C10.2965 4.59261 10.4254 4.39648 10.3273 4.45812C10.2405 4.51416 10.2265 4.50856 10.2321 4.43011C10.2433 4.28721 10.1312 4.25921 10.0248 4.37969C9.93513 4.48337 9.93233 4.47775 9.99116 4.2592L10.05 4.03503C10.2097 3.98459 10.5431 3.87535 10.7055 3.81931C10.8876 3.75766 10.868 3.64276 10.7364 3.72402C10.6691 3.76324 10.6803 3.74083 10.7644 3.65677C10.9493 3.47465 10.8288 3.37098 10.7728 3.41301C10.5823 3.5559 10.4254 3.62597 10.4114 3.57554C10.3806 3.47187 11.1538 3.03475 11.2546 2.79099C11.2883 2.70973 11.3331 2.63408 11.3611 2.61727C11.3863 2.60046 11.3835 2.57525 11.3555 2.56124L11.3527 2.56962Z" fill="white"/>
<path d="M2.25782 0.799214C2.0923 0.846915 2.02216 0.818856 2.06144 0.729067C2.08108 0.681367 2.43457 0.684173 2.42615 0.729067C2.42615 0.740291 2.3476 0.771153 2.25782 0.796406V0.799214Z" fill="white"/>
<path d="M3.47625 4.88353C3.47625 4.88353 3.32217 4.84712 3.15688 4.79108C2.92715 4.71262 2.85712 4.66498 2.86832 4.60333C2.87953 4.5501 2.89353 4.53609 2.91315 4.56691C2.97478 4.65377 3.57431 4.81908 3.47625 4.88353Z" fill="white"/>
<path d="M3.65563 4.20285C3.5883 4.25055 3.32178 4.18319 3.30214 4.11304C3.26847 3.998 3.40314 3.92504 3.51255 3.99799C3.65844 4.09339 3.70893 4.16638 3.65563 4.20285Z" fill="white"/>
<path d="M8.22351 6.00819C7.95736 6.1651 7.60157 6.28558 7.39986 6.28558C7.08609 6.28838 5.79178 6.53775 5.57887 6.38925C5.39957 6.26596 6.7527 6.34444 6.7471 6.23516C6.7471 6.19593 6.77232 6.19032 6.81434 6.22114C6.85356 6.24916 6.91519 6.24916 6.95161 6.22394C6.98803 6.19873 7.03006 6.19872 7.04687 6.22114C7.06367 6.24636 7.08609 6.25198 7.1029 6.23797C7.1169 6.22396 7.19815 6.19591 7.27939 6.1763C7.36064 6.15668 7.46709 6.11747 7.50912 6.08946C7.61838 6.0138 7.78087 6.03062 8.16468 5.92415C8.30475 5.88492 8.41961 5.86249 8.42522 5.8709C8.43082 5.8793 8.34117 5.93814 8.22351 6.00819Z" fill="white"/>
<path d="M7.47524 0.403557C7.87866 0.414765 7.56209 0.554859 7.50326 0.470801C7.48645 0.448385 7.45283 0.459615 7.43042 0.493238C7.408 0.529663 7.34637 0.546448 7.30155 0.53524C7.15587 0.493211 7.28193 0.397953 7.47524 0.403557Z" fill="white"/>
</svg>
