<svg width="13" height="8" viewBox="0 0 13 8" fill="none" xmlns="http://www.w3.org/2000/svg">
<path d="M12.2296 5.11114C12.2043 5.04389 12.1595 5.0299 12.0727 5.06353C11.983 5.09715 11.9158 5.07472 11.8093 4.97385C11.7309 4.89819 11.6524 4.85618 11.6356 4.8814C11.6188 4.90381 11.5936 4.86179 11.5852 4.78614C11.5712 4.67126 11.5488 4.64882 11.4591 4.66003C11.3443 4.67404 11.2882 4.62362 11.3555 4.56478C11.3751 4.54516 11.3807 4.47229 11.3639 4.40505C11.3247 4.25374 10.9829 3.95956 10.854 3.96796C10.6747 3.97917 10.2993 3.73819 10.8008 3.88109C10.9128 3.91191 11.0137 3.93433 11.0277 3.92873C11.0473 3.92033 12.1371 4.26777 12.1875 4.25096C12.266 4.22014 12.1651 4.09965 12.0391 4.06883C11.9186 4.03801 11.9074 4.02398 11.9186 3.87828C11.9354 3.63451 11.9186 3.51124 12.0279 3.40477C12.1735 3.26187 12.0979 3.12178 11.7785 2.95086C11.1762 2.62864 9.9099 2.05704 9.68858 2.00661C9.56811 1.97859 9.3524 1.91134 9.22353 1.8609C8.85092 1.7152 8.33544 1.58632 8.31303 1.52188C8.29062 1.46584 7.09156 1.16603 7.00752 1.24169C6.96269 1.28372 6.99631 1.31453 7.156 1.37337C7.27086 1.4154 7.38573 1.4406 7.41094 1.4322C7.47818 1.40698 7.90961 1.5695 7.98525 1.54148C8.05809 1.51346 8.10011 1.60592 8.00486 1.64515C7.96284 1.66196 7.92642 1.65635 7.91801 1.63673C7.90961 1.61712 7.75553 1.58353 7.57623 1.56111C7.17561 1.51628 6.93468 1.42382 6.93468 1.32015C6.93468 1.27532 6.88705 1.22487 6.82542 1.20526C6.73857 1.17444 6.28192 1.14082 5.96815 1.14082C5.81967 1.14082 5.43866 1.05674 5.3294 1.11558C5.26497 1.152 5.25657 1.14081 5.28738 1.05955C5.3182 0.972694 5.30699 0.969899 5.20054 1.03154C5.1333 1.07357 5.08287 1.08477 5.08847 1.05955C5.09968 1.00071 4.77751 1.05396 4.29004 1.07077C4.04631 1.07918 3.91463 1.10438 3.87261 1.15762C3.83339 1.20525 3.79137 1.21926 3.76055 1.19404C3.73254 1.17443 3.69892 1.17724 3.67931 1.20246C3.65969 1.22767 3.64008 1.23048 3.63168 1.20526C3.61487 1.16323 3.50561 1.19406 2.97332 1.38459C2.74359 1.46584 2.69877 1.46863 2.69877 1.39858C2.69877 1.32853 2.67356 1.33134 2.53628 1.4098C2.44663 1.46303 2.36259 1.48546 2.35418 1.46025C2.34298 1.43223 2.32337 1.4238 2.30376 1.43781C2.28414 1.45182 2.2001 1.46024 2.11045 1.45744C1.96197 1.45464 1.94236 1.46864 1.87512 1.62555C1.80508 1.78246 1.80789 1.79648 1.90314 1.81049C2.1945 1.85252 1.88353 2.03462 1.69582 2.03743C1.37365 2.04303 0.852568 2.11589 0.866576 2.15232C0.87498 2.17473 0.936614 2.18874 0.998248 2.18594C1.0851 2.18033 1.1019 2.19433 1.06548 2.24196C1.04027 2.27559 1.03467 2.35964 1.05428 2.41849C1.08229 2.51375 1.06268 2.54179 0.945018 2.57541C0.813346 2.61464 0.810544 2.62025 0.908597 2.65107C1.2896 2.76595 0.63685 3.01531 1.26439 3.30951C1.6398 3.48323 1.6538 3.59251 1.29801 3.55328C1.16073 3.53927 1.11591 3.55329 1.05708 3.62894C0.919803 3.81667 0.695683 3.6093 0.718095 3.81104C0.723698 3.86708 0.69288 3.92874 0.650857 3.94275C0.550002 3.98198 0.656461 4.06882 0.734904 3.99317C0.76572 3.96515 0.788132 3.96235 0.782529 3.99037C0.768522 4.06322 1.43248 4.0436 1.47451 4.12766C1.53614 4.24534 1.56135 4.28739 1.62579 4.42748C1.651 4.48632 1.70423 4.52273 1.74065 4.50872C1.77987 4.49471 1.8443 4.50313 1.89193 4.53115C1.98718 4.58439 2.00119 4.60119 1.4661 4.55636C1.12432 4.52834 1.00105 4.6012 1.21396 4.70768C1.284 4.7441 1.38205 4.7665 1.44088 4.7637C1.54734 4.7581 1.63139 4.88139 1.54174 4.91502C1.51092 4.92622 1.36244 4.9178 1.20556 4.89538C0.967428 4.86176 0.917 4.86738 0.872176 4.94864C0.790931 5.09434 0.88058 5.25125 1.05147 5.26245L1.20276 5.27087C1.06268 5.48101 1.08789 5.49502 0.810542 5.44178C0.479962 5.37734 0.451948 5.41937 0.816146 5.51464C0.967428 5.55386 1.1047 5.6267 1.12432 5.67433C1.16914 5.79201 1.35684 5.85365 1.96197 5.95452C2.24772 6.00216 2.48025 6.04979 2.48305 6.05819C2.49706 6.09742 2.17208 6.18989 2.09925 6.16747C2.05722 6.15346 2.02921 6.15908 2.03481 6.17869C2.05162 6.22632 1.88072 6.15627 1.71263 6.13385C1.6482 6.12545 1.4745 6.09744 1.32322 6.07502C1.02626 6.02739 0.928207 6.10864 1.15793 6.20951C1.31482 6.27956 1.36244 6.34679 1.22237 6.29916C1.12711 6.26553 1.06268 6.32158 1.13552 6.37762C1.19435 6.42245 1.67902 6.43926 1.73785 6.48409C1.76026 6.5009 1.91435 6.52892 2.07964 6.54573C2.24213 6.56254 2.43263 6.60459 2.49426 6.63821C2.67916 6.73908 2.81924 6.56815 2.82204 6.69704C2.82204 6.74748 2.89768 6.78952 3.02655 6.81474C3.13861 6.83715 3.23947 6.87636 3.25067 6.90438C3.26188 6.9324 3.27869 6.93521 3.28709 6.9128C3.31511 6.84835 3.6793 6.99965 3.73533 6.97724C3.76615 6.96603 4.99322 7.13976 5.08287 7.16778C5.17252 7.1958 5.54512 7.23501 5.90652 7.29105C7.3493 7.5096 7.64626 7.42834 7.90681 7.49559C8.02167 7.52361 8.01887 7.52923 7.87599 7.54884C7.45576 7.61048 4.06312 7.15655 3.20025 6.92959C2.87247 6.84273 2.72679 6.86515 2.92569 6.97163C3.20024 7.11452 2.64274 6.9324 2.33457 6.90438C2.17769 6.89037 2.14967 6.90158 2.12166 6.97724C2.10485 7.02487 2.10205 7.06969 2.11605 7.0753C2.36819 7.14815 2.54469 7.16216 2.58111 7.11733C2.60632 7.08651 2.61753 7.08651 2.60632 7.11453C2.59511 7.14535 2.67076 7.18737 2.78002 7.21259C3.21706 7.31346 5.25096 7.61327 5.85889 7.6693C6.53686 7.73095 7.50339 7.76176 7.77794 7.73094C8.4335 7.65529 8.82291 7.59926 8.89014 7.57124C9.05263 7.504 8.75847 7.51799 8.57637 7.55722C8.05249 7.66369 8.47271 7.3779 8.54555 7.45355C8.56797 7.47597 8.57637 7.45638 8.55956 7.41155C8.53995 7.35551 8.49513 7.33869 8.42229 7.36671C8.03568 7.51521 5.6908 7.17896 5.43306 7.13974C4.06872 6.92959 4.36008 7.02208 4.10794 6.92121C3.8502 6.81754 3.97627 6.94923 3.69892 6.85397C3.52802 6.79513 4.13595 6.84834 5.06606 6.97163C6.25671 7.13134 7.31008 7.13133 8.10852 7.21259C8.16175 7.21819 8.21778 7.19018 8.24019 7.14534C8.27101 7.0865 8.28221 7.0837 8.29062 7.14534C8.29902 7.20138 8.33824 7.20419 8.4391 7.15376C8.53155 7.10893 8.56237 7.10613 8.53155 7.15376C8.35785 7.40313 9.15629 6.89597 9.41963 6.92959C9.58492 6.9492 10.2153 6.76428 10.4198 6.83153C10.5374 6.87076 10.7784 6.69703 10.8232 6.54292L10.8596 6.41404C10.9493 6.43646 11.2602 6.50653 11.3079 6.53735C11.3303 6.55136 11.3611 6.52331 11.3807 6.47568C11.4087 6.40563 11.3807 6.38042 11.2518 6.33839C11.1622 6.31037 11.0109 6.30198 10.9184 6.31879C10.7419 6.34961 10.6019 6.26274 10.6775 6.16747C10.7363 6.08902 10.882 6.12266 10.9773 6.01058C11.0977 5.86768 11.291 6.01056 11.4451 5.9209C11.4872 5.89568 11.5516 5.88168 11.5908 5.88728C11.7001 5.90689 11.8738 5.72198 11.8373 5.62672C11.8149 5.57068 11.7197 5.53984 11.56 5.53704C11.3443 5.53424 11.1762 5.45299 11.2126 5.37173C11.2182 5.35772 11.3135 5.36334 11.4199 5.38295C11.8514 5.46141 11.8682 5.24283 11.5432 5.21481C11.4339 5.2064 11.3359 5.17559 11.3247 5.15037C11.3135 5.12235 11.3163 5.09995 11.3303 5.09434C11.3751 5.07753 12.1119 5.1896 12.1539 5.22042C12.2324 5.27926 12.2884 5.22042 12.2492 5.12236L12.2296 5.11114Z" fill="white"/>
<path d="M11.5479 3.2279C11.772 3.30636 11.8841 3.3764 11.8224 3.39882C11.8112 3.40162 11.6627 3.3484 11.489 3.27835C11.1164 3.12985 11.1613 3.09341 11.5479 3.2279Z" fill="white"/>
<path d="M10.2742 6.46188C10.2182 6.49271 10.1201 6.52633 10.0501 6.53474C9.89602 6.55435 9.84279 6.43946 9.96046 6.34419C10.0221 6.29656 10.0977 6.29375 10.2098 6.33858C10.3181 6.38154 10.3387 6.42266 10.2714 6.46188H10.2742Z" fill="white"/>
<path d="M10.4678 6.13442C10.4426 6.16528 10.4005 6.20177 10.3725 6.21299C10.2911 6.24385 10.0947 6.16529 10.1059 6.10636C10.12 6.03622 10.5352 6.04743 10.4678 6.13442Z" fill="white"/>
</svg>
