<svg width="11" height="7" viewBox="0 0 11 7" fill="none" xmlns="http://www.w3.org/2000/svg">
<path d="M10.7714 4.40268C10.8106 4.38027 10.875 4.37184 10.9227 4.38585C11.0235 4.41387 11.0319 4.34103 10.7798 4.28779C10.6341 4.25697 10.6201 4.24577 10.7041 4.22896C10.8862 4.19534 10.6621 4.20375 10.6005 4.09167C10.5781 4.04964 10.6005 4.0216 10.6733 4.00199C10.777 3.97397 10.7742 3.97118 10.6089 3.91234C10.3932 3.83389 9.99256 3.71622 10.057 3.6798C10.085 3.66579 10.1466 3.66856 10.1999 3.69098C10.3315 3.74422 10.424 3.67418 10.3652 3.56771C10.3119 3.46964 10.3904 3.40237 10.5164 3.4388C10.6005 3.46402 10.5865 3.41641 10.4828 3.32955C10.4492 3.29873 10.2559 3.21466 10.0626 3.14181C9.704 3.01012 9.5275 2.89524 9.84127 3.00172C9.93653 3.03254 10.0234 3.05216 10.0402 3.04375C10.0542 3.03535 10.0458 2.99052 10.0206 2.94289C9.93933 2.79158 9.04004 2.51417 8.9616 2.39368C8.91957 2.32924 9.24455 2.39369 9.34821 2.47215C9.40424 2.51417 9.48548 2.53099 9.5219 2.51138C9.56112 2.48896 9.60035 2.49176 9.61155 2.51138C9.63677 2.55901 10.0318 2.6991 10.0738 2.67668C10.1102 2.65707 10.029 2.545 9.76844 2.26481C9.64797 2.13592 9.61996 2.07989 9.64517 2.03226C9.73482 1.86694 9.00922 1.56714 8.71506 1.3654C8.44892 1.18607 5.97797 0.275435 6.61672 0.620072C7.06496 0.861039 6.2217 0.704136 6.17688 0.625682C6.14886 0.572445 5.61097 0.477167 5.52973 0.507988C5.45409 0.538809 5.41767 0.533226 5.37284 0.564047C5.35603 0.578057 5.33922 0.552816 5.33362 0.505183C5.31681 0.3847 5.13751 0.482771 4.86857 0.43794C4.49316 0.373495 4.68087 0.569644 4.77052 0.522012C4.79853 0.5052 4.87697 0.52201 4.94701 0.555633C5.06748 0.614474 5.06748 0.620067 4.9302 0.684511C4.85176 0.720936 4.77892 0.734942 4.76771 0.715328C4.75651 0.695715 4.71448 0.69852 4.67526 0.718133C4.63604 0.740549 4.52678 0.748976 4.43713 0.740571C4.24383 0.720957 4.0141 0.734967 3.87403 0.740571L4.03371 0.776963C4.3839 0.855417 4.0113 0.939494 3.97208 0.866644C3.96087 0.844228 3.91045 0.849843 3.86002 0.877862C3.80959 0.905882 3.71714 0.928278 3.65551 0.928278C3.59387 0.928278 3.55185 0.945091 3.56026 0.964705C3.58827 1.01234 4.13177 0.931088 4.22422 0.866644C4.27184 0.833021 4.29706 0.835836 4.29706 0.880667C4.29706 0.919894 4.30546 0.928285 4.32227 0.900266C4.33908 0.872246 4.43713 0.869433 4.54359 0.889047C4.67246 0.915198 4.69674 0.942295 4.61643 0.970314C4.46235 1.02355 3.6303 1.13842 3.42578 1.16644C3.59388 1.34856 3.6303 1.37099 3.51823 1.3878C3.38936 1.40461 2.92991 1.55313 2.92431 1.58115C2.92151 1.59236 3.03917 1.58674 3.18765 1.56432C3.44819 1.5307 3.54625 1.58115 3.42018 1.68482C3.33053 1.75767 3.0924 1.75766 2.99995 1.78288C2.97754 1.78849 2.95513 1.79129 2.94392 1.78849C2.93552 1.78849 2.86268 1.80808 2.78143 1.8361C2.54891 1.92016 2.52649 1.85011 2.3528 1.979C2.23794 2.06586 2.23794 2.07148 2.3472 2.09389C2.52649 2.13032 2.41443 2.09949 2.00541 2.22557C1.8093 2.28442 1.76168 2.31525 1.75888 2.37969C1.75327 2.48337 1.88494 2.54501 1.9886 2.48897C2.10066 2.42733 2.27716 2.49737 2.38642 2.44133C2.47887 2.3937 2.61054 2.5226 2.57972 2.62907C2.55451 2.71593 2.37801 2.82238 2.32759 2.78316C2.28276 2.74953 1.50674 2.79719 1.40308 2.80279C1.2602 2.80839 1.31623 2.96529 1.40588 2.96529C1.67203 2.97089 1.96619 3.06056 2.01381 3.15023C2.06704 3.24549 2.06144 3.2511 1.84012 3.29313C1.71405 3.31834 1.56837 3.33513 1.51234 3.33513C1.21818 3.32952 1.52355 3.436 1.56277 3.50885C1.57117 3.52286 1.49553 3.5369 1.38907 3.5397C1.23499 3.5425 1.21818 3.55088 1.29662 3.5817C1.37787 3.61532 1.37226 3.62374 1.2602 3.66016C1.16495 3.69098 1.14534 3.71622 1.18176 3.75265C1.2574 3.8255 1.68884 3.83389 1.58518 3.87311C1.4395 3.92915 1.32184 4.02443 1.34425 4.06646C1.35826 4.08888 1.46752 4.10569 1.58798 4.10289C1.95498 4.09448 2.08665 4.30182 1.6132 4.24018C1.41429 4.21496 1.00527 4.27379 0.988458 4.33263C0.985656 4.34664 1.01647 4.39428 1.0585 4.43911C1.19017 4.5764 1.83172 4.50637 2.06985 4.6969C2.26315 4.851 2.63295 4.88742 3.23808 5.0051C3.84041 5.12279 3.78158 5.06674 3.91605 5.03031C3.94407 5.02191 3.98609 5.0079 4.0141 4.9995C4.03932 4.99109 4.06453 5.0163 4.07014 5.05832C4.07574 5.10596 4.185 5.14518 4.3671 5.16199C4.52678 5.17881 4.65005 5.20682 4.64164 5.22924C4.62484 5.28247 4.21581 5.18723 4.16819 5.21244C4.12616 5.23486 3.18485 5.16761 3.10921 5.20684C3.06158 5.23205 2.34439 5.18162 1.74206 5.10877C1.6216 5.09476 1.48713 5.10596 1.4339 5.13398C1.34985 5.17881 1.36106 5.19004 1.55997 5.25448C1.73926 5.31052 1.78969 5.35253 1.83732 5.48142C1.87094 5.56828 1.88214 5.64673 1.86253 5.65514C1.81491 5.68036 1.59358 5.6131 1.77288 5.68315C1.89055 5.72798 1.89895 5.742 1.86814 5.82886C1.84853 5.88209 1.84853 5.95497 1.86814 5.99419C1.95498 6.1511 3.0924 6.35001 3.91605 6.35001C4.48476 6.35001 5.15993 6.40887 5.56615 6.36684C5.97517 6.32481 6.71758 6.28557 6.97532 6.24634C7.27788 6.20151 7.53562 6.22392 7.66169 6.13987C7.71492 6.10344 7.75414 6.09786 7.75414 6.12307C7.74854 6.23515 8.88876 6.10065 9.05685 5.97176C9.12408 5.91852 9.01202 5.92414 8.69545 5.98859C7.81297 6.16511 8.29483 5.98857 8.49374 5.79804C8.58059 5.71398 8.6058 5.71397 8.66463 5.78963C8.71506 5.85407 8.79911 5.86809 8.9672 5.83727C9.1549 5.80365 9.20253 5.78122 9.20533 5.71958C9.21093 5.63832 9.27257 5.61311 10.127 5.34413C10.2587 5.3021 10.382 5.26008 10.4044 5.24887C10.4604 5.21805 10.396 5.02189 10.3287 5.01629C10.2839 5.01629 10.2755 4.99388 10.2979 4.95465C10.3175 4.92103 10.2307 4.88462 10.0794 4.8622C9.93933 4.84259 9.82167 4.81458 9.81326 4.79776C9.78244 4.74173 10.4408 4.76413 10.749 4.61563C10.8582 4.56239 10.9423 4.50915 10.9367 4.50074C10.9311 4.48953 10.875 4.47272 10.8134 4.46432C10.7154 4.45031 10.7097 4.44191 10.7686 4.40829L10.7714 4.40268Z" fill="white"/>
<path d="M7.19091 1.16093C6.97519 1.16093 6.992 1.07125 6.71184 1.09927C6.61659 1.10767 6.40088 1.08808 6.21878 1.05446C5.90221 0.992818 5.82096 0.998397 5.68649 1.09927C5.63886 1.13569 5.63046 1.1245 5.64446 1.04605C5.65567 0.9788 5.64446 0.945181 5.59964 0.945181C5.50159 0.939577 5.5296 0.838689 5.63326 0.821878C5.75652 0.802264 6.21878 0.903128 6.30842 0.886317C6.40087 0.869505 7.62514 1.16371 7.1881 1.16371L7.19091 1.16093Z" fill="white"/>
<path d="M8.44633 1.31218C8.211 1.23093 6.82985 0.768616 6.84386 0.723785C6.86066 0.664945 8.47154 1.26455 8.49675 1.31218C8.50516 1.32619 8.48275 1.32619 8.44633 1.31218Z" fill="white"/>
<path d="M8.59493 1.60898C8.56412 1.55295 9.14403 1.73786 9.31773 1.84153C9.53905 1.97042 9.53624 2.00965 9.31492 1.9452C9.33453 1.98163 8.63135 1.67903 8.59493 1.60898Z" fill="white"/>
<path d="M8.9329 5.78657C8.68917 5.86502 8.67236 5.72773 8.7508 5.6857C8.79002 5.66328 8.82644 5.66609 8.83765 5.6857C8.84885 5.70812 8.91609 5.70812 8.99173 5.69131C9.18784 5.64087 9.14021 5.71932 8.9329 5.78657Z" fill="white"/>
<path d="M4.28933 0.36479C4.47143 0.308751 4.48264 0.336781 4.6059 0.516105C4.24451 0.569342 3.4909 0.658991 3.65058 0.748653C3.73183 0.793484 3.56934 0.85794 3.26677 0.899969C3.06506 0.927988 3.03145 0.922399 3.14351 0.88037C3.39004 0.787906 3.60016 0.76267 3.52451 0.720641C3.43487 0.670206 3.55533 0.574929 3.71502 0.569325C3.79626 0.569325 3.87471 0.535699 3.89712 0.496472C3.95315 0.398405 4.02879 0.44604 4.08762 0.429229L4.28653 0.367594L4.28933 0.36479Z" fill="white"/>
</svg>
