<svg width="11" height="7" viewBox="0 0 11 7" fill="none" xmlns="http://www.w3.org/2000/svg">
<path d="M10.642 3.72278C10.7512 3.72278 10.8633 3.69196 10.8969 3.65273C10.9473 3.59389 10.9137 3.5771 10.7204 3.5715C10.5887 3.5659 10.4795 3.53507 10.4711 3.49584C10.4655 3.45942 10.3758 3.40897 10.2778 3.38376C10.1769 3.35854 10.0957 3.31091 10.0957 3.27728C10.0957 3.24366 10.0481 3.22965 9.98922 3.24647C9.93039 3.26328 9.88276 3.25208 9.88276 3.22687C9.88556 3.15121 9.60261 3.17642 9.62222 3.10637C9.63903 3.03912 10.0453 3.1316 10.2554 3.1232C10.3814 3.11759 10.3842 3.11196 10.2918 2.98587C10.2302 2.89901 10.1433 2.85138 10.0424 2.84577C9.89677 2.84017 9.89397 2.84297 9.99482 2.8794C10.1181 2.92703 10.1293 3.0055 10.006 2.96347C9.96121 2.94666 9.90798 2.8794 9.88837 2.81776C9.85475 2.70568 9.86035 2.7029 10.1293 2.76735C10.1545 2.77295 10.8185 2.94385 10.7989 2.92704C10.7877 2.91864 10.7428 2.8682 10.7008 2.82057C10.656 2.77293 10.6084 2.75331 10.5972 2.77853C10.5691 2.83737 10.3646 2.72811 10.4066 2.64965C10.4487 2.5712 10.2442 2.47314 10.2189 2.51516C10.2077 2.53478 10.1433 2.54878 10.0761 2.54318C9.91358 2.52917 10.0144 2.47312 10.1293 2.50114C10.2217 2.52356 10.261 2.45634 9.92479 2.38629C9.79592 2.35827 9.69226 2.34704 9.70066 2.36105C9.70907 2.37505 9.67545 2.38067 9.62502 2.37226C9.49615 2.34985 9.35608 2.10329 9.17118 2.06686C9.09553 2.05285 9.02549 2.02203 9.01149 1.99962C8.96946 1.92677 8.18224 1.64935 7.43983 1.44761C7.05322 1.34114 6.73105 1.23748 6.72544 1.21787C6.71984 1.19545 6.70303 1.18984 6.68902 1.20385C6.6414 1.24868 6.38366 1.16743 6.38366 1.10859C6.38366 1.06936 6.37245 1.07216 6.35004 1.10859C6.31362 1.17584 5.5376 1.04975 4.87363 0.867627C4.57107 0.786371 4.52905 0.761141 4.56266 0.679885C4.59628 0.598629 4.55706 0.581831 4.28251 0.553812C4.10602 0.534198 3.95473 0.542584 3.94073 0.567801C3.92952 0.593018 3.8959 0.601438 3.86789 0.581824C3.80625 0.542597 3.8959 0.660272 3.94913 0.609837C3.97154 0.587421 4.01917 0.595841 4.05559 0.62386C4.21247 0.747145 3.73621 0.604256 3.1507 0.668701C3.03864 0.679908 2.93218 0.674291 2.92097 0.654677C2.89296 0.607045 2.80331 0.663093 2.83412 0.699518C2.84813 0.71633 2.87615 0.766745 2.90416 0.819982C2.94899 0.906842 2.94618 0.90967 2.83412 0.88165C2.74167 0.856433 2.71926 0.831195 2.73047 0.755543C2.74167 0.677089 2.70805 0.651874 2.55397 0.618251C2.17857 0.539797 2.04409 0.912444 1.79756 0.713507C1.71631 0.646261 1.44457 0.671474 1.42776 0.744324C1.41095 0.808769 1.80596 0.842404 2.0553 0.862018C1.99086 0.895641 1.85919 0.974098 1.78075 0.934871C1.72752 0.906851 1.70231 0.923674 1.66028 1.01614C1.62106 1.103 1.63227 1.16464 1.71071 1.2599C1.81157 1.38319 1.80877 1.39159 1.67149 1.43362C1.59025 1.45884 1.49499 1.46723 1.45017 1.45042C1.3297 1.40559 0.721773 1.32995 0.906674 1.57091C0.945895 1.62135 1.00193 1.66337 1.03274 1.66617C1.10558 1.67177 1.03274 1.80067 0.996323 1.74183C0.959903 1.68019 0.654537 1.86511 0.685354 1.91555C0.730178 1.9912 0.615316 2.07525 0.450026 2.08366C0.133453 2.10047 -0.00101998 2.38627 0.382789 2.47313C0.62372 2.52637 0.727377 2.77015 0.847842 2.80097C0.985117 2.83739 0.800216 2.62724 0.943094 2.54318C0.99072 2.51516 1.03835 2.51235 1.05235 2.53476C1.07196 2.56839 1.3297 2.53478 1.46138 2.47874C1.54542 2.44512 1.72192 2.5516 1.76954 2.66648C1.83678 2.82619 1.91242 2.78134 1.93763 2.92424C1.95444 3.0139 1.94324 3.01953 1.77515 2.9831C1.67709 2.96349 1.59025 2.96349 1.58464 2.9831C1.57904 3.00552 1.45577 3.00552 1.3129 2.9831C1.17002 2.96068 1.03835 2.96907 1.02434 2.99709C1.01033 3.02511 0.909475 3.04192 0.808621 3.03352C0.62372 3.0167 0.618117 3.0195 0.564888 3.16239C0.511659 3.30249 0.517262 3.3137 0.66014 3.40897C0.741384 3.4622 0.898269 3.52387 1.00193 3.54068C1.10838 3.55749 1.21204 3.60232 1.23445 3.64155C1.25686 3.68077 1.29328 3.70036 1.3157 3.68635C1.33811 3.67234 1.36612 3.70317 1.38013 3.75921C1.39694 3.82365 1.43896 3.8461 1.5118 3.82368C1.57064 3.80687 1.63787 3.82646 1.66309 3.86849C1.6967 3.92453 1.6855 3.94133 1.62667 3.93293C1.58184 3.92732 1.47538 3.94414 1.38293 3.97496C1.25406 4.01699 1.23445 4.0366 1.27928 4.07583C1.3129 4.10104 1.41935 4.12347 1.51461 4.12347C1.64348 4.12347 1.72472 4.16548 1.81997 4.28036C1.89281 4.36722 2.00767 4.4541 2.08331 4.47652C2.243 4.52415 2.34105 4.66143 2.27382 4.74549C2.22619 4.80714 1.92363 4.66986 1.92643 4.5858C1.92643 4.56058 1.89001 4.56339 1.84238 4.5886C1.75274 4.64184 1.76114 4.70065 1.85359 4.70346C1.93483 4.70346 1.98806 4.89402 1.94044 5.0145C1.90962 5.08735 1.91522 5.11254 1.95725 5.09012C1.99367 5.07051 2.02448 5.09295 2.03289 5.14618C2.0609 5.30309 2.25981 5.23865 2.16176 5.36194C2.11974 5.41517 2.13094 5.44598 2.20098 5.48801C2.47273 5.64772 2.18137 5.82984 2.88175 5.7654C3.19832 5.73738 3.30758 5.74579 3.27676 5.80183C3.24315 5.86347 3.26836 5.88308 3.40003 5.90269C3.48688 5.9167 3.58493 5.9167 3.61015 5.90269C3.69699 5.85506 4.36656 5.82143 4.36656 5.86346C4.36656 5.88588 4.41418 5.88029 4.47021 5.84947C4.59348 5.78783 5.45915 5.7542 5.48997 5.81024C5.50398 5.83266 5.5544 5.82985 5.60203 5.80183C5.74211 5.71777 5.89619 5.93352 5.89899 5.80183C5.89899 5.74579 5.9158 5.73458 5.96343 5.7626C6.04747 5.80743 6.20996 5.7626 6.35564 5.7682C6.6526 5.77661 8.04496 5.62529 8.41196 5.54123C8.65289 5.488 8.86301 5.46841 8.87982 5.49643C8.91904 5.56367 9.11514 5.48521 9.0283 5.41796C8.88542 5.30308 9.62502 4.99487 9.86315 4.92482C9.97521 4.8912 9.99482 4.86877 9.96121 4.81274C9.93879 4.77351 9.90237 4.74831 9.88276 4.75671C9.62222 4.87719 9.46533 4.86879 9.62222 4.79594C9.84914 4.69227 9.82113 4.66146 9.77911 4.41769C10.3786 4.30281 10.5972 4.27477 10.5467 4.19072C10.5243 4.15149 10.1713 4.13188 9.96121 4.15709C9.82673 4.17391 9.83794 4.07583 10.1853 4.0394C10.4571 4.01138 10.656 3.92175 10.656 3.82368C10.656 3.73122 10.5075 3.81527 10.4655 3.74522C10.4515 3.72 10.5243 3.70318 10.6336 3.70318L10.642 3.72278Z" fill="white"/>
<path d="M1.543 1.74183C1.51499 1.73062 1.45335 1.73901 1.39732 1.75862C1.34129 1.78104 1.29647 1.79508 1.28806 1.79228C1.28246 1.79228 1.22643 1.73623 1.1648 1.67458L1.05273 1.5625C1.24044 1.60733 1.51218 1.68018 1.5374 1.62974C1.56541 1.5737 1.60744 1.76705 1.5402 1.74183H1.543Z" fill="white"/>
<path d="M1.82039 1.07991C1.84 1.06871 1.8288 1.04067 1.79238 1.02385C1.69432 0.97342 1.94366 1.00704 1.94366 1.06028C1.94366 1.0827 2.05572 1.13876 2.19299 1.18639C2.36109 1.24523 2.43392 1.29287 2.41151 1.3349C2.3947 1.36852 2.32747 1.3853 2.27144 1.3741C2.2126 1.36289 2.13136 1.37412 2.09214 1.39373C1.99128 1.45257 1.77557 1.10513 1.81759 1.07991H1.82039Z" fill="white"/>
<path d="M1.75559 3.66149C1.69115 3.72313 1.67995 3.72032 1.71076 3.65308C1.74438 3.57742 1.74158 3.57184 1.67995 3.59986C1.64073 3.61947 1.5987 3.64187 1.58189 3.65869C1.54267 3.69231 1.46423 3.55503 1.49224 3.53822C1.53147 3.51581 1.99932 3.53541 2.01613 3.55782C2.02453 3.57183 2.00492 3.58303 1.97131 3.58303C1.94049 3.58303 1.92368 3.60546 1.94049 3.63067C1.97971 3.69512 1.87325 3.76236 1.85364 3.66149C1.84243 3.60825 1.81722 3.60825 1.75839 3.66149H1.75559Z" fill="white"/>
<path d="M2.29437 3.93027C2.20192 3.93587 2.12909 3.95269 2.13749 3.9695C2.14589 3.98631 2.10107 3.98911 2.02823 3.9723C1.95539 3.95549 1.89936 3.96952 1.89096 3.99474C1.88535 4.02276 1.86854 4.02276 1.85173 3.99474C1.81812 3.9415 1.87695 3.72854 1.92177 3.807C1.93858 3.83502 1.98901 3.83502 2.03663 3.807C2.08146 3.77898 2.19352 3.78459 2.28037 3.81822C2.36721 3.85184 2.44566 3.88824 2.45126 3.89945C2.45686 3.91066 2.38122 3.92189 2.28877 3.9275L2.29437 3.93027Z" fill="white"/>
<path d="M2.60749 0.856214C2.54297 0.89269 2.39147 0.864653 2.3578 0.808535C2.33255 0.763641 2.52052 0.645782 2.51772 0.727153C2.51772 0.758018 2.54016 0.774849 2.56541 0.758014C2.62713 0.721537 2.68885 0.805705 2.60749 0.853405V0.856214Z" fill="white"/>
<path d="M9.52643 3.27439C9.44507 3.27439 9.37213 3.27439 9.36652 3.27439C9.36091 3.27439 9.36372 3.22391 9.36652 3.15657C9.38335 2.99102 9.51521 2.98259 9.60218 3.14252C9.67232 3.2716 9.66951 3.2772 9.52363 3.27439H9.52643Z" fill="white"/>
<path d="M6.44391 5.88483C6.72687 5.87362 6.95099 5.88201 6.94539 5.90443C6.93698 5.93525 6.39909 5.9801 5.48019 6.02773C5.3093 6.03614 5.19723 5.99971 5.26727 5.95768C5.32891 5.92126 6.01808 5.90444 6.44111 5.88483H6.44391Z" fill="white"/>
<path d="M4.56037 5.99145C4.87414 5.96343 4.85173 6.0615 4.6024 6.0643C4.32224 6.06991 3.85439 6.20999 3.67789 6.15675C3.55743 6.11753 3.55743 6.11473 3.68069 6.08671C3.75073 6.06989 3.84598 6.0615 3.89081 6.0643C4.01127 6.07831 4.16816 5.84853 4.26061 5.89616C4.30543 5.91858 4.28863 5.93818 4.19898 5.9606C4.08131 5.99142 4.08131 5.99423 4.19898 6.00263C4.26621 6.00824 4.4287 6.00266 4.55757 5.98865L4.56037 5.99145Z" fill="white"/>
<path d="M1.52017 4.3918C1.63519 4.37496 1.68008 4.46196 1.58189 4.4788C1.52859 4.48722 1.53139 4.51526 1.58189 4.56857C1.63519 4.62188 1.638 4.64997 1.5875 4.66119C1.51175 4.67802 1.33781 4.46195 1.39673 4.42547C1.41637 4.41425 1.46967 4.40022 1.51736 4.3918H1.52017Z" fill="white"/>
</svg>
