<svg width="104" height="106" viewBox="0 0 104 106" fill="none" xmlns="http://www.w3.org/2000/svg">
<circle cx="3" cy="48" r="3" fill="#27ADF9"/>
<circle cx="4" cy="40" r="3" fill="#27ADF9"/>
<circle cx="7" cy="32" r="3" fill="#27ADF9"/>
<circle cx="11" cy="25" r="3" fill="#27ADF9"/>
<circle cx="17" cy="18" r="3" fill="#27ADF9"/>
<circle cx="24" cy="12" r="3" fill="#27ADF9"/>
<circle cx="31" cy="8" r="3" fill="#27ADF9"/>
<circle cx="39" cy="4" r="3" fill="#27ADF9"/>
<circle cx="47" cy="3" r="3" fill="#27ADF9"/>
<circle cx="3" cy="3" r="3" transform="matrix(-1 0 0 1 104 45)" fill="#27ADF9"/>
<circle cx="3" cy="3" r="3" transform="matrix(-1 0 0 1 103 37)" fill="#27ADF9"/>
<circle cx="3" cy="3" r="3" transform="matrix(-1 0 0 1 100 29)" fill="#27ADF9"/>
<circle cx="3" cy="3" r="3" transform="matrix(-1 0 0 1 96 22)" fill="#27ADF9"/>
<circle cx="3" cy="3" r="3" transform="matrix(-1 0 0 1 90 15)" fill="#27ADF9"/>
<circle cx="3" cy="3" r="3" transform="matrix(-1 0 0 1 83 9)" fill="#27ADF9"/>
<circle cx="3" cy="3" r="3" transform="matrix(-1 0 0 1 76 5)" fill="#27ADF9"/>
<circle cx="3" cy="3" r="3" transform="matrix(-1 0 0 1 68 1)" fill="#27ADF9"/>
<circle cx="3" cy="3" r="3" transform="matrix(-1 0 0 1 60 0)" fill="#27ADF9"/>
<circle cx="3" cy="3" r="3" transform="matrix(1 0 0 -1 0 61)" fill="#27ADF9"/>
<circle cx="3" cy="3" r="3" transform="matrix(1 0 0 -1 1 69)" fill="#27ADF9"/>
<circle cx="3" cy="3" r="3" transform="matrix(1 0 0 -1 4 77)" fill="#27ADF9"/>
<circle cx="3" cy="3" r="3" transform="matrix(1 0 0 -1 8 84)" fill="#27ADF9"/>
<circle cx="3" cy="3" r="3" transform="matrix(1 0 0 -1 14 91)" fill="#27ADF9"/>
<circle cx="3" cy="3" r="3" transform="matrix(1 0 0 -1 21 97)" fill="#27ADF9"/>
<circle cx="3" cy="3" r="3" transform="matrix(1 0 0 -1 28 101)" fill="#27ADF9"/>
<circle cx="3" cy="3" r="3" transform="matrix(1 0 0 -1 36 105)" fill="#27ADF9"/>
<circle cx="3" cy="3" r="3" transform="matrix(1 0 0 -1 44 106)" fill="#27ADF9"/>
<circle cx="101" cy="58" r="3" transform="rotate(180 101 58)" fill="#27ADF9"/>
<circle cx="100" cy="66" r="3" transform="rotate(180 100 66)" fill="#27ADF9"/>
<circle cx="97" cy="74" r="3" transform="rotate(180 97 74)" fill="#27ADF9"/>
<circle cx="93" cy="81" r="3" transform="rotate(180 93 81)" fill="#27ADF9"/>
<circle cx="87" cy="88" r="3" transform="rotate(180 87 88)" fill="#27ADF9"/>
<circle cx="80" cy="94" r="3" transform="rotate(180 80 94)" fill="#27ADF9"/>
<circle cx="73" cy="98" r="3" transform="rotate(180 73 98)" fill="#27ADF9"/>
<circle cx="65" cy="102" r="3" transform="rotate(180 65 102)" fill="#27ADF9"/>
<circle cx="57" cy="103" r="3" transform="rotate(180 57 103)" fill="#27ADF9"/>
</svg>
