<svg width="13" height="13" viewBox="0 0 13 13" fill="none" xmlns="http://www.w3.org/2000/svg">
<path d="M6.38212 9.88778L3.23351 6.74006L3.86341 6.09948L5.93727 8.17335V0.477539H6.82696V8.17335L8.89994 6.10037L9.53072 6.74006L6.38212 9.88778ZM1.59203 12.9332C1.18218 12.9332 0.840247 12.7962 0.566223 12.5221C0.292198 12.2481 0.15489 11.9059 0.154297 11.4954V9.33973H1.04399V11.4954C1.04399 11.6325 1.10093 11.7582 1.21481 11.8727C1.32869 11.9871 1.45413 12.0441 1.59114 12.0435H11.1731C11.3095 12.0435 11.435 11.9866 11.5494 11.8727C11.6639 11.7588 11.7208 11.633 11.7202 11.4954V9.33973H12.6099V11.4954C12.6099 11.9053 12.4729 12.2472 12.1989 12.5213C11.9249 12.7953 11.5826 12.9326 11.1722 12.9332H1.59203Z" fill="#2D3A4B"/>
</svg>
