<svg width="25" height="25" viewBox="0 0 25 25" fill="none" xmlns="http://www.w3.org/2000/svg">
<path d="M4.59375 18.0057V20.2987C4.59375 20.4313 4.64643 20.5585 4.7402 20.6522C4.83396 20.746 4.96114 20.7987 5.09375 20.7987H7.39175C7.5241 20.7986 7.65104 20.7461 7.74475 20.6527L17.1927 11.2047L14.1927 8.20468L4.74075 17.6527C4.64691 17.7462 4.59404 17.8732 4.59375 18.0057ZM15.4307 6.96568L18.4308 9.96568L19.8907 8.50568C20.0782 8.31815 20.1835 8.06384 20.1835 7.79868C20.1835 7.53351 20.0782 7.2792 19.8907 7.09168L18.3058 5.50568C18.1182 5.31821 17.8639 5.21289 17.5988 5.21289C17.3336 5.21289 17.0793 5.31821 16.8917 5.50568L15.4307 6.96568Z" fill="#9747FF"/>
</svg>
