<svg width="21" height="22" viewBox="0 0 21 22" fill="none" xmlns="http://www.w3.org/2000/svg">
<path d="M2.625 15.7777V18.4377C2.625 18.6827 2.8175 18.8752 3.0625 18.8752H5.7225C5.83625 18.8752 5.95 18.8314 6.02875 18.7439L15.5837 9.19768L12.3025 5.91644L2.75625 15.4627C2.66875 15.5502 2.625 15.6552 2.625 15.7777ZM18.1212 6.66019C18.2024 6.57924 18.2667 6.48308 18.3106 6.37723C18.3545 6.27138 18.3771 6.15791 18.3771 6.04331C18.3771 5.92871 18.3545 5.81524 18.3106 5.70939C18.2667 5.60354 18.2024 5.50738 18.1212 5.42644L16.0737 3.37894C15.9928 3.29782 15.8966 3.23347 15.7908 3.18956C15.6849 3.14565 15.5715 3.12305 15.4569 3.12305C15.3423 3.12305 15.2288 3.14565 15.123 3.18956C15.0171 3.23347 14.9209 3.29782 14.84 3.37894L13.2387 4.98019L16.52 8.26144L18.1212 6.66019Z" fill="#5801A9"/>
</svg>
