<svg width="20" height="20" viewBox="0 0 20 20" fill="none" xmlns="http://www.w3.org/2000/svg">
<path d="M12.0833 15.0003C11.5 15.0003 11.0069 14.7989 10.6042 14.3962C10.2014 13.9934 10 13.5003 10 12.917C10 12.3337 10.2014 11.8406 10.6042 11.4378C11.0069 11.035 11.5 10.8337 12.0833 10.8337C12.6667 10.8337 13.1597 11.035 13.5625 11.4378C13.9653 11.8406 14.1667 12.3337 14.1667 12.917C14.1667 13.5003 13.9653 13.9934 13.5625 14.3962C13.1597 14.7989 12.6667 15.0003 12.0833 15.0003ZM4.16667 18.3337C3.70833 18.3337 3.31611 18.1706 2.99 17.8445C2.66389 17.5184 2.50056 17.1259 2.5 16.667V5.00033C2.5 4.54199 2.66333 4.14977 2.99 3.82366C3.31667 3.49755 3.70889 3.33421 4.16667 3.33366H5V1.66699H6.66667V3.33366H13.3333V1.66699H15V3.33366H15.8333C16.2917 3.33366 16.6842 3.49699 17.0108 3.82366C17.3375 4.15033 17.5006 4.54255 17.5 5.00033V16.667C17.5 17.1253 17.3369 17.5178 17.0108 17.8445C16.6847 18.1712 16.2922 18.3342 15.8333 18.3337H4.16667ZM4.16667 16.667H15.8333V8.33366H4.16667V16.667ZM4.16667 6.66699H15.8333V5.00033H4.16667V6.66699Z" fill="#2D3A4B"/>
</svg>
