<svg width="35" height="35" viewBox="0 0 35 35" fill="none" xmlns="http://www.w3.org/2000/svg">
<path d="M17.5809 18.9152L23.6893 25.0236C23.8649 25.1992 24.0807 25.2933 24.3366 25.3058C24.5925 25.3184 24.8209 25.2243 25.0216 25.0236C25.2223 24.8228 25.3227 24.6008 25.3227 24.3574C25.3227 24.114 25.2223 23.892 25.0216 23.6912L18.9132 17.5828L25.0216 11.4745C25.1972 11.2988 25.2913 11.083 25.3039 10.8271C25.3164 10.5712 25.2223 10.3429 25.0216 10.1421C24.8209 9.94141 24.5988 9.84105 24.3554 9.84105C24.1121 9.84105 23.89 9.94141 23.6893 10.1421L17.5809 16.2505L11.4725 10.1421C11.2969 9.9665 11.0811 9.87241 10.8252 9.85987C10.5692 9.84732 10.3409 9.94141 10.1402 10.1421C9.93946 10.3429 9.8391 10.5649 9.8391 10.8083C9.8391 11.0517 9.93946 11.2737 10.1402 11.4745L16.2486 17.5828L10.1402 23.6912C9.96455 23.8669 9.87046 24.0833 9.85791 24.3405C9.84537 24.5951 9.93946 24.8228 10.1402 25.0236C10.3409 25.2243 10.563 25.3246 10.8063 25.3246C11.0497 25.3246 11.2718 25.2243 11.4725 25.0236L17.5809 18.9152ZM17.5865 34.5192C15.2443 34.5192 13.0426 34.0751 10.9814 33.1869C8.92014 32.2974 7.12677 31.0905 5.60124 29.5663C4.07571 28.042 2.86821 26.2505 1.97874 24.1918C1.08927 22.1331 0.644531 19.932 0.644531 17.5885C0.644531 15.245 1.08927 13.0433 1.97874 10.9833C2.86696 8.92209 4.07195 7.12872 5.59371 5.60319C7.11548 4.07767 8.9076 2.87017 10.9701 1.98069C13.0325 1.09122 15.2343 0.646484 17.5752 0.646484C19.9162 0.646484 22.118 1.09122 24.1804 1.98069C26.2416 2.86891 28.035 4.07453 29.5605 5.59755C31.0861 7.12057 32.2936 8.91268 33.183 10.9739C34.0725 13.0351 34.5173 15.2362 34.5173 17.5772C34.5173 19.9182 34.0731 22.1199 33.1849 24.1824C32.2967 26.2449 31.0898 28.0382 29.5643 29.5625C28.0388 31.0868 26.2473 32.2943 24.1898 33.185C22.1324 34.0757 19.9313 34.5205 17.5865 34.5192Z" fill="#DC1D16" fill-opacity="0.76"/>
</svg>
