<svg width="20" height="20" viewBox="0 0 20 20" fill="none" xmlns="http://www.w3.org/2000/svg">
<path d="M13.2 17.5L16 14.7V17H17V13H13V14H15.3L12.5 16.8L13.2 17.5ZM15 20C13.6167 20 12.4377 19.5123 11.463 18.537C10.4883 17.5617 10.0007 16.3827 10 15C9.99933 13.6173 10.487 12.4383 11.463 11.463C12.439 10.4877 13.618 10 15 10C16.382 10 17.5613 10.4877 18.538 11.463C19.5147 12.4383 20.002 13.6173 20 15C19.998 16.3827 19.5103 17.562 18.537 18.538C17.5637 19.514 16.3847 20.0013 15 20ZM4 6H14V4H4V6ZM8.675 18H2C1.45 18 0.979333 17.8043 0.588 17.413C0.196667 17.0217 0.000666667 16.5507 0 16V2C0 1.45 0.196 0.979333 0.588 0.588C0.98 0.196667 1.45067 0.000666667 2 0H16C16.55 0 17.021 0.196 17.413 0.588C17.805 0.98 18.0007 1.45067 18 2V8.7C17.5167 8.46667 17.029 8.29167 16.537 8.175C16.045 8.05833 15.5327 8 15 8C14.8167 8 14.6457 8.004 14.487 8.012C14.3283 8.02 14.166 8.041 14 8.075V8H4V10H10.125C9.825 10.2833 9.55433 10.5917 9.313 10.925C9.07167 11.2583 8.859 11.6167 8.675 12H4V14H8.075C8.04167 14.1667 8.021 14.3293 8.013 14.488C8.005 14.6467 8.00067 14.8173 8 15C8 15.55 8.05 16.0627 8.15 16.538C8.25 17.0133 8.425 17.5007 8.675 18Z" fill="#2D3A4B"/>
</svg>
