<svg width="29" height="28" viewBox="0 0 29 28" fill="none" xmlns="http://www.w3.org/2000/svg">
<g clip-path="url(#clip0_390_2079)">
<path fill-rule="evenodd" clip-rule="evenodd" d="M24.9141 6.38369L25.4901 8.53269C25.5668 8.81948 25.5622 9.12197 25.4768 9.4063C25.3914 9.69063 25.2286 9.9456 25.0066 10.1427L24.9291 10.2077C24.5475 10.5054 24.2604 10.9075 24.1028 11.3651C23.9452 11.8227 23.9239 12.3163 24.0413 12.7858C24.1587 13.2554 24.4099 13.6808 24.7643 14.0104C25.1188 14.34 25.5613 14.5596 26.0381 14.6427L26.1461 14.6592C26.4482 14.6987 26.7317 14.8269 26.9609 15.0276C27.1901 15.2283 27.3546 15.4925 27.4336 15.7867L28.0201 17.9747C28.0882 18.2284 28.1056 18.493 28.0713 18.7535C28.0371 19.0139 27.9519 19.2651 27.8206 19.4926C27.6893 19.7201 27.5144 19.9195 27.3061 20.0794C27.0977 20.2394 26.8598 20.3567 26.6061 20.4247L6.3211 25.8597C5.80877 25.9968 5.26295 25.9248 4.80369 25.6596C4.34442 25.3943 4.00933 24.9575 3.8721 24.4452L3.3206 22.3867C3.23869 22.0803 3.24182 21.7574 3.32965 21.4527C3.41748 21.148 3.58669 20.873 3.8191 20.6572L3.9006 20.5872C4.27426 20.2823 4.5518 19.8759 4.69978 19.417C4.84776 18.958 4.85986 18.466 4.73462 18.0003C4.60938 17.5346 4.35216 17.1151 3.99393 16.7922C3.6357 16.4694 3.19176 16.257 2.7156 16.1807C2.38627 16.1276 2.07933 15.9804 1.83174 15.7568C1.58415 15.5333 1.40647 15.2429 1.3201 14.9207L0.766096 12.8542C0.698131 12.6004 0.68082 12.3358 0.715152 12.0754C0.749484 11.8149 0.834786 11.5638 0.966186 11.3363C1.09759 11.1089 1.27251 10.9095 1.48097 10.7497C1.68942 10.5898 1.92733 10.4726 2.1811 10.4047L22.4646 4.96969C22.7183 4.90163 22.9829 4.88422 23.2434 4.91845C23.5038 4.95268 23.755 5.03788 23.9825 5.16919C24.21 5.3005 24.4094 5.47534 24.5694 5.68372C24.7293 5.89211 24.8466 6.12996 24.9146 6.38369M22.8321 6.68719L2.7216 12.0757C2.4441 12.1502 2.2791 12.4357 2.3536 12.7132L2.7491 14.1897C3.60436 14.362 4.39452 14.7697 5.03056 15.3669C5.6666 15.9641 6.12326 16.727 6.3491 17.5697C6.57497 18.4124 6.56101 19.3015 6.3088 20.1368C6.05659 20.972 5.57614 21.7203 4.9216 22.2972L5.3171 23.7737C5.3921 24.0512 5.6771 24.2162 5.9546 24.1417L26.0646 18.7532C26.3421 18.6787 26.5071 18.3932 26.4326 18.1157L26.0376 16.6397C25.1823 16.4673 24.3921 16.0595 23.756 15.4623C23.12 14.865 22.6633 14.102 22.4376 13.2592C22.2117 12.4165 22.2255 11.5274 22.4777 10.6922C22.7298 9.85691 23.2101 9.10865 23.8646 8.53169L23.4691 7.05519C23.4515 6.98913 23.421 6.9272 23.3794 6.87294C23.3378 6.81868 23.2859 6.77316 23.2267 6.73898C23.1674 6.7048 23.1021 6.68263 23.0343 6.67374C22.9665 6.66486 22.8981 6.66942 22.8321 6.68719ZM22.1901 17.4667C22.241 17.657 22.254 17.8554 22.2283 18.0507C22.2025 18.246 22.1386 18.4343 22.0401 18.6049C21.9415 18.7755 21.8104 18.925 21.6541 19.0449C21.4978 19.1648 21.3194 19.2527 21.1291 19.3037C20.9388 19.3546 20.7404 19.3676 20.5451 19.3419C20.3498 19.3161 20.1614 19.2522 19.9909 19.1536C19.8203 19.0551 19.6708 18.924 19.5509 18.7677C19.431 18.6114 19.343 18.433 19.2921 18.2427C19.1892 17.8584 19.2432 17.449 19.4421 17.1044C19.6411 16.7599 19.9688 16.5086 20.3531 16.4057C20.7374 16.3028 21.1468 16.3568 21.4913 16.5557C21.8358 16.7547 22.0872 17.0824 22.1901 17.4667ZM21.1551 13.6027C21.2581 13.987 21.2042 14.3965 21.0052 14.741C20.8063 15.0856 20.4786 15.337 20.0943 15.4399C19.71 15.5429 19.3006 15.489 18.956 15.2901C18.6115 15.0911 18.3601 14.7635 18.2571 14.3792C18.16 13.9969 18.2174 13.5918 18.4168 13.2515C18.6162 12.9112 18.9417 12.6631 19.3226 12.561C19.7036 12.4589 20.1095 12.511 20.4524 12.706C20.7952 12.9009 21.048 13.2231 21.1551 13.6027ZM20.1191 9.73919C20.1701 9.92947 20.1831 10.1279 20.1574 10.3232C20.1317 10.5186 20.0677 10.7069 19.9692 10.8775C19.8707 11.0481 19.7396 11.1976 19.5833 11.3176C19.427 11.4375 19.2486 11.5255 19.0583 11.5764C18.8681 11.6274 18.6696 11.6404 18.4743 11.6147C18.279 11.589 18.0906 11.5251 17.92 11.4266C17.7494 11.3281 17.5999 11.1969 17.48 11.0406C17.36 10.8844 17.2721 10.706 17.2211 10.5157C17.1181 10.1314 17.172 9.72193 17.371 9.37737C17.5699 9.03282 17.8975 8.78141 18.2818 8.67844C18.6661 8.57547 19.0756 8.62938 19.4202 8.82831C19.7647 9.02724 20.0161 9.35489 20.1191 9.73919ZM14.9376 3.17319L16.2136 4.99519C16.2323 5.02219 16.2501 5.04952 16.2671 5.07719L4.0596 8.34819L12.1521 2.68169C12.5866 2.37762 13.1241 2.25859 13.6464 2.35076C14.1686 2.44293 14.6334 2.73876 14.9376 3.17319Z" fill="#9747FF"/>
</g>
<defs>
<clipPath id="clip0_390_2079">
<rect width="28" height="28" fill="white" transform="translate(0.246094)"/>
</clipPath>
</defs>
</svg>
