<svg width="44" height="44" viewBox="0 0 44 44" fill="none" xmlns="http://www.w3.org/2000/svg">
<circle cx="21.9778" cy="21.9778" r="21.9778" fill="#4A90E2" fill-opacity="0.12"/>
<path d="M30.9028 32.5386L23.5412 25.177C22.9569 25.6444 22.285 26.0144 21.5255 26.2871C20.766 26.5597 19.9577 26.696 19.1008 26.696C16.978 26.696 15.1816 25.9607 13.7116 24.4899C12.2417 23.0191 11.5063 21.2227 11.5055 19.1007C11.5047 16.9787 12.2401 15.1823 13.7116 13.7115C15.1832 12.2408 16.9796 11.5054 19.1008 11.5054C21.2221 11.5054 23.0189 12.2408 24.4912 13.7115C25.9635 15.1823 26.6985 16.9787 26.6962 19.1007C26.6962 19.9576 26.5598 20.7658 26.2872 21.5254C26.0145 22.2849 25.6445 22.9568 25.1771 23.5411L32.5387 30.9027L30.9028 32.5386ZM19.1008 24.359C20.5615 24.359 21.8032 23.848 22.826 22.8259C23.8489 21.8039 24.3599 20.5621 24.3591 19.1007C24.3584 17.6393 23.8473 16.3979 22.826 15.3767C21.8048 14.3554 20.563 13.844 19.1008 13.8424C17.6386 13.8408 16.3973 14.3523 15.3768 15.3767C14.3563 16.4011 13.8449 17.6424 13.8425 19.1007C13.8402 20.559 14.3516 21.8007 15.3768 22.8259C16.402 23.8511 17.6433 24.3621 19.1008 24.359Z" fill="white"/>
</svg>
