<svg width="22" height="22" viewBox="0 0 22 22" fill="none" xmlns="http://www.w3.org/2000/svg">
<path d="M3.3001 18.7008C2.71662 18.7008 2.15704 18.469 1.74446 18.0564C1.33188 17.6438 1.1001 17.0843 1.1001 16.5008V5.50078C1.1001 4.9173 1.33188 4.35773 1.74446 3.94515C2.15704 3.53257 2.71662 3.30078 3.3001 3.30078H4.4001C4.98357 3.30078 5.54315 3.53257 5.95573 3.94515C6.36831 4.35773 6.6001 4.9173 6.6001 5.50078V16.5008C6.6001 17.0843 6.36831 17.6438 5.95573 18.0564C5.54315 18.469 4.98357 18.7008 4.4001 18.7008H3.3001ZM9.9001 18.7008C9.31662 18.7008 8.75704 18.469 8.34446 18.0564C7.93188 17.6438 7.7001 17.0843 7.7001 16.5008V5.50078C7.7001 4.9173 7.93188 4.35773 8.34446 3.94515C8.75704 3.53257 9.31662 3.30078 9.9001 3.30078H11.0001C11.5836 3.30078 12.1432 3.53257 12.5557 3.94515C12.9683 4.35773 13.2001 4.9173 13.2001 5.50078V16.5008C13.2001 17.0843 12.9683 17.6438 12.5557 18.0564C12.1432 18.469 11.5836 18.7008 11.0001 18.7008H9.9001ZM16.5001 18.7008C15.9166 18.7008 15.357 18.469 14.9445 18.0564C14.5319 17.6438 14.3001 17.0843 14.3001 16.5008V5.50078C14.3001 4.9173 14.5319 4.35773 14.9445 3.94515C15.357 3.53257 15.9166 3.30078 16.5001 3.30078H17.6001C18.1836 3.30078 18.7432 3.53257 19.1557 3.94515C19.5683 4.35773 19.8001 4.9173 19.8001 5.50078V16.5008C19.8001 17.0843 19.5683 17.6438 19.1557 18.0564C18.7432 18.469 18.1836 18.7008 17.6001 18.7008H16.5001Z" fill="#9747FF"/>
</svg>
