<svg width="20" height="20" viewBox="0 0 20 20" fill="none" xmlns="http://www.w3.org/2000/svg">
<path d="M15.4531 2.72656L12.7266 0H10.4531L13.1797 2.72656H15.4531ZM0.910156 0H0V2.72656H3.63672L0.910156 0ZM9.54688 2.72656L6.81641 0H4.54297L7.26953 2.72656H9.54688ZM16.3633 6.36328H12.7266L15.4531 3.63672H13.1797L10.4531 6.36328H6.81641L9.54297 3.63672H7.26953L4.54297 6.36328H0.910156L3.63672 3.63672H0V18.1836C0 19.1836 0.816406 20 1.81641 20H18.1797C19.1836 20 19.9961 19.1836 19.9961 18.1836V3.63672H19.0859L16.3633 6.36328ZM7.27344 17.2734V9.08984L14.5469 13.1797L7.27344 17.2734ZM16.3633 0L19.0898 2.72656H20V0H16.3633Z" fill="#A01B9B"/>
</svg>
