<svg width="225" height="166" viewBox="0 0 225 166" fill="none" xmlns="http://www.w3.org/2000/svg">
<path opacity="0.03" d="M243.703 173.842L226.014 156.148C225.566 155.7 225.722 154.95 226.295 154.7C232.542 152.003 238.383 148.524 243.703 144.41C245.608 142.931 247.441 141.38 249.2 139.744C254.333 134.975 258.841 129.548 262.589 123.591C262.6 123.57 262.61 123.56 262.621 123.539C264.89 119.925 266.889 116.113 268.576 112.145C272.647 102.564 274.917 92.0347 274.958 80.9743C274.958 80.9743 274.958 80.9639 274.958 80.9535C274.958 80.8493 274.958 80.7452 274.958 80.641C274.958 69.591 272.741 59.0722 268.722 49.4802C267.379 46.2621 265.827 43.1481 264.089 40.1591C264.089 40.1383 264.068 40.1278 264.068 40.1174C256.249 26.6825 244.661 15.7262 230.761 8.67544C230.709 8.6442 230.647 8.61296 230.595 8.59213C219.84 3.16607 201.661 0.0833176 188.813 0C188.636 0 194.519 0 194.342 0C194.165 0 193.998 0 193.821 0H24.0194C10.7551 0 0 10.7584 0 24.0267V195.349C0 200.9 0.562223 206.326 1.63461 211.564C1.63461 211.575 1.63461 211.585 1.63461 211.606C3.63363 221.375 7.4026 230.509 12.5876 238.642C12.5876 238.663 12.6084 238.674 12.6188 238.695C21.302 252.307 33.9624 263.138 48.9551 269.543C49.0071 269.564 49.0592 269.585 49.1112 269.605C49.2258 269.657 49.3507 269.709 49.4652 269.762C57.1802 273.001 65.499 275.063 74.2134 275.75C76.327 275.917 78.451 276 80.6061 276C91.7257 276 102.314 273.75 111.945 269.678C118.744 266.804 125.074 263.023 130.779 258.482C130.79 258.482 130.8 258.472 130.811 258.462C130.915 258.378 131.029 258.295 131.133 258.201C131.165 258.18 131.196 258.149 131.227 258.128C138.609 252.161 144.918 244.922 149.812 236.737C156.746 225.145 160.858 211.679 161.191 197.275V197.244C161.202 196.619 161.212 195.994 161.212 195.369C161.212 194.744 161.212 194.12 161.191 193.495V164.698C161.191 163.459 162.691 162.834 163.565 163.709L236.571 236.737L253.656 253.827C261.538 261.711 275 256.129 275 244.985V214.126C275 208.419 272.73 202.941 268.691 198.9L243.661 173.863L243.703 173.842Z" fill="white"/>
</svg>
