<svg width="24" height="24" viewBox="0 0 24 24" fill="none" xmlns="http://www.w3.org/2000/svg">
<path fill-rule="evenodd" clip-rule="evenodd" d="M15.7875 9.10503H20.7438C21.1463 9.10503 21.5438 9.20503 21.9 9.39503C22.2563 9.58503 22.565 9.86253 22.7962 10.2013C23.0271 10.5427 23.1746 10.9335 23.2272 11.3422C23.2797 11.751 23.2357 12.1663 23.0987 12.555L20.1487 21.5563C19.7887 22.5738 19.5487 23.25 17.7938 23.25C15.2038 23.25 12.4487 22.4038 10.0975 21.68C9.5075 21.4988 8.9425 21.325 8.4125 21.175H8.26875V8.84753C10.3411 6.80274 12.1235 4.48367 13.5662 1.95503C13.8088 1.48816 14.2073 1.12105 14.6925 0.917532C15.1732 0.717081 15.7099 0.695791 16.205 0.857532C16.7 1.02003 17.125 1.35378 17.405 1.80378C17.6862 2.25378 17.805 2.78878 17.7413 3.31753L15.7875 9.10503ZM2.22125 9.50003H5.75V19.5C5.75 20.1631 5.48661 20.799 5.01777 21.2678C4.54893 21.7366 3.91304 22 3.25 22C2.58696 22 1.95107 21.7366 1.48223 21.2678C1.01339 20.799 0.75 20.1631 0.75 19.5V10.9713C0.75 10.1588 1.41 9.50003 2.22125 9.50003Z" fill="black"/>
</svg>
