<svg width="23" height="20" viewBox="0 0 23 20" fill="none" xmlns="http://www.w3.org/2000/svg">
<path d="M4.375 2.5H0.625C0.28125 2.5 0 2.78125 0 3.125V16.875C0 17.2188 0.28125 17.5 0.625 17.5H4.375C4.71875 17.5 5 17.2188 5 16.875V3.125C5 2.78125 4.71875 2.5 4.375 2.5ZM3.75 6.25H1.25V5H3.75V6.25ZM10.625 2.5H6.875C6.53125 2.5 6.25 2.78125 6.25 3.125V16.875C6.25 17.2188 6.53125 17.5 6.875 17.5H10.625C10.9688 17.5 11.25 17.2188 11.25 16.875V3.125C11.25 2.78125 10.9688 2.5 10.625 2.5ZM10 6.25H7.5V5H10V6.25Z" fill="#9747FF"/>
<path d="M14.9427 3.46687L11.594 5.15437C11.446 5.22885 11.3337 5.35904 11.2816 5.51631C11.2296 5.67358 11.2421 5.84508 11.3165 5.99312L16.9415 17.1556C17.016 17.3036 17.1461 17.4159 17.3034 17.468C17.4607 17.52 17.6322 17.5075 17.7802 17.4331L21.129 15.7456C21.2769 15.6711 21.3893 15.5409 21.4413 15.3837C21.4934 15.2264 21.4808 15.0549 21.4065 14.9069L15.7815 3.74437C15.707 3.5964 15.5768 3.48406 15.4195 3.43202C15.2623 3.37999 15.0908 3.39252 14.9427 3.46687Z" fill="#9747FF"/>
<path d="M18.125 16.875C18.125 17.0408 18.0592 17.1997 17.9419 17.3169C17.8247 17.4342 17.6658 17.5 17.5 17.5C17.3342 17.5 17.1753 17.4342 17.0581 17.3169C16.9408 17.1997 16.875 17.0408 16.875 16.875C16.875 16.7092 16.9408 16.5503 17.0581 16.4331C17.1753 16.3158 17.3342 16.25 17.5 16.25C17.6658 16.25 17.8247 16.3158 17.9419 16.4331C18.0592 16.5503 18.125 16.7092 18.125 16.875Z" fill="#9747FF"/>
</svg>
