<svg width="22" height="22" viewBox="0 0 22 22" fill="none" xmlns="http://www.w3.org/2000/svg">
<path d="M7.0675 16.2342L14.6667 8.63506L14.6667 13.7501C14.6667 13.9932 14.7632 14.2263 14.9352 14.3982C15.1071 14.5702 15.3402 14.6667 15.5833 14.6667C15.8264 14.6667 16.0596 14.5702 16.2315 14.3982C16.4034 14.2263 16.5 13.9932 16.5 13.7501L16.5 6.46257C16.5 6.21945 16.4034 5.98629 16.2315 5.81438C16.0596 5.64248 15.8264 5.5459 15.5833 5.5459L8.25 5.5459C8.00689 5.5459 7.77373 5.64247 7.60182 5.81438C7.42991 5.98629 7.33333 6.21945 7.33333 6.46256L7.33333 6.41673C7.33333 6.65985 7.42991 6.893 7.60182 7.06491C7.77373 7.23682 8.00689 7.3334 8.25 7.3334L13.3375 7.3334L5.76583 14.9051C5.67992 14.9903 5.61172 15.0917 5.56518 15.2034C5.51864 15.3151 5.49468 15.4349 5.49468 15.5559C5.49468 15.6769 5.51864 15.7967 5.56518 15.9084C5.61172 16.0201 5.67992 16.1215 5.76583 16.2067C5.84922 16.2945 5.94916 16.3648 6.05988 16.4137C6.1706 16.4627 6.28992 16.4892 6.41094 16.4917C6.53196 16.4943 6.65228 16.4728 6.76497 16.4286C6.87766 16.3844 6.98048 16.3184 7.0675 16.2342Z" fill="white"/>
</svg>
