<svg width="170" height="149" viewBox="0 0 170 149" fill="none" xmlns="http://www.w3.org/2000/svg">
<path d="M93.4937 9.19197C93.4937 9.19197 79.4319 40.7531 42.2449 33.523C5.05804 26.2929 -17.347 77.1595 17.8101 95.7066C52.9671 114.254 28.6024 135.56 52.0497 146.443C78.6994 158.812 88.637 117.451 108.27 121.293C151.601 129.771 178.404 115.231 166.552 95.6632C145.748 61.3151 130.642 62.5796 136.781 40.3985C142.92 18.2173 108.252 -15.8345 93.4937 9.19197Z" fill="#DEE9FF"/>
<path d="M86.7063 81.2252C83.4388 87.4872 82.6144 90.8152 72.7029 97.0288C72.626 97.079 72.5682 97.1538 72.5392 97.241C70.9558 102.15 68.2753 106.634 64.7011 110.353C64.653 110.403 64.6191 110.464 64.6031 110.532C64.5871 110.599 64.5895 110.669 64.6102 110.735C65.7195 114.427 66.9202 121.083 63.5796 126.539C58.6694 134.571 55.0326 129.721 55.79 127.903C56.4385 126.345 61.9793 122.998 60.7002 114.639C60.6894 114.572 60.6616 114.509 60.6195 114.456C60.5773 114.403 60.5222 114.362 60.4595 114.336C60.3968 114.311 60.3285 114.302 60.2613 114.31C60.1941 114.318 60.1302 114.344 60.0757 114.384C56.0597 117.299 51.4502 119.293 46.5757 120.222C46.5216 120.231 46.4699 120.252 46.4242 120.282C46.3785 120.312 46.3398 120.352 46.3106 120.398C46.2813 120.445 46.2623 120.497 46.2547 120.551C46.2471 120.605 46.2511 120.661 46.2665 120.713C47.5092 125.163 48.0972 132.116 42.9081 138.512C40.1378 141.846 36.4642 136.972 40.1378 133.65C42.4171 131.595 42.2413 125.685 41.1744 121.132C41.154 121.044 41.1036 120.965 41.0317 120.91C40.9598 120.855 40.8709 120.826 40.7803 120.829C40.5682 120.835 40.3498 120.835 40.1378 120.835C32.6397 120.846 25.35 118.368 19.4118 113.79C19.3574 113.748 19.293 113.72 19.2248 113.71C19.1566 113.7 19.0869 113.708 19.0227 113.733C18.9585 113.758 18.9019 113.8 18.8585 113.853C18.8151 113.907 18.7864 113.971 18.7753 114.039C17.3506 123.447 23.0068 126.702 23.8127 129.115C24.71 131.813 22.6488 134.213 20.1089 133.534C20.0538 133.518 20.0024 133.491 19.9573 133.455C11.6766 127.236 12.398 114.203 13.3073 107.928C13.3156 107.877 13.3129 107.825 13.2993 107.774C13.2857 107.724 13.2615 107.677 13.2284 107.637C8.59768 101.678 6.09067 94.3429 6.10553 86.7961C6.10553 72.9565 14.3681 61.0446 26.2315 55.7282C26.2323 55.7282 26.2331 55.7281 26.2339 55.7278C26.2346 55.7275 26.2353 55.7271 26.2358 55.7265C26.2364 55.726 26.2369 55.7253 26.2372 55.7246C26.2375 55.7238 26.2376 55.723 26.2376 55.7222C28.0622 53.4122 30.287 50.1452 30.6266 47.8537C30.6378 47.7761 30.6719 47.7036 30.7245 47.6454C30.7771 47.5873 30.8459 47.5461 30.922 47.5272C30.9981 47.5083 31.0782 47.5126 31.1519 47.5394C31.2256 47.5663 31.2896 47.6145 31.3358 47.6779C32.2087 48.8539 33.5606 51.0969 33.2636 53.4611C33.2514 53.5398 33.2454 53.6186 33.2332 53.6974C33.209 53.8309 33.1787 53.9581 33.1484 54.0915C33.118 54.1946 33.0938 54.2976 33.0575 54.4007C33.4814 54.0469 33.8859 53.6705 34.2693 53.2731C35.1603 52.3578 36.2879 50.9817 36.7729 49.5086C36.7958 49.4301 36.8426 49.3605 36.9067 49.3096C36.9707 49.2586 37.0491 49.2288 37.1308 49.2242C37.2125 49.2196 37.2937 49.2404 37.3631 49.2839C37.4325 49.3273 37.4868 49.3911 37.5184 49.4667C37.8334 50.2426 38.2034 51.3277 38.3307 52.437C38.3416 52.5365 38.3894 52.6283 38.4645 52.6945C38.5396 52.7606 38.6367 52.7963 38.7368 52.7946C39.2036 52.7765 39.6704 52.7644 40.1372 52.7644C58.9354 52.7644 74.1755 68.0043 74.1755 86.7966C74.1755 87.2271 74.1694 87.6513 74.1511 88.0756C74.1484 88.1404 74.1616 88.2048 74.1894 88.2634C74.2173 88.3219 74.259 88.3728 74.3109 88.4116C74.3629 88.4504 74.4235 88.476 74.4875 88.4861C74.5516 88.4962 74.6171 88.4906 74.6785 88.4696C76.7032 87.7604 79.2554 86.0509 80.7951 81.9833C83.6746 74.4057 83.9777 72.2841 83.0684 66.3735C82.1591 60.463 86.5544 60.7665 87.4633 62.7363C88.3722 64.7061 90.3431 74.2538 86.7063 81.2252Z" fill="#9B51E0"/>
<path d="M26.8422 89.7802C26.7263 89.7801 26.6136 89.7416 26.5219 89.6707C26.4301 89.5999 26.3644 89.5006 26.3349 89.3885C26.1064 88.3901 26.0573 87.3591 26.1899 86.3435C26.4884 84.1362 27.6896 82.5137 29.6638 81.6515C30.9538 81.0879 32.1733 81.0554 33.2881 81.5552C35.5733 82.5794 36.5461 85.4834 36.5864 85.6064C36.6255 85.7375 36.6118 85.8787 36.5484 85.9999C36.4849 86.1211 36.3767 86.2127 36.2467 86.2553C36.1167 86.2979 35.9752 86.288 35.8523 86.2278C35.7295 86.1677 35.6349 86.0619 35.5889 85.9331C35.5806 85.9079 34.7153 83.3424 32.8555 82.5117C32.0229 82.1399 31.0906 82.1742 30.0844 82.6137C28.4509 83.3277 27.4922 84.6192 27.2352 86.4529C27.1178 87.343 27.1571 88.2467 27.3513 89.1232C27.3863 89.258 27.3663 89.4011 27.2959 89.5212C27.2254 89.6413 27.1101 89.7285 26.9754 89.7637C26.9319 89.7748 26.8871 89.7803 26.8422 89.7802Z" fill="white"/>
<path d="M42.6706 84.9737C42.5606 84.9736 42.4534 84.939 42.3641 84.8747C42.2748 84.8104 42.208 84.7197 42.1731 84.6154C41.8801 83.6383 41.7641 82.6166 41.8308 81.5986C41.9857 79.3857 43.0793 77.6953 44.9936 76.7102C46.2469 76.0655 47.4634 75.9542 48.6101 76.3817C50.9516 77.2532 52.1089 80.0694 52.157 80.1887C52.2075 80.3176 52.2051 80.4611 52.1503 80.5882C52.0955 80.7152 51.9927 80.8155 51.8644 80.8672C51.7361 80.9189 51.5925 80.9179 51.4649 80.8643C51.3373 80.8107 51.2361 80.709 51.1831 80.5811C51.1726 80.5567 50.1458 78.0708 48.2399 77.3642C47.3827 77.0463 46.4524 77.1404 45.4742 77.644C43.8907 78.4588 43.0181 79.8032 42.8807 81.6404C42.8213 82.5314 42.919 83.426 43.1693 84.2832C43.1954 84.3621 43.2023 84.4461 43.1896 84.5282C43.1769 84.6104 43.145 84.6883 43.0963 84.7557C43.0477 84.8231 42.9837 84.878 42.9098 84.9159C42.8358 84.9538 42.7539 84.9736 42.6708 84.9737H42.6706Z" fill="white"/>
<path d="M41.3333 95.9565C37.76 95.9565 35.0355 93.5783 34.8991 93.4575C34.8475 93.4118 34.8055 93.3563 34.7754 93.2943C34.7453 93.2322 34.7277 93.1649 34.7236 93.0961C34.7195 93.0272 34.729 92.9583 34.7516 92.8931C34.7741 92.828 34.8093 92.7679 34.8551 92.7164C34.9009 92.6648 34.9563 92.6228 35.0184 92.5926C35.0804 92.5625 35.1477 92.5449 35.2166 92.5408C35.2854 92.5368 35.3544 92.5463 35.4195 92.5688C35.4847 92.5914 35.5447 92.6266 35.5963 92.6724C35.6321 92.7039 39.23 95.8311 43.2809 94.6236C47.3129 93.4222 48.4187 88.3026 48.4295 88.2511C48.4589 88.1161 48.5404 87.9981 48.6562 87.9228C48.7721 87.8474 48.913 87.8208 49.0483 87.8487C49.1837 87.8765 49.3026 87.9566 49.3793 88.0716C49.4559 88.1866 49.4842 88.3271 49.4579 88.4628C49.2082 89.5232 48.8173 90.5453 48.2954 91.5016C47.1427 93.6267 45.5129 95.0543 43.5809 95.6299C42.8515 95.8473 42.0944 95.9573 41.3333 95.9565V95.9565Z" fill="white"/>
<path d="M154.506 72.5894C154.461 73.7293 154.345 74.8653 154.159 75.9909C151.628 91.4738 137.032 101.969 121.549 99.4374C106.072 96.9074 95.5709 82.3101 98.1022 66.827C98.2636 65.84 98.4769 64.874 98.7291 63.9319C87.246 56.1336 87.9167 41.0958 90.1179 39.4286C92.3411 37.7404 94.7682 39.1629 94.5147 43.8328C94.2537 50.6144 98.429 56.2228 100.745 58.6656C106.166 47.8566 118.149 41.3264 130.713 43.3802C142.905 45.3732 152.001 54.8515 154.083 66.3467C156.356 65.5205 160.37 63.136 163.622 56.358C164.076 55.0072 164.201 54.0142 164.225 53.4162C164.242 52.8575 164.46 52.3236 164.84 51.9134C165.551 51.1697 166.81 50.3804 168.436 51.5923C168.806 51.8688 169.104 52.23 169.306 52.6456C169.507 53.0611 169.606 53.5189 169.594 53.9805C169.492 57.6437 166.561 66.5563 154.506 72.5894Z" fill="#4A90E2"/>
<path d="M137.613 77.6116C136.896 81.9969 130.865 84.6596 124.146 83.5614C117.422 82.4621 112.552 78.0174 113.269 73.6323C113.406 72.8156 113.725 72.0404 114.203 71.3643C114.333 71.1812 114.529 71.0553 114.75 71.0123C114.971 70.9693 115.199 71.0126 115.389 71.1333C117.796 72.6403 121.606 73.9693 126.002 74.6879C130.048 75.3494 133.792 75.3593 136.516 74.8424C136.738 74.7999 136.968 74.8443 137.158 74.9665C137.348 75.0887 137.484 75.2793 137.537 75.4989C137.701 76.1913 137.727 76.9092 137.613 77.6116Z" fill="white"/>
<path d="M124.863 68.9115C124.787 68.9116 124.712 68.8951 124.642 68.8632C124.573 68.8313 124.512 68.7847 124.462 68.7267C124.413 68.6687 124.377 68.6007 124.357 68.5273C124.336 68.4539 124.332 68.3769 124.344 68.3018C124.52 67.2238 124.261 66.1199 123.623 65.2331C122.986 64.3462 122.022 63.749 120.944 63.5728C119.866 63.3966 118.762 63.6558 117.875 64.2935C116.988 64.9311 116.391 65.895 116.215 66.973C116.193 67.1104 116.116 67.2333 116.003 67.3145C115.89 67.3958 115.75 67.4288 115.612 67.4064C115.475 67.3839 115.352 67.3078 115.271 67.1947C115.189 67.0817 115.156 66.9409 115.179 66.8035C115.4 65.4507 116.149 64.2411 117.262 63.4409C118.375 62.6407 119.761 62.3153 121.113 62.5365C122.466 62.7576 123.676 63.5071 124.476 64.6201C125.276 65.733 125.602 67.1183 125.38 68.4711C125.36 68.594 125.297 68.7057 125.203 68.7863C125.108 68.867 124.987 68.9113 124.863 68.9115V68.9115Z" fill="white"/>
<path d="M137.457 70.9698C137.381 70.9697 137.306 70.9531 137.236 70.9212C137.167 70.8892 137.106 70.8426 137.057 70.7846C137.007 70.7266 136.971 70.6586 136.951 70.5853C136.93 70.512 136.926 70.4351 136.938 70.36C137.11 69.2839 136.848 68.1836 136.211 67.3001C135.573 66.4165 134.611 65.8217 133.536 65.646C132.46 65.4702 131.359 65.7277 130.473 66.3622C129.587 66.9967 128.989 67.9565 128.809 69.0312C128.798 69.0994 128.774 69.1648 128.738 69.2236C128.701 69.2825 128.654 69.3335 128.598 69.374C128.542 69.4144 128.478 69.4434 128.411 69.4592C128.344 69.4751 128.274 69.4775 128.206 69.4663C128.138 69.4552 128.072 69.4307 128.014 69.3943C127.955 69.3578 127.904 69.3102 127.864 69.254C127.824 69.1978 127.795 69.1343 127.779 69.067C127.764 68.9997 127.761 68.93 127.773 68.8618C127.998 67.5125 128.748 66.3073 129.86 65.5104C130.972 64.7135 132.355 64.39 133.705 64.6107C135.055 64.8314 136.262 65.5783 137.063 66.6878C137.863 67.7972 138.191 69.1787 137.974 70.5294C137.954 70.6523 137.891 70.764 137.796 70.8447C137.702 70.9253 137.581 70.9697 137.457 70.9698Z" fill="white"/>
</svg>
