<svg width="34" height="34" viewBox="0 0 34 34" fill="none" xmlns="http://www.w3.org/2000/svg">
<path fill-rule="evenodd" clip-rule="evenodd" d="M31.1679 11.7481C31.1679 16.6724 27.1588 20.6646 22.2146 20.6646C21.3136 20.6646 19.2594 20.4578 18.2607 19.6276L17.0112 20.8714C16.2759 21.6038 16.4743 21.8192 16.8015 22.1733C16.9375 22.3221 17.0962 22.4935 17.2194 22.7386C17.2194 22.7386 18.2607 24.1893 17.2194 25.6413C16.5947 26.4701 14.8451 27.6303 12.8476 25.6413L12.4311 26.055C12.4311 26.055 13.6792 27.5071 12.6394 28.9592C12.0146 29.7879 10.3486 30.6167 8.89087 29.166L7.43453 30.6167C6.43437 31.6126 5.2132 31.0318 4.7287 30.6167L3.47778 29.3728C2.31187 28.2112 2.99187 26.9532 3.47778 26.4687L14.3039 15.6878C14.3039 15.6878 13.2627 14.0303 13.2627 11.7495C13.2627 6.82517 17.2719 2.83301 22.216 2.83301C27.1602 2.83301 31.1679 6.82517 31.1679 11.7481ZM22.216 14.8591C23.0424 14.8606 23.8355 14.5339 24.421 13.9508C25.0065 13.3676 25.3365 12.5759 25.3384 11.7495C25.3376 11.3402 25.2563 10.9351 25.099 10.5572C24.9416 10.1794 24.7114 9.83623 24.4215 9.54735C24.1316 9.25847 23.7876 9.02952 23.4092 8.87358C23.0307 8.71764 22.6253 8.63776 22.216 8.63851C21.8067 8.63776 21.4013 8.71764 21.0229 8.87358C20.6445 9.02952 20.3005 9.25847 20.0106 9.54735C19.7206 9.83623 19.4904 10.1794 19.3331 10.5572C19.1758 10.9351 19.0944 11.3402 19.0937 11.7495C19.0956 12.5759 19.4255 13.3676 20.0111 13.9508C20.5966 14.5339 21.3897 14.8606 22.216 14.8591Z" fill="white"/>
</svg>
