<svg width="56" height="44" viewBox="0 0 56 44" fill="none" xmlns="http://www.w3.org/2000/svg">
<path d="M28.1435 33.3055L24.0116 34.1432C23.6283 34.2213 23.0887 34.058 22.8118 33.7811L17.8351 28.8044M27.9458 33.3605L20.8046 42.8409C20.5688 43.1539 20.3183 43.0954 20.2455 42.7104L17.6374 28.9237L27.9458 33.3605ZM28.1435 33.3055L46.5027 9.14251C46.7405 8.83013 46.673 8.75914 46.35 8.98277L17.8351 28.8044L28.1435 33.3055ZM28.1435 33.3055L43.3363 43.163C43.6664 43.376 44.0143 43.2411 44.1137 42.8613L54.9758 1.43606C55.0752 1.05624 54.8587 0.868107 54.4966 1.0172L1.26503 22.9225C0.902957 23.0716 0.913605 23.2917 1.28633 23.4124L17.8351 28.8044L28.1435 33.3055Z" stroke="#A666E3" stroke-width="1.42395"/>
</svg>
