<svg width="183" height="11" viewBox="0 0 183 11" fill="none" xmlns="http://www.w3.org/2000/svg">
<path d="M139.085 1.25077C139.777 1.59903 140.451 1.93485 141.2 2.30799C141.705 2.10899 142.248 1.99706 142.51 1.76074C144.101 0.355252 146.31 0.106475 148.538 0.591554C150.897 1.10151 153.143 0.827893 155.483 0.827893C158.272 0.827893 161.117 0.579134 163.925 1.32541C165.965 1.87268 168.362 2.15875 169.897 0.579134C171.076 0.865206 172.087 1.35027 173.098 1.31296C174.52 1.27565 174.82 2.19607 175.849 2.35776C176.879 2.51945 177.946 2.60652 179.631 2.79309C178.788 2.19607 178.414 1.92243 178.021 1.63636C179.93 1.3876 181.222 2.25824 183 2.74332C182.532 3.00451 182.307 3.25328 182.027 3.27816C180.155 3.43985 178.358 3.7508 176.766 4.45976C175.868 4.85777 174.895 4.88264 173.902 4.6712C172.442 4.36025 171.038 4.45976 169.503 4.58414C167.07 4.78314 164.58 4.68365 162.109 4.65878C160.893 4.64634 159.676 4.49708 158.497 4.41002C158.384 4.22345 158.328 4.07418 158.234 3.92492C157.879 3.4274 157.28 3.2906 156.962 3.62642C156.643 3.96225 156.437 4.34783 156.138 4.78315C153.461 4.82047 150.859 4.85776 148.257 4.88263C146.76 4.89507 145.262 4.84532 143.783 4.94482C142.304 5.04433 141.088 4.77072 140.039 4.09907C140.339 4.13638 140.638 4.17368 140.938 4.211C140.938 4.19856 140.938 4.19857 140.938 4.18613C140.638 4.14881 140.339 4.12393 140.058 4.08662C140.021 4.50951 139.497 4.7334 139.047 4.59659C137.568 4.1737 136.165 4.39758 134.704 4.59659C132.889 4.83291 131.017 4.98214 129.164 5.04433C125.438 5.19359 121.713 5.25579 117.969 5.36773C117.015 5.39261 116.247 5.19359 115.817 4.39757C114.488 5.19359 113.046 5.31798 111.53 5.24335C108.797 5.0941 106.064 5.09408 103.368 5.72842C103.032 5.39259 102.751 5.13141 102.414 4.80802C101.459 5.00703 100.448 5.2931 99.4187 5.3926C98.4453 5.4921 97.3783 5.25578 96.4611 5.41747C92.8109 6.08912 89.0296 5.6911 85.3419 6.12643C84.7429 6.20105 84.1064 6.11399 83.4887 6.06424C82.3655 5.96473 81.3173 6.10157 80.1941 6.23838C77.7606 6.54933 75.271 6.63638 72.8 6.81051C71.0779 6.92245 69.3369 7.02195 67.6148 7.12146C67.3714 7.1339 67.1094 7.20852 66.8847 7.18365C61.6621 6.67369 56.5517 7.94238 51.3291 7.64387C46.3685 8.46478 41.1833 7.84288 36.2227 8.63891C35.9793 8.67622 35.7173 8.6762 35.4739 8.6762C33.2276 8.58913 31.0749 8.85035 28.866 9.0991C20.2926 10.0568 11.6256 10.4921 2.93993 10.6041C2.56555 10.6041 2.19116 10.6538 1.83549 10.6041C0.787218 10.4797 -0.148734 9.67125 0.0197391 8.97472C0.22565 8.0792 0.506425 7.19609 0.731055 6.37518C1.04928 6.21349 1.23648 6.0518 1.44239 6.03937C4.6621 5.81548 7.91924 5.31796 11.0828 5.50453C14.003 5.67866 16.736 5.41748 19.5251 5.11897C20.2552 5.04434 21.0039 5.10652 21.7527 5.0692C22.7261 5.03189 23.7557 5.0692 24.6729 4.88263C28.2296 4.12392 31.5054 4.54682 34.9123 5.79061C36.934 4.6712 39.2365 3.68861 42.2316 4.64633C42.9429 4.14881 43.5981 3.68859 44.3843 3.14133C44.9833 3.31546 45.5448 3.45229 46.0503 3.62642C47.4542 4.12394 48.6897 3.97468 49.7379 3.1911L49.7005 3.17865C50.9734 3.43984 52.2463 3.68861 53.5754 3.96224C53.8187 3.52691 54.0246 3.15378 54.3241 2.63139C55.3162 2.71846 56.402 2.74334 57.4128 2.91747C58.5921 3.11647 59.5842 3.11646 60.3704 2.4075C60.3704 2.39506 60.6887 2.53187 60.8572 2.61894C60.8946 2.70601 60.932 2.79307 60.9695 2.8677C61.0069 2.92989 61.0443 2.99208 61.0818 3.05427C61.0069 2.89257 60.932 2.74331 60.8572 2.58162C62.3173 2.89257 63.5153 2.59408 64.3202 1.79806C65.7803 2.03438 65.5369 2.88014 66.0236 3.40253C66.6975 4.12393 67.5586 4.43489 68.9813 4.18613C68.532 3.93737 68.1389 3.77568 67.8581 3.53936C67.4276 3.16623 67.6148 2.5692 68.1763 2.50701C69.6364 2.33288 71.0965 2.20851 72.5754 2.109C73.7921 2.02194 75.1961 2.23336 76.2256 1.89753C77.7606 1.38758 79.1458 1.47467 80.4936 1.86025C81.7103 2.20851 82.8522 2.24582 84.1064 2.109C85.0798 2.0095 86.1094 2.00948 87.0827 2.12142C88.4867 2.27068 89.7596 2.28313 91.0513 1.79806C91.6503 1.58661 92.4926 1.67366 93.2227 1.62391C93.8217 1.57416 94.4956 1.59904 95.0384 1.44979C96.5734 1.01446 98.202 1.10153 99.7557 0.890082C103.088 0.429879 106.045 1.10151 109.115 1.64878C109.92 1.78559 111.006 1.89755 111.624 1.66123C112.709 1.23834 113.776 1.61148 114.806 1.3876C115.723 1.18859 116.715 1.15128 117.614 1.05178C118.288 1.57417 118.831 2.12142 119.561 2.49456C119.954 2.69357 120.852 2.71846 121.245 2.54433C121.545 2.40751 121.414 1.83537 121.489 1.42492C123.847 1.00203 125.607 2.41994 127.778 2.65626C128.097 2.05924 127.479 2.03435 127.123 1.83535C126.88 1.69853 126.711 1.4871 126.543 1.32541C126.674 1.20103 126.73 1.10153 126.805 1.07665C127.947 0.678638 128.958 1.23834 130.043 1.26322C131.11 1.2881 132.234 0.877638 133.263 0.977141C134.761 1.1264 136.127 1.27565 137.587 0.852762C137.943 0.753259 138.654 1.16371 139.216 1.35028L139.085 1.25077ZM99.9241 3.67616C100.729 3.35278 101.553 3.04184 102.339 2.69358C102.47 2.63139 102.47 2.43236 102.582 2.20848C101.908 1.93485 101.328 1.44977 100.336 2.02191C100.224 2.53187 100.093 3.07915 99.9616 3.62642C99.868 3.63886 99.7557 3.67616 99.6621 3.67616C99.5872 3.66372 99.531 3.60155 99.4562 3.56423C99.6246 3.58911 99.7744 3.62641 99.9241 3.67616ZM145.337 2.07168C147.677 3.58911 147.902 3.70106 150.11 4.22345C150.298 4.2732 150.616 4.06174 151.234 3.86273C150.167 3.65129 149.418 3.58912 148.837 3.35279C148.238 3.0916 147.845 2.63138 147.284 2.30799C146.741 1.98461 146.123 1.64879 145.337 2.07168ZM88.1685 3.57665C85.398 2.79306 85.3419 2.79306 82.4591 3.57665C83.7695 3.57665 84.5744 3.57665 85.3606 3.57665C86.2965 3.57665 87.2325 3.57665 88.1685 3.57665ZM170.851 3.78812C172.817 3.86275 171.862 2.78064 172.48 2.44482C172.499 2.43238 172.274 2.23338 171.993 1.92243C171.581 2.58164 171.263 3.11647 170.851 3.78812ZM155.539 1.98462C155.52 2.05925 155.483 2.14631 155.464 2.22093C156.007 2.33287 156.531 2.45725 157.093 2.55675C157.13 2.56919 157.28 2.44482 157.299 2.38263C157.317 2.32044 157.28 2.17119 157.224 2.17119C156.662 2.09657 156.101 2.04681 155.539 1.98462ZM74.2414 3.29061C73.9232 3.68862 73.6049 3.90004 73.6611 4.0493C73.7547 4.24831 74.0916 4.49707 74.3724 4.52195C74.5783 4.54682 75.0838 4.22345 75.0463 4.09907C74.9902 3.86275 74.6532 3.66374 74.2414 3.29061ZM146.03 1.18858C146.778 1.30052 147.115 1.38758 147.452 1.40002C147.621 1.41246 147.808 1.2881 147.995 1.23835C147.789 1.17616 147.602 1.05178 147.396 1.05178C147.078 1.02691 146.76 1.10151 146.03 1.18858ZM134.704 2.59407C134.798 2.55676 134.892 2.51944 134.985 2.46969C134.854 2.35775 134.742 2.24581 134.611 2.15874C134.592 2.14631 134.424 2.23336 134.33 2.27067C134.461 2.38261 134.592 2.49457 134.704 2.59407ZM167.613 3.32789C167.501 3.34033 167.388 3.34036 167.276 3.35279C167.332 3.46474 167.388 3.56422 167.444 3.67616C167.538 3.62641 167.669 3.58912 167.688 3.53936C167.744 3.47717 167.65 3.40252 167.613 3.32789ZM26.133 7.23342L26.1517 7.08417L25.8897 7.14636L26.133 7.23342Z" fill="#F6A61C"/>
</svg>
