<svg width="33" height="33" viewBox="0 0 33 33" fill="none" xmlns="http://www.w3.org/2000/svg">
<path d="M16.5 15.8115C15.5883 15.8115 14.714 15.4494 14.0693 14.8047C13.4247 14.16 13.0625 13.2857 13.0625 12.374C13.0625 11.4623 13.4247 10.588 14.0693 9.94334C14.714 9.29869 15.5883 8.93652 16.5 8.93652C17.4117 8.93652 18.286 9.29869 18.9307 9.94334C19.5753 10.588 19.9375 11.4623 19.9375 12.374C19.9375 12.8254 19.8486 13.2724 19.6758 13.6895C19.5031 14.1066 19.2499 14.4855 18.9307 14.8047C18.6115 15.1239 18.2325 15.3771 17.8155 15.5499C17.3984 15.7226 16.9514 15.8115 16.5 15.8115ZM16.5 2.74902C13.9473 2.74902 11.4991 3.76308 9.6941 5.56812C7.88906 7.37316 6.875 9.82132 6.875 12.374C6.875 19.5928 16.5 30.249 16.5 30.249C16.5 30.249 26.125 19.5928 26.125 12.374C26.125 9.82132 25.1109 7.37316 23.3059 5.56812C21.5009 3.76308 19.0527 2.74902 16.5 2.74902Z" fill="white"/>
</svg>
