<svg width="719" height="193" viewBox="0 0 719 193" fill="none" xmlns="http://www.w3.org/2000/svg">
<path d="M33.8738 155H3.73858L42.8804 38.9907H80.2096L119.351 155H89.2161L61.9698 68.2196H61.0635L33.8738 155ZM29.852 109.344H92.8414V130.643H29.852V109.344ZM175.501 67.993V88.3853H120.612V67.993H175.501ZM132.111 47.1476H159.81V127.64C159.81 129.34 160.075 130.718 160.603 131.775C161.17 132.795 161.982 133.531 163.039 133.985C164.096 134.4 165.361 134.608 166.834 134.608C167.892 134.608 169.006 134.513 170.176 134.325C171.385 134.098 172.291 133.909 172.895 133.758L177.087 153.754C175.765 154.131 173.896 154.603 171.479 155.17C169.1 155.736 166.249 156.095 162.926 156.246C156.43 156.548 150.86 155.793 146.215 153.98C141.608 152.13 138.077 149.26 135.623 145.37C133.206 141.481 132.035 136.59 132.111 130.699V47.1476ZM238.745 67.993V88.3853H183.856V67.993H238.745ZM195.355 47.1476H223.054V127.64C223.054 129.34 223.319 130.718 223.848 131.775C224.414 132.795 225.226 133.531 226.283 133.985C227.341 134.4 228.606 134.608 230.078 134.608C231.136 134.608 232.25 134.513 233.421 134.325C234.629 134.098 235.535 133.909 236.14 133.758L240.331 153.754C239.01 154.131 237.14 154.603 234.723 155.17C232.344 155.736 229.493 156.095 226.17 156.246C219.675 156.548 214.105 155.793 209.46 153.98C204.853 152.13 201.322 149.26 198.867 145.37C196.45 141.481 195.279 136.59 195.355 130.699V47.1476ZM292.615 156.643C283.514 156.643 275.659 154.849 269.05 151.261C262.48 147.636 257.419 142.481 253.869 135.797C250.357 129.075 248.601 121.088 248.601 111.836C248.601 102.849 250.376 94.9939 253.926 88.272C257.476 81.5123 262.48 76.2632 268.937 72.5246C275.395 68.7483 283.004 66.8601 291.765 66.8601C297.958 66.8601 303.623 67.8231 308.759 69.749C313.894 71.675 318.332 74.5261 322.07 78.3025C325.809 82.0788 328.717 86.7426 330.794 92.2938C332.871 97.8073 333.909 104.133 333.909 111.27V118.181H258.288V102.093H308.136C308.098 99.1479 307.399 96.5233 306.04 94.2197C304.68 91.9162 302.811 90.1224 300.432 88.8384C298.09 87.5167 295.39 86.8559 292.332 86.8559C289.235 86.8559 286.459 87.5545 284.005 88.9517C281.55 90.3112 279.605 92.1805 278.17 94.5596C276.735 96.9009 275.98 99.5633 275.904 102.547V118.917C275.904 122.467 276.603 125.582 278 128.263C279.398 130.907 281.38 132.965 283.948 134.438C286.516 135.911 289.575 136.647 293.125 136.647C295.579 136.647 297.807 136.307 299.809 135.627C301.81 134.948 303.528 133.947 304.963 132.625C306.398 131.303 307.475 129.68 308.192 127.754L333.626 128.49C332.568 134.192 330.246 139.158 326.658 143.388C323.109 147.579 318.445 150.846 312.667 153.187C306.889 155.491 300.205 156.643 292.615 156.643ZM375.756 105.379V155H348.056V67.993H374.396V83.967H375.359C377.285 78.6423 380.571 74.4695 385.215 71.4484C389.86 68.3895 395.393 66.8601 401.812 66.8601C407.93 66.8601 413.236 68.2385 417.73 70.9952C422.261 73.7142 425.773 77.5283 428.266 82.4375C430.796 87.309 432.042 93.0113 432.004 99.5444V155H404.305V104.982C404.343 100.149 403.115 96.3723 400.623 93.6533C398.168 90.9343 394.751 89.5748 390.37 89.5748C387.462 89.5748 384.894 90.2168 382.666 91.5008C380.476 92.747 378.777 94.5407 377.568 96.8821C376.398 99.2234 375.793 102.056 375.756 105.379Z" fill="#2D3A4B"/>
<path d="M525.115 94.5596L499.681 95.2394C499.417 93.4267 498.699 91.8218 497.529 90.4245C496.358 88.9895 494.829 87.8755 492.94 87.0825C491.09 86.2517 488.937 85.8363 486.483 85.8363C483.273 85.8363 480.535 86.4782 478.269 87.7622C476.041 89.0461 474.946 90.7833 474.984 92.9735C474.946 94.6729 475.626 96.1457 477.023 97.3919C478.458 98.6381 481.007 99.6388 484.67 100.394L501.437 103.566C510.123 105.228 516.58 107.985 520.81 111.836C525.077 115.688 527.23 120.786 527.267 127.131C527.23 133.097 525.455 138.29 521.943 142.708C518.468 147.126 513.71 150.563 507.668 153.017C501.626 155.434 494.715 156.643 486.936 156.643C474.512 156.643 464.712 154.094 457.537 148.996C450.4 143.86 446.321 136.987 445.302 128.377L472.661 127.697C473.266 130.869 474.833 133.286 477.363 134.948C479.893 136.609 483.122 137.44 487.049 137.44C490.599 137.44 493.488 136.779 495.716 135.457C497.944 134.136 499.077 132.38 499.115 130.189C499.077 128.226 498.208 126.659 496.509 125.488C494.81 124.279 492.147 123.335 488.522 122.656L473.341 119.767C464.618 118.181 458.122 115.254 453.855 110.987C449.588 106.682 447.473 101.206 447.511 94.5596C447.473 88.744 449.021 83.7782 452.156 79.6619C455.29 75.508 459.746 72.3358 465.524 70.1455C471.302 67.9553 478.118 66.8601 485.973 66.8601C497.755 66.8601 507.045 69.3336 513.842 74.2806C520.64 79.1899 524.397 85.9495 525.115 94.5596ZM557.842 187.628C554.518 187.628 551.384 187.363 548.438 186.835C545.493 186.344 542.963 185.683 540.848 184.852L546.966 164.743C549.685 165.649 552.139 166.178 554.33 166.329C556.558 166.48 558.465 166.121 560.051 165.253C561.675 164.422 562.921 162.93 563.789 160.778L564.866 158.172L533.937 67.993H562.94L578.97 130.076H579.877L596.134 67.993H625.306L592.508 163.327C590.922 168.085 588.675 172.277 585.768 175.902C582.898 179.565 579.178 182.435 574.609 184.512C570.077 186.589 564.488 187.628 557.842 187.628ZM711.888 94.5596L686.454 95.2394C686.19 93.4267 685.473 91.8218 684.302 90.4245C683.131 88.9895 681.602 87.8755 679.714 87.0825C677.863 86.2517 675.711 85.8363 673.256 85.8363C670.046 85.8363 667.308 86.4782 665.043 87.7622C662.814 89.0461 661.719 90.7833 661.757 92.9735C661.719 94.6729 662.399 96.1457 663.796 97.3919C665.231 98.6381 667.78 99.6388 671.443 100.394L688.21 103.566C696.896 105.228 703.354 107.985 707.583 111.836C711.85 115.688 714.003 120.786 714.041 127.131C714.003 133.097 712.228 138.29 708.716 142.708C705.242 147.126 700.484 150.563 694.441 153.017C688.399 155.434 681.489 156.643 673.709 156.643C661.285 156.643 651.485 154.094 644.31 148.996C637.173 143.86 633.095 136.987 632.075 128.377L659.435 127.697C660.039 130.869 661.606 133.286 664.136 134.948C666.666 136.609 669.895 137.44 673.823 137.44C677.372 137.44 680.261 136.779 682.489 135.457C684.717 134.136 685.85 132.38 685.888 130.189C685.85 128.226 684.982 126.659 683.282 125.488C681.583 124.279 678.921 123.335 675.295 122.656L660.114 119.767C651.391 118.181 644.896 115.254 640.628 110.987C636.361 106.682 634.246 101.206 634.284 94.5596C634.246 88.744 635.795 83.7782 638.929 79.6619C642.063 75.508 646.52 72.3358 652.297 70.1455C658.075 67.9553 664.891 66.8601 672.746 66.8601C684.528 66.8601 693.818 69.3336 700.616 74.2806C707.413 79.1899 711.171 85.9495 711.888 94.5596Z" fill="#9B51E0"/>
<rect x="42.0879" y="4.12109" width="36.8268" height="26.3049" fill="#9B51E0"/>
</svg>
