<svg width="14" height="14" viewBox="0 0 14 14" fill="none" xmlns="http://www.w3.org/2000/svg">
<path d="M7.20138 2.17028L6.96588 1.95936C6.25995 1.32711 5.33876 0.989095 4.39144 1.01471C3.44412 1.04032 2.54255 1.42762 1.87181 2.09709C1.20108 2.76655 0.812081 3.6674 0.784679 4.61467C0.75737 5.55871 1.09127 6.47748 1.71803 7.18365L7.20019 12.6749L12.6836 7.18368C13.3096 6.47789 13.6432 5.55993 13.6161 4.61667C13.589 3.67018 13.2009 2.76992 12.5313 2.10041L7.20138 2.17028ZM7.20138 2.17028L7.43701 1.95949M7.20138 2.17028L7.43701 1.95949M7.43701 1.95949C8.14335 1.32759 9.06482 0.990091 10.0122 1.0163M7.43701 1.95949L10.0122 1.0163M10.0122 1.0163C10.9596 1.04251 11.8609 1.43041 12.5313 2.10037L10.0122 1.0163Z" stroke="black" stroke-width="0.70639"/>
</svg>
