<svg width="28" height="28" viewBox="0 0 28 28" fill="none" xmlns="http://www.w3.org/2000/svg">
<path d="M14.0003 25.666C15.2836 25.666 16.3336 24.616 16.3336 23.3327H11.667C11.667 23.9515 11.9128 24.545 12.3504 24.9826C12.788 25.4202 13.3815 25.666 14.0003 25.666ZM21.0003 18.666V12.8327C21.0003 9.25102 19.087 6.25268 15.7503 5.45935V4.66602C15.7503 3.69768 14.9686 2.91602 14.0003 2.91602C13.032 2.91602 12.2503 3.69768 12.2503 4.66602V5.45935C8.90197 6.25268 7.0003 9.23935 7.0003 12.8327V18.666L5.4953 20.171C4.7603 20.906 5.27364 22.166 6.31197 22.166H21.677C22.7153 22.166 23.2403 20.906 22.5053 20.171L21.0003 18.666Z" fill="#9747FF"/>
</svg>
