<svg width="188" height="127" viewBox="0 0 188 127" fill="none" xmlns="http://www.w3.org/2000/svg">
<rect y="0.205078" width="188" height="126" rx="10" fill="#C4C4C4"/>
<path d="M64.7371 58.2909V70H63.1134L57.1617 61.4126H57.0531V70H55.2864V58.2909H56.9216L62.879 66.8898H62.9876V58.2909H64.7371ZM70.8761 70.1772C70.0528 70.1772 69.3344 69.9886 68.7207 69.6112C68.107 69.2339 67.6306 68.706 67.2914 68.0275C66.9521 67.3491 66.7825 66.5563 66.7825 65.6491C66.7825 64.7382 66.9521 63.9415 67.2914 63.2593C67.6306 62.577 68.107 62.0472 68.7207 61.6699C69.3344 61.2925 70.0528 61.1038 70.8761 61.1038C71.6994 61.1038 72.4179 61.2925 73.0316 61.6699C73.6452 62.0472 74.1217 62.577 74.4609 63.2593C74.8001 63.9415 74.9697 64.7382 74.9697 65.6491C74.9697 66.5563 74.8001 67.3491 74.4609 68.0275C74.1217 68.706 73.6452 69.2339 73.0316 69.6112C72.4179 69.9886 71.6994 70.1772 70.8761 70.1772ZM70.8818 68.7422C71.4155 68.7422 71.8576 68.6012 72.2083 68.3191C72.5589 68.0371 72.8181 67.6616 72.9858 67.1928C73.1573 66.724 73.2431 66.2075 73.2431 65.6434C73.2431 65.0831 73.1573 64.5685 72.9858 64.0997C72.8181 63.6271 72.5589 63.2478 72.2083 62.962C71.8576 62.6761 71.4155 62.5332 70.8818 62.5332C70.3444 62.5332 69.8985 62.6761 69.544 62.962C69.1933 63.2478 68.9322 63.6271 68.7607 64.0997C68.593 64.5685 68.5092 65.0831 68.5092 65.6434C68.5092 66.2075 68.593 66.724 68.7607 67.1928C68.9322 67.6616 69.1933 68.0371 69.544 68.3191C69.8985 68.6012 70.3444 68.7422 70.8818 68.7422ZM88.8057 58.2909H90.578V65.9922C90.578 66.8116 90.3856 67.5377 90.0006 68.1705C89.6156 68.7994 89.0744 69.2949 88.3769 69.657C87.6794 70.0152 86.8618 70.1944 85.9241 70.1944C84.9903 70.1944 84.1746 70.0152 83.4771 69.657C82.7796 69.2949 82.2384 68.7994 81.8534 68.1705C81.4684 67.5377 81.276 66.8116 81.276 65.9922V58.2909H83.0426V65.8492C83.0426 66.379 83.1589 66.8498 83.3914 67.2614C83.6277 67.673 83.9612 67.997 84.3919 68.2333C84.8226 68.4658 85.3333 68.5821 85.9241 68.5821C86.5187 68.5821 87.0314 68.4658 87.4621 68.2333C87.8966 67.997 88.2282 67.673 88.4569 67.2614C88.6894 66.8498 88.8057 66.379 88.8057 65.8492V58.2909ZM93.0093 73.2932V61.2182H94.6788V62.6418H94.8217C94.9208 62.4588 95.0638 62.2473 95.2505 62.0072C95.4373 61.767 95.6965 61.5574 96.0281 61.3783C96.3597 61.1953 96.798 61.1038 97.3431 61.1038C98.052 61.1038 98.6847 61.283 99.2412 61.6413C99.7977 61.9995 100.234 62.516 100.55 63.1907C100.871 63.8653 101.031 64.6772 101.031 65.6262C101.031 66.5753 100.873 67.3891 100.556 68.0675C100.24 68.7422 99.8053 69.2625 99.2527 69.6284C98.7 69.9905 98.0692 70.1715 97.3602 70.1715C96.8266 70.1715 96.3902 70.0819 96.051 69.9028C95.7155 69.7237 95.4525 69.514 95.262 69.2739C95.0714 69.0338 94.9246 68.8203 94.8217 68.6336H94.7188V73.2932H93.0093ZM94.6845 65.6091C94.6845 66.2266 94.7741 66.7678 94.9532 67.2328C95.1324 67.6978 95.3916 68.0618 95.7308 68.3248C96.07 68.584 96.4855 68.7136 96.9772 68.7136C97.4879 68.7136 97.9148 68.5783 98.2578 68.3077C98.6009 68.0332 98.8601 67.6616 99.0354 67.1928C99.2145 66.724 99.3041 66.1961 99.3041 65.6091C99.3041 65.0297 99.2165 64.5095 99.0411 64.0483C98.8696 63.5871 98.6104 63.2231 98.2636 62.9562C97.9205 62.6894 97.4917 62.556 96.9772 62.556C96.4817 62.556 96.0624 62.6837 95.7194 62.9391C95.3801 63.1945 95.1228 63.5509 94.9475 64.0082C94.7722 64.4656 94.6845 64.9992 94.6845 65.6091ZM104.656 58.2909V70H102.946V58.2909H104.656ZM110.654 70.1772C109.831 70.1772 109.113 69.9886 108.499 69.6112C107.885 69.2339 107.409 68.706 107.07 68.0275C106.73 67.3491 106.561 66.5563 106.561 65.6491C106.561 64.7382 106.73 63.9415 107.07 63.2593C107.409 62.577 107.885 62.0472 108.499 61.6699C109.113 61.2925 109.831 61.1038 110.654 61.1038C111.478 61.1038 112.196 61.2925 112.81 61.6699C113.424 62.0472 113.9 62.577 114.239 63.2593C114.578 63.9415 114.748 64.7382 114.748 65.6491C114.748 66.5563 114.578 67.3491 114.239 68.0275C113.9 68.706 113.424 69.2339 112.81 69.6112C112.196 69.9886 111.478 70.1772 110.654 70.1772ZM110.66 68.7422C111.194 68.7422 111.636 68.6012 111.987 68.3191C112.337 68.0371 112.596 67.6616 112.764 67.1928C112.936 66.724 113.021 66.2075 113.021 65.6434C113.021 65.0831 112.936 64.5685 112.764 64.0997C112.596 63.6271 112.337 63.2478 111.987 62.962C111.636 62.6761 111.194 62.5332 110.66 62.5332C110.123 62.5332 109.677 62.6761 109.322 62.962C108.972 63.2478 108.711 63.6271 108.539 64.0997C108.371 64.5685 108.287 65.0831 108.287 65.6434C108.287 66.2075 108.371 66.724 108.539 67.1928C108.711 67.6616 108.972 68.0371 109.322 68.3191C109.677 68.6012 110.123 68.7422 110.66 68.7422ZM119.212 70.1944C118.655 70.1944 118.152 70.0915 117.702 69.8857C117.253 69.676 116.896 69.373 116.633 68.9766C116.374 68.5802 116.245 68.0942 116.245 67.5187C116.245 67.0232 116.34 66.6153 116.53 66.2952C116.721 65.975 116.978 65.7215 117.302 65.5348C117.626 65.348 117.988 65.207 118.389 65.1117C118.789 65.0164 119.197 64.944 119.612 64.8944C120.138 64.8334 120.565 64.7839 120.893 64.7458C121.221 64.7038 121.459 64.6371 121.607 64.5457C121.756 64.4542 121.83 64.3055 121.83 64.0997V64.0597C121.83 63.5604 121.689 63.1735 121.407 62.8991C121.129 62.6246 120.714 62.4874 120.161 62.4874C119.585 62.4874 119.132 62.6151 118.8 62.8705C118.472 63.1221 118.246 63.4022 118.12 63.7109L116.513 63.345C116.704 62.8114 116.982 62.3807 117.348 62.0529C117.718 61.7213 118.143 61.4812 118.623 61.3325C119.103 61.1801 119.608 61.1038 120.138 61.1038C120.489 61.1038 120.86 61.1458 121.253 61.2296C121.649 61.3097 122.019 61.4583 122.362 61.6756C122.709 61.8928 122.993 62.2035 123.214 62.6075C123.435 63.0077 123.546 63.528 123.546 64.1683V70H121.876V68.7994H121.808C121.697 69.0204 121.531 69.2377 121.31 69.4511C121.089 69.6646 120.805 69.8418 120.458 69.9828C120.111 70.1239 119.696 70.1944 119.212 70.1944ZM119.583 68.8222C120.056 68.8222 120.46 68.7288 120.796 68.5421C121.135 68.3553 121.392 68.1114 121.567 67.8103C121.747 67.5053 121.836 67.1795 121.836 66.8326V65.7006C121.775 65.7616 121.657 65.8187 121.482 65.8721C121.31 65.9216 121.114 65.9655 120.893 66.0036C120.672 66.0379 120.456 66.0703 120.247 66.1008C120.037 66.1275 119.862 66.1503 119.721 66.1694C119.389 66.2113 119.086 66.2818 118.812 66.3809C118.541 66.48 118.324 66.623 118.16 66.8097C118 66.9927 117.92 67.2366 117.92 67.5415C117.92 67.9646 118.076 68.2848 118.389 68.5021C118.701 68.7155 119.099 68.8222 119.583 68.8222ZM129.11 70.1715C128.401 70.1715 127.768 69.9905 127.212 69.6284C126.659 69.2625 126.225 68.7422 125.908 68.0675C125.596 67.3891 125.439 66.5753 125.439 65.6262C125.439 64.6772 125.598 63.8653 125.914 63.1907C126.234 62.516 126.672 61.9995 127.229 61.6413C127.785 61.283 128.416 61.1038 129.121 61.1038C129.666 61.1038 130.105 61.1953 130.436 61.3783C130.772 61.5574 131.031 61.767 131.214 62.0072C131.401 62.2473 131.546 62.4588 131.648 62.6418H131.751V58.2909H133.461V70H131.791V68.6336H131.648C131.546 68.8203 131.397 69.0338 131.203 69.2739C131.012 69.514 130.749 69.7237 130.414 69.9028C130.078 70.0819 129.644 70.1715 129.11 70.1715ZM129.487 68.7136C129.979 68.7136 130.394 68.584 130.734 68.3248C131.077 68.0618 131.336 67.6978 131.511 67.2328C131.69 66.7678 131.78 66.2266 131.78 65.6091C131.78 64.9992 131.692 64.4656 131.517 64.0082C131.342 63.5509 131.084 63.1945 130.745 62.9391C130.406 62.6837 129.987 62.556 129.487 62.556C128.973 62.556 128.544 62.6894 128.201 62.9562C127.858 63.2231 127.599 63.5871 127.423 64.0483C127.252 64.5095 127.166 65.0297 127.166 65.6091C127.166 66.1961 127.254 66.724 127.429 67.1928C127.604 67.6616 127.864 68.0332 128.207 68.3077C128.554 68.5783 128.98 68.7136 129.487 68.7136Z" fill="#2D3A4B"/>
</svg>
