<svg width="29" height="34" viewBox="0 0 29 34" fill="none" xmlns="http://www.w3.org/2000/svg">
<rect x="0.35" y="0.35" width="28.3" height="33.3" rx="9.65" stroke="#2D3A4B" stroke-width="0.7"/>
<path d="M13 17C13 17.3978 13.158 17.7794 13.4393 18.0607C13.7206 18.342 14.1022 18.5 14.5 18.5C14.8978 18.5 15.2794 18.342 15.5607 18.0607C15.842 17.7794 16 17.3978 16 17C16 16.6022 15.842 16.2206 15.5607 15.9393C15.2794 15.658 14.8978 15.5 14.5 15.5C14.1022 15.5 13.7206 15.658 13.4393 15.9393C13.158 16.2206 13 16.6022 13 17ZM13 12.5C13 12.8978 13.158 13.2794 13.4393 13.5607C13.7206 13.842 14.1022 14 14.5 14C14.8978 14 15.2794 13.842 15.5607 13.5607C15.842 13.2794 16 12.8978 16 12.5C16 12.1022 15.842 11.7206 15.5607 11.4393C15.2794 11.158 14.8978 11 14.5 11C14.1022 11 13.7206 11.158 13.4393 11.4393C13.158 11.7206 13 12.1022 13 12.5ZM13 21.5C13 21.8978 13.158 22.2794 13.4393 22.5607C13.7206 22.842 14.1022 23 14.5 23C14.8978 23 15.2794 22.842 15.5607 22.5607C15.842 22.2794 16 21.8978 16 21.5C16 21.1022 15.842 20.7206 15.5607 20.4393C15.2794 20.158 14.8978 20 14.5 20C14.1022 20 13.7206 20.158 13.4393 20.4393C13.158 20.7206 13 21.1022 13 21.5Z" fill="#2D3A4B"/>
</svg>
