<svg width="27" height="27" viewBox="0 0 27 27" fill="none" xmlns="http://www.w3.org/2000/svg">
<path d="M12.3372 22.5423H14.5976V20.9277C15.674 20.734 16.5997 20.3142 17.3747 19.6684C18.1497 19.0225 18.5372 18.0645 18.5372 16.7944C18.5372 15.8902 18.2788 15.0614 17.7622 14.3079C17.2455 13.5545 16.2122 12.8979 14.6622 12.3382C13.3705 11.9076 12.4771 11.5309 11.982 11.2079C11.4868 10.885 11.2393 10.4437 11.2393 9.88398C11.2393 9.32426 11.4386 8.88294 11.8373 8.56003C12.236 8.23711 12.8116 8.07565 13.5643 8.07565C14.2531 8.07565 14.7913 8.24228 15.1788 8.57553C15.5663 8.90878 15.8462 9.3234 16.0184 9.8194L18.0851 8.97982C17.8483 8.22635 17.4126 7.56975 16.7779 7.01003C16.1433 6.4503 15.438 6.13815 14.6622 6.07357V4.45898H12.4018V6.07357C11.3254 6.31037 10.4858 6.78398 9.88301 7.4944C9.28023 8.20482 8.97884 9.00135 8.97884 9.88398C8.97884 10.8958 9.27507 11.7138 9.86751 12.3382C10.46 12.9625 11.3908 13.5007 12.6601 13.9527C14.0163 14.4479 14.9584 14.8892 15.4863 15.2767C16.0141 15.6642 16.2776 16.1701 16.2768 16.7944C16.2768 17.5048 16.024 18.0271 15.5186 18.3612C15.0131 18.6953 14.4047 18.8619 13.6934 18.8611C12.9821 18.8602 12.3522 18.6398 11.8037 18.1997C11.2552 17.7597 10.8518 17.0975 10.5934 16.2132L8.46218 17.0527C8.76357 18.0861 9.23201 18.9205 9.86751 19.556C10.503 20.1915 11.3262 20.6272 12.3372 20.8632V22.5423ZM13.4997 26.4173C11.7129 26.4173 10.0337 26.078 8.46218 25.3995C6.89065 24.7209 5.52363 23.8008 4.36113 22.6392C3.19863 21.4776 2.27854 20.1105 1.60084 18.5382C0.923148 16.9658 0.583871 15.2866 0.583009 13.5007C0.582148 11.7147 0.921426 10.0355 1.60084 8.46315C2.28026 6.89076 3.20036 5.52375 4.36113 4.36211C5.52191 3.20047 6.88893 2.28037 8.46218 1.60182C10.0354 0.923262 11.7146 0.583984 13.4997 0.583984C15.2848 0.583984 16.9639 0.923262 18.5372 1.60182C20.1104 2.28037 21.4774 3.20047 22.6382 4.36211C23.799 5.52375 24.7195 6.89076 25.3998 8.46315C26.0801 10.0355 26.4189 11.7147 26.4163 13.5007C26.4138 15.2866 26.0745 16.9658 25.3985 18.5382C24.7225 20.1105 23.8024 21.4776 22.6382 22.6392C21.474 23.8008 20.107 24.7214 18.5372 25.4008C16.9674 26.0802 15.2882 26.419 13.4997 26.4173Z" fill="black"/>
</svg>
