<svg width="20" height="22" viewBox="0 0 20 22" fill="none" xmlns="http://www.w3.org/2000/svg">
<path d="M18 20H15C14.7167 20 14.4793 19.904 14.288 19.712C14.0967 19.52 14.0007 19.2827 14 19C13.9993 18.7173 14.0953 18.48 14.288 18.288C14.4807 18.096 14.718 18 15 18H18V8H4V11C4 11.2833 3.904 11.521 3.712 11.713C3.52 11.905 3.28267 12.0007 3 12C2.71734 11.9993 2.48 11.9033 2.288 11.712C2.096 11.5207 2 11.2833 2 11V4C2 3.45 2.196 2.97934 2.588 2.588C2.98 2.19667 3.45067 2.00067 4 2H5V1C5 0.71667 5.096 0.479337 5.288 0.288004C5.48 0.0966702 5.71734 0.000670115 6 3.44827e-06C6.28267 -0.000663218 6.52034 0.0953369 6.713 0.288004C6.90567 0.48067 7.00134 0.718003 7 1V2H15V1C15 0.71667 15.096 0.479337 15.288 0.288004C15.48 0.0966702 15.7173 0.000670115 16 3.44827e-06C16.2827 -0.000663218 16.5203 0.0953369 16.713 0.288004C16.9057 0.48067 17.0013 0.718003 17 1V2H18C18.55 2 19.021 2.196 19.413 2.588C19.805 2.98 20.0007 3.45067 20 4V18C20 18.55 19.8043 19.021 19.413 19.413C19.0217 19.805 18.5507 20.0007 18 20ZM8.175 18H1C0.71667 18 0.479337 17.904 0.288003 17.712C0.0966701 17.52 0.000670115 17.2827 3.44828e-06 17C-0.000663218 16.7173 0.0953368 16.48 0.288003 16.288C0.48067 16.096 0.718003 16 1 16H8.175L6.3 14.1C6.11667 13.9167 6.021 13.6877 6.013 13.413C6.005 13.1383 6.10067 12.9007 6.3 12.7C6.48334 12.5167 6.71667 12.425 7 12.425C7.28334 12.425 7.51667 12.5167 7.7 12.7L11.3 16.3C11.5 16.5 11.6 16.7333 11.6 17C11.6 17.2667 11.5 17.5 11.3 17.7L7.7 21.3C7.51667 21.4833 7.28767 21.5793 7.013 21.588C6.73834 21.5967 6.50067 21.5007 6.3 21.3C6.11667 21.1167 6.025 20.8833 6.025 20.6C6.025 20.3167 6.11667 20.0833 6.3 19.9L8.175 18Z" fill="#5801A9"/>
</svg>
