<svg width="20" height="20" viewBox="0 0 20 20" fill="none" xmlns="http://www.w3.org/2000/svg">
<path d="M9.99967 0.833008C4.93051 0.833008 0.833008 4.93051 0.833008 9.99967C0.833008 15.0688 4.93051 19.1663 9.99967 19.1663C15.0688 19.1663 19.1663 15.0688 19.1663 9.99967C19.1663 4.93051 15.0688 0.833008 9.99967 0.833008ZM13.9413 13.9413C13.8565 14.0263 13.7558 14.0937 13.6449 14.1397C13.534 14.1857 13.4151 14.2094 13.2951 14.2094C13.175 14.2094 13.0562 14.1857 12.9453 14.1397C12.8344 14.0937 12.7336 14.0263 12.6488 13.9413L9.99967 11.2922L7.35051 13.9413C7.17911 14.1127 6.94665 14.209 6.70426 14.209C6.46187 14.209 6.2294 14.1127 6.05801 13.9413C5.88661 13.7699 5.79032 13.5375 5.79032 13.2951C5.79032 13.1751 5.81396 13.0562 5.85989 12.9453C5.90582 12.8345 5.97314 12.7337 6.05801 12.6488L8.70717 9.99967L6.05801 7.35051C5.88661 7.17911 5.79032 6.94665 5.79032 6.70426C5.79032 6.46187 5.88661 6.2294 6.05801 6.05801C6.2294 5.88661 6.46187 5.79032 6.70426 5.79032C6.94665 5.79032 7.17911 5.88661 7.35051 6.05801L9.99967 8.70717L12.6488 6.05801C12.7337 5.97314 12.8345 5.90582 12.9453 5.85989C13.0562 5.81396 13.1751 5.79032 13.2951 5.79032C13.4151 5.79032 13.534 5.81396 13.6448 5.85989C13.7557 5.90582 13.8565 5.97314 13.9413 6.05801C14.0262 6.14287 14.0935 6.24363 14.1395 6.35451C14.1854 6.46539 14.209 6.58424 14.209 6.70426C14.209 6.82428 14.1854 6.94312 14.1395 7.05401C14.0935 7.16489 14.0262 7.26564 13.9413 7.35051L11.2922 9.99967L13.9413 12.6488C14.2897 12.9972 14.2897 13.5838 13.9413 13.9413Z" fill="#F76969"/>
</svg>
