<svg width="191" height="191" viewBox="0 0 191 191" fill="none" xmlns="http://www.w3.org/2000/svg">
<path d="M23.875 55.7083V39.7917C23.875 35.5703 25.5519 31.5218 28.5369 28.5369C31.5218 25.5519 35.5703 23.875 39.7917 23.875H55.7083M135.292 23.875H151.208C155.43 23.875 159.478 25.5519 162.463 28.5369C165.448 31.5218 167.125 35.5703 167.125 39.7917V55.7083M167.125 135.292V151.208C167.125 155.43 165.448 159.478 162.463 162.463C159.478 165.448 155.43 167.125 151.208 167.125H135.292M55.7083 167.125H39.7917C35.5703 167.125 31.5218 165.448 28.5369 162.463C25.5519 159.478 23.875 155.43 23.875 151.208V135.292M55.7083 95.5H135.292" stroke="#699BF7" stroke-width="3" stroke-linecap="round" stroke-linejoin="round"/>
<rect x="28" y="73" width="135.603" height="45.2821" rx="10.641" fill="#4A90E2"/>
<path d="M55.226 92.7935C55.1776 92.3642 54.9781 92.0317 54.6274 91.7959C54.2767 91.5571 53.8354 91.4377 53.3033 91.4377C52.9224 91.4377 52.5929 91.4981 52.3148 91.619C52.0367 91.7369 51.8205 91.9002 51.6664 92.1088C51.5152 92.3143 51.4396 92.5486 51.4396 92.8116C51.4396 93.0323 51.491 93.2228 51.5938 93.383C51.6996 93.5432 51.8372 93.6777 52.0064 93.7865C52.1788 93.8924 52.3632 93.9815 52.5597 94.0541C52.7562 94.1236 52.9451 94.1811 53.1265 94.2264L54.0334 94.4622C54.3296 94.5347 54.6335 94.633 54.9448 94.7569C55.2562 94.8809 55.5449 95.0441 55.8109 95.2467C56.0769 95.4492 56.2916 95.7001 56.4548 95.9994C56.6211 96.2987 56.7042 96.6569 56.7042 97.0741C56.7042 97.6001 56.5682 98.0671 56.2961 98.4753C56.0271 98.8834 55.6356 99.2053 55.1217 99.4411C54.6108 99.6769 53.9926 99.7948 53.267 99.7948C52.5718 99.7948 51.9702 99.6845 51.4623 99.4638C50.9544 99.2431 50.5569 98.9302 50.2697 98.5251C49.9825 98.117 49.8238 97.6333 49.7936 97.0741H51.1993C51.2265 97.4096 51.3353 97.6893 51.5258 97.913C51.7193 98.1336 51.9656 98.2984 52.2649 98.4072C52.5672 98.513 52.8982 98.5659 53.258 98.5659C53.654 98.5659 54.0062 98.504 54.3145 98.38C54.6259 98.2531 54.8708 98.0777 55.0491 97.854C55.2275 97.6273 55.3167 97.3628 55.3167 97.0605C55.3167 96.7854 55.2381 96.5602 55.0809 96.3848C54.9267 96.2095 54.7166 96.0644 54.4506 95.9495C54.1876 95.8346 53.8898 95.7334 53.5573 95.6457L52.4599 95.3464C51.7162 95.1439 51.1267 94.8461 50.6914 94.4531C50.2591 94.0601 50.043 93.5402 50.043 92.8932C50.043 92.3582 50.1881 91.8911 50.4783 91.4921C50.7685 91.093 51.1615 90.7832 51.6573 90.5625C52.1531 90.3388 52.7123 90.2269 53.3351 90.2269C53.9639 90.2269 54.5186 90.3373 54.9992 90.558C55.4829 90.7786 55.8638 91.0825 56.1419 91.4694C56.4201 91.8533 56.5652 92.2947 56.5773 92.7935H55.226ZM61.2036 99.7812C60.5295 99.7812 59.9491 99.6285 59.4623 99.3232C58.9787 99.0149 58.6068 98.5901 58.3469 98.049C58.0869 97.5079 57.9569 96.8882 57.9569 96.1898C57.9569 95.4825 58.0899 94.8582 58.3559 94.3171C58.6219 93.7729 58.9968 93.3482 59.4805 93.0429C59.9642 92.7376 60.534 92.5849 61.19 92.5849C61.719 92.5849 62.1906 92.6831 62.6048 92.8796C63.0189 93.0731 63.353 93.3452 63.6069 93.6959C63.8639 94.0465 64.0165 94.4561 64.0649 94.9247H62.7453C62.6728 94.5982 62.5065 94.3171 62.2465 94.0813C61.9896 93.8455 61.645 93.7276 61.2127 93.7276C60.8348 93.7276 60.5038 93.8274 60.2196 94.0269C59.9385 94.2234 59.7193 94.5045 59.5621 94.8703C59.4049 95.2331 59.3263 95.6623 59.3263 96.1581C59.3263 96.666 59.4034 97.1043 59.5576 97.4731C59.7117 97.8419 59.9294 98.1276 60.2105 98.3301C60.4947 98.5327 60.8288 98.634 61.2127 98.634C61.4696 98.634 61.7024 98.5871 61.911 98.4934C62.1226 98.3967 62.2995 98.2591 62.4415 98.0807C62.5866 97.9024 62.6879 97.6878 62.7453 97.4368H64.0649C64.0165 97.8873 63.8699 98.2893 63.625 98.643C63.3802 98.9967 63.0522 99.2748 62.6411 99.4774C62.2329 99.6799 61.7538 99.7812 61.2036 99.7812ZM67.5417 99.7948C67.1004 99.7948 66.7013 99.7132 66.3446 99.5499C65.9879 99.3837 65.7053 99.1433 65.4967 98.8289C65.2911 98.5146 65.1883 98.1291 65.1883 97.6726C65.1883 97.2796 65.2639 96.9562 65.4151 96.7022C65.5662 96.4483 65.7703 96.2473 66.0272 96.0992C66.2842 95.951 66.5714 95.8392 66.8888 95.7636C67.2062 95.688 67.5297 95.6306 67.8592 95.5913C68.2763 95.5429 68.6149 95.5036 68.8749 95.4734C69.1349 95.4401 69.3238 95.3872 69.4417 95.3147C69.5596 95.2421 69.6186 95.1242 69.6186 94.961V94.9292C69.6186 94.5332 69.5067 94.2264 69.283 94.0087C69.0623 93.7911 68.7328 93.6823 68.2945 93.6823C67.838 93.6823 67.4783 93.7835 67.2153 93.9861C66.9553 94.1856 66.7754 94.4078 66.6757 94.6526L65.4014 94.3624C65.5526 93.9392 65.7733 93.5976 66.0635 93.3376C66.3567 93.0746 66.6938 92.8842 67.0747 92.7663C67.4556 92.6454 67.8561 92.5849 68.2763 92.5849C68.5545 92.5849 68.8492 92.6182 69.1606 92.6847C69.475 92.7481 69.7682 92.866 70.0403 93.0383C70.3154 93.2107 70.5406 93.457 70.7159 93.7775C70.8913 94.0949 70.9789 94.5075 70.9789 95.0154V99.6406H69.6548V98.6884H69.6004C69.5128 98.8637 69.3813 99.036 69.2059 99.2053C69.0306 99.3746 68.8054 99.5152 68.5303 99.627C68.2552 99.7389 67.9257 99.7948 67.5417 99.7948ZM67.8365 98.7065C68.2113 98.7065 68.5318 98.6324 68.7978 98.4843C69.0669 98.3362 69.2709 98.1427 69.41 97.9039C69.5521 97.6621 69.6231 97.4036 69.6231 97.1285V96.2307C69.5747 96.279 69.481 96.3244 69.342 96.3667C69.2059 96.406 69.0502 96.4408 68.8749 96.471C68.6996 96.4982 68.5288 96.5239 68.3625 96.5481C68.1962 96.5692 68.0572 96.5874 67.9453 96.6025C67.6823 96.6357 67.442 96.6917 67.2243 96.7703C67.0097 96.8489 66.8374 96.9622 66.7074 97.1104C66.5804 97.2555 66.5169 97.4489 66.5169 97.6908C66.5169 98.0263 66.6409 98.2803 66.8888 98.4526C67.1367 98.6219 67.4526 98.7065 67.8365 98.7065ZM74.1406 95.5051V99.6406H72.7848V92.6756H74.0862V93.8092H74.1724C74.3326 93.4404 74.5835 93.1442 74.9251 92.9205C75.2697 92.6967 75.7035 92.5849 76.2265 92.5849C76.7011 92.5849 77.1168 92.6847 77.4735 92.8842C77.8302 93.0807 78.1068 93.3739 78.3033 93.7639C78.4998 94.1538 78.5981 94.636 78.5981 95.2104V99.6406H77.2422V95.3736C77.2422 94.8688 77.1107 94.4743 76.8477 94.1901C76.5847 93.9029 76.2235 93.7593 75.764 93.7593C75.4496 93.7593 75.17 93.8274 74.9251 93.9634C74.6833 94.0994 74.4913 94.2989 74.3492 94.562C74.2102 94.8219 74.1406 95.1363 74.1406 95.5051ZM87.3191 96.6297H88.6976L89.668 97.8948L90.126 98.4571L91.6722 100.475H90.2393L89.2055 99.1282L88.8518 98.6385L87.3191 96.6297ZM91.9715 94.9973C91.9715 95.9888 91.7901 96.8413 91.4274 97.5547C91.0646 98.2652 90.5673 98.8123 89.9355 99.1962C89.3067 99.5771 88.5918 99.7676 87.7907 99.7676C86.9866 99.7676 86.2686 99.5771 85.6368 99.1962C85.008 98.8123 84.5122 98.2636 84.1495 97.5502C83.7867 96.8368 83.6053 95.9858 83.6053 94.9973C83.6053 94.0057 83.7867 93.1547 84.1495 92.4443C84.5122 91.7309 85.008 91.1837 85.6368 90.8028C86.2686 90.4189 86.9866 90.2269 87.7907 90.2269C88.5918 90.2269 89.3067 90.4189 89.9355 90.8028C90.5673 91.1837 91.0646 91.7309 91.4274 92.4443C91.7901 93.1547 91.9715 94.0057 91.9715 94.9973ZM90.584 94.9973C90.584 94.2415 90.4615 93.6052 90.2167 93.0882C89.9748 92.5683 89.6423 92.1753 89.2191 91.9093C88.7989 91.6402 88.3227 91.5057 87.7907 91.5057C87.2556 91.5057 86.778 91.6402 86.3578 91.9093C85.9376 92.1753 85.605 92.5683 85.3602 93.0882C85.1183 93.6052 84.9974 94.2415 84.9974 94.9973C84.9974 95.753 85.1183 96.3909 85.3602 96.9108C85.605 97.4278 85.9376 97.8208 86.3578 98.0898C86.778 98.3558 87.2556 98.4889 87.7907 98.4889C88.3227 98.4889 88.7989 98.3558 89.2191 98.0898C89.6423 97.8208 89.9748 97.4278 90.2167 96.9108C90.4615 96.3909 90.584 95.753 90.584 94.9973ZM93.7185 99.6406V90.3539H97.0287C97.7481 90.3539 98.3452 90.4779 98.8198 90.7257C99.2974 90.9736 99.6541 91.3167 99.8899 91.7551C100.126 92.1904 100.244 92.6937 100.244 93.2651C100.244 93.8334 100.124 94.3337 99.8854 94.766C99.6496 95.1953 99.2929 95.5293 98.8153 95.7681C98.3406 96.007 97.7436 96.1264 97.0241 96.1264H94.5165V94.9202H96.8972C97.3506 94.9202 97.7194 94.8552 98.0036 94.7252C98.2908 94.5952 98.5009 94.4063 98.6339 94.1584C98.7669 93.9105 98.8334 93.6127 98.8334 93.2651C98.8334 92.9144 98.7654 92.6106 98.6293 92.3536C98.4963 92.0967 98.2862 91.9002 97.999 91.7641C97.7149 91.6251 97.3415 91.5556 96.879 91.5556H95.1196V99.6406H93.7185ZM98.3029 95.4507L100.597 99.6406H99.0012L96.7521 95.4507H98.3029ZM113.041 93.3739H111.626C111.572 93.0716 111.471 92.8056 111.323 92.5758C111.175 92.3461 110.993 92.1511 110.778 91.9909C110.564 91.8307 110.324 91.7097 110.057 91.6281C109.794 91.5465 109.515 91.5057 109.219 91.5057C108.684 91.5057 108.204 91.6402 107.781 91.9093C107.361 92.1783 107.028 92.5728 106.784 93.0928C106.542 93.6127 106.421 94.2476 106.421 94.9973C106.421 95.753 106.542 96.3909 106.784 96.9108C107.028 97.4308 107.362 97.8238 107.786 98.0898C108.209 98.3558 108.685 98.4889 109.214 98.4889C109.507 98.4889 109.785 98.4496 110.048 98.371C110.314 98.2893 110.555 98.1699 110.769 98.0127C110.984 97.8555 111.165 97.6636 111.314 97.4368C111.465 97.2071 111.569 96.9441 111.626 96.6478L113.041 96.6524C112.966 97.1088 112.819 97.529 112.601 97.913C112.387 98.2939 112.11 98.6234 111.772 98.9015C111.436 99.1766 111.052 99.3897 110.62 99.5409C110.187 99.692 109.716 99.7676 109.205 99.7676C108.401 99.7676 107.684 99.5771 107.056 99.1962C106.427 98.8123 105.931 98.2636 105.568 97.5502C105.209 96.8368 105.029 95.9858 105.029 94.9973C105.029 94.0057 105.21 93.1547 105.573 92.4443C105.936 91.7309 106.431 91.1837 107.06 90.8028C107.689 90.4189 108.404 90.2269 109.205 90.2269C109.698 90.2269 110.157 90.298 110.584 90.4401C111.013 90.5791 111.398 90.7847 111.74 91.0568C112.081 91.3258 112.364 91.6553 112.588 92.0453C112.811 92.4322 112.963 92.8751 113.041 93.3739ZM117.543 99.7812C116.89 99.7812 116.32 99.6316 115.833 99.3323C115.347 99.033 114.969 98.6143 114.7 98.0762C114.431 97.5381 114.296 96.9093 114.296 96.1898C114.296 95.4673 114.431 94.8355 114.7 94.2944C114.969 93.7533 115.347 93.3331 115.833 93.0338C116.32 92.7345 116.89 92.5849 117.543 92.5849C118.196 92.5849 118.766 92.7345 119.252 93.0338C119.739 93.3331 120.117 93.7533 120.386 94.2944C120.655 94.8355 120.79 95.4673 120.79 96.1898C120.79 96.9093 120.655 97.5381 120.386 98.0762C120.117 98.6143 119.739 99.033 119.252 99.3323C118.766 99.6316 118.196 99.7812 117.543 99.7812ZM117.547 98.643C117.971 98.643 118.321 98.5312 118.599 98.3075C118.878 98.0838 119.083 97.786 119.216 97.4142C119.352 97.0423 119.42 96.6327 119.42 96.1853C119.42 95.7409 119.352 95.3328 119.216 94.961C119.083 94.5861 118.878 94.2853 118.599 94.0586C118.321 93.8319 117.971 93.7185 117.547 93.7185C117.121 93.7185 116.767 93.8319 116.486 94.0586C116.208 94.2853 116.001 94.5861 115.865 94.961C115.732 95.3328 115.666 95.7409 115.666 96.1853C115.666 96.6327 115.732 97.0423 115.865 97.4142C116.001 97.786 116.208 98.0838 116.486 98.3075C116.767 98.5312 117.121 98.643 117.547 98.643ZM124.91 99.7767C124.348 99.7767 123.846 99.6331 123.405 99.3459C122.967 99.0557 122.622 98.643 122.371 98.108C122.123 97.5699 121.999 96.9244 121.999 96.1717C121.999 95.419 122.125 94.7751 122.376 94.24C122.629 93.7049 122.977 93.2953 123.418 93.0111C123.86 92.727 124.36 92.5849 124.919 92.5849C125.352 92.5849 125.699 92.6574 125.962 92.8026C126.228 92.9446 126.434 93.1109 126.579 93.3014C126.727 93.4918 126.842 93.6596 126.924 93.8047H127.005V90.3539H128.361V99.6406H127.037V98.5569H126.924C126.842 98.705 126.724 98.8743 126.57 99.0647C126.419 99.2552 126.21 99.4215 125.944 99.5635C125.678 99.7056 125.334 99.7767 124.91 99.7767ZM125.21 98.6204C125.6 98.6204 125.929 98.5176 126.198 98.312C126.47 98.1034 126.676 97.8147 126.815 97.4459C126.957 97.0771 127.028 96.6478 127.028 96.1581C127.028 95.6744 126.958 95.2512 126.819 94.8884C126.68 94.5257 126.476 94.243 126.207 94.0405C125.938 93.8379 125.606 93.7367 125.21 93.7367C124.802 93.7367 124.461 93.8425 124.189 94.0541C123.917 94.2657 123.712 94.5544 123.573 94.9202C123.437 95.286 123.369 95.6986 123.369 96.1581C123.369 96.6237 123.438 97.0423 123.577 97.4142C123.716 97.786 123.922 98.0807 124.194 98.2984C124.469 98.513 124.808 98.6204 125.21 98.6204ZM133.298 99.7812C132.612 99.7812 132.021 99.6346 131.525 99.3413C131.032 99.0451 130.651 98.6294 130.382 98.0944C130.116 97.5563 129.983 96.926 129.983 96.2035C129.983 95.49 130.116 94.8612 130.382 94.3171C130.651 93.7729 131.026 93.3482 131.507 93.0429C131.991 92.7376 132.556 92.5849 133.203 92.5849C133.596 92.5849 133.977 92.6499 134.346 92.7799C134.714 92.9099 135.045 93.1139 135.339 93.392C135.632 93.6702 135.863 94.0314 136.032 94.4758C136.202 94.9172 136.286 95.4537 136.286 96.0856V96.5662H130.75V95.5505H134.958C134.958 95.1938 134.885 94.8779 134.74 94.6028C134.595 94.3246 134.391 94.1055 134.128 93.9453C133.868 93.785 133.563 93.7049 133.212 93.7049C132.831 93.7049 132.499 93.7986 132.214 93.9861C131.933 94.1705 131.716 94.4123 131.561 94.7116C131.41 95.0078 131.335 95.3298 131.335 95.6774V96.471C131.335 96.9365 131.416 97.3325 131.58 97.659C131.746 97.9855 131.977 98.2349 132.273 98.4072C132.57 98.5765 132.916 98.6612 133.312 98.6612C133.569 98.6612 133.803 98.6249 134.015 98.5523C134.226 98.4768 134.409 98.3649 134.563 98.2168C134.717 98.0687 134.835 97.8858 134.917 97.6681L136.2 97.8994C136.097 98.2772 135.913 98.6083 135.647 98.8924C135.384 99.1736 135.053 99.3927 134.654 99.5499C134.258 99.7041 133.806 99.7812 133.298 99.7812Z" fill="white"/>
</svg>
