<svg width="25" height="25" viewBox="0 0 25 25" fill="none" xmlns="http://www.w3.org/2000/svg">
<path fill-rule="evenodd" clip-rule="evenodd" d="M14.9845 16.0887C13.5803 17.2107 11.7998 17.7524 10.0087 17.6026C8.21755 17.4528 6.55176 16.6229 5.35344 15.2832C4.15511 13.9436 3.51524 12.1959 3.56522 10.3992C3.61521 8.60253 4.35126 6.89316 5.62221 5.62221C6.89316 4.35126 8.60253 3.61521 10.3992 3.56522C12.1959 3.51524 13.9436 4.15511 15.2832 5.35344C16.6229 6.55176 17.4528 8.21755 17.6026 10.0087C17.7524 11.7998 17.2107 13.5803 16.0887 14.9845L21.4595 20.3543C21.5363 20.4259 21.5979 20.5121 21.6406 20.6079C21.6833 20.7038 21.7062 20.8072 21.7081 20.9121C21.7099 21.017 21.6906 21.1212 21.6513 21.2185C21.612 21.3158 21.5536 21.4042 21.4794 21.4783C21.4052 21.5525 21.3168 21.611 21.2195 21.6503C21.1223 21.6896 21.0181 21.7089 20.9132 21.707C20.8083 21.7052 20.7048 21.6822 20.609 21.6395C20.5132 21.5968 20.4269 21.5353 20.3554 21.4585L14.9845 16.0887ZM6.72934 14.4616C5.9648 13.697 5.44408 12.7229 5.233 11.6624C5.02192 10.602 5.12994 9.50271 5.54342 8.50361C5.95689 7.50451 6.65727 6.65041 7.55602 6.04924C8.45478 5.44807 9.51157 5.12682 10.5929 5.12609C11.6741 5.12537 12.7314 5.44519 13.6309 6.04515C14.5305 6.64511 15.232 7.49827 15.6468 8.49681C16.0617 9.49536 16.1712 10.5945 15.9615 11.6552C15.7518 12.716 15.2324 13.6908 14.4689 14.4564L14.4637 14.4616L14.4585 14.4658C13.4326 15.4894 12.0423 16.0639 10.5931 16.0631C9.14384 16.0623 7.75418 15.4863 6.72934 14.4616Z" fill="#555555"/>
</svg>
