<svg width="13" height="12" viewBox="0 0 13 12" fill="none" xmlns="http://www.w3.org/2000/svg">
<path d="M11.7195 0.173345L0.612787 3.87649C0.567311 3.89161 0.527513 3.92022 0.498682 3.9585C0.46985 3.99678 0.45335 4.04293 0.451373 4.09081C0.449396 4.1387 0.462036 4.18605 0.487614 4.22658C0.513192 4.2671 0.550497 4.29889 0.594571 4.31771L4.67619 6.06707C4.69758 6.07633 4.721 6.07989 4.74418 6.07741C4.76735 6.07493 4.78948 6.06649 4.80842 6.05291L8.80976 3.19375C8.9339 3.10604 9.08637 3.25851 8.99866 3.38265L6.1395 7.38399C6.12615 7.40291 6.1179 7.42496 6.11554 7.448C6.11317 7.47104 6.11678 7.4943 6.12601 7.51554L7.8747 11.5972C7.89346 11.6413 7.92519 11.6786 7.96567 11.7042C8.00616 11.7299 8.05348 11.7426 8.10136 11.7407C8.14924 11.7388 8.19541 11.7223 8.23374 11.6936C8.27206 11.6648 8.30072 11.6251 8.31592 11.5796L12.0191 0.472214C12.033 0.430582 12.0351 0.38589 12.025 0.343155C12.0149 0.300421 11.9932 0.261337 11.9621 0.230293C11.9311 0.199249 11.892 0.177475 11.8493 0.167415C11.8065 0.157355 11.7612 0.159409 11.7195 0.173345Z" fill="#333333"/>
</svg>
