<svg width="207" height="211" viewBox="0 0 207 211" fill="none" xmlns="http://www.w3.org/2000/svg">
<g filter="url(#filter0_f_284_586)">
<path d="M195.912 15.6634C195.861 15.7618 195.815 15.8602 195.772 15.9578C195.663 15.7141 195.537 15.4887 195.397 15.2804C194.893 14.529 194.225 14.0283 193.573 13.6957C193.474 13.6454 193.376 13.5989 193.278 13.5559C193.522 13.4471 193.747 13.3213 193.956 13.1815C194.707 12.6772 195.208 12.0091 195.541 11.3568C195.588 11.264 195.632 11.1713 195.673 11.0792C195.783 11.3316 195.911 11.5644 196.054 11.7788C196.559 12.5362 197.229 13.0348 197.883 13.3621C197.968 13.4044 198.053 13.444 198.137 13.481C197.907 13.5859 197.694 13.706 197.496 13.8388C196.745 14.3431 196.244 15.0112 195.912 15.6634Z" fill="#F5F8FA" stroke="#A666E3"/>
</g>
<g filter="url(#filter1_f_284_586)">
<path d="M57.2444 50.1813C57.1942 50.2798 57.1477 50.3781 57.1046 50.4757C56.9958 50.2321 56.87 50.0067 56.7302 49.7983C56.2259 49.047 55.5578 48.5463 54.9056 48.2136C54.8071 48.1634 54.7088 48.1169 54.6112 48.0738C54.8548 47.965 55.0802 47.8393 55.2886 47.6994C56.0399 47.1952 56.5406 46.527 56.8733 45.8748C56.9206 45.782 56.9647 45.6893 57.0057 45.5972C57.116 45.8495 57.2442 46.0823 57.3871 46.2967C57.8921 47.0541 58.5617 47.5528 59.2161 47.88C59.3008 47.9224 59.3855 47.962 59.4697 47.9989C59.2401 48.1039 59.0269 48.2239 58.8291 48.3567C58.0777 48.861 57.577 49.5291 57.2444 50.1813Z" fill="#F5F8FA" stroke="#A666E3"/>
</g>
<g filter="url(#filter2_f_284_586)">
<path d="M197.697 78.5456C197.647 78.644 197.6 78.7424 197.557 78.84C197.448 78.5964 197.323 78.3709 197.183 78.1626C196.679 77.4112 196.01 76.9105 195.358 76.5779C195.26 76.5277 195.161 76.4811 195.064 76.4381C195.307 76.3293 195.533 76.2035 195.741 76.0637C196.493 75.5594 196.993 74.8913 197.326 74.2391C197.373 74.1462 197.417 74.0535 197.458 73.9614C197.569 74.2138 197.697 74.4466 197.84 74.661C198.345 75.4184 199.014 75.917 199.669 76.2443C199.753 76.2867 199.838 76.3262 199.922 76.3632C199.693 76.4681 199.48 76.5882 199.282 76.721C198.53 77.2253 198.03 77.8934 197.697 78.5456Z" fill="#F5F8FA" stroke="#A666E3"/>
</g>
<g filter="url(#filter3_f_284_586)">
<path d="M30.4634 25.5784C30.4132 25.6769 30.3667 25.7752 30.3236 25.8728C30.2148 25.6292 30.089 25.4037 29.9492 25.1954C29.4449 24.4441 28.7768 23.9434 28.1246 23.6107C28.0261 23.5605 27.9278 23.514 27.8302 23.4709C28.0738 23.3621 28.2992 23.2364 28.5076 23.0965C29.2589 22.5923 29.7596 21.9241 30.0923 21.2719C30.1396 21.1791 30.1837 21.0864 30.2247 20.9943C30.335 21.2466 30.4632 21.4794 30.6061 21.6938C31.1111 22.4512 31.7807 22.9499 32.4351 23.2771C32.5198 23.3195 32.6045 23.3591 32.6887 23.396C32.4591 23.501 32.2459 23.621 32.0481 23.7538C31.2967 24.2581 30.796 24.9262 30.4634 25.5784Z" fill="#F5F8FA" stroke="#A666E3"/>
</g>
<g filter="url(#filter4_f_284_586)">
<path d="M27.4875 180.314C27.4373 180.413 27.3908 180.511 27.3478 180.609C27.2389 180.365 27.1132 180.139 26.9734 179.931C26.4691 179.18 25.801 178.679 25.1488 178.346C25.0503 178.296 24.952 178.25 24.8544 178.207C25.098 178.098 25.3234 177.972 25.5317 177.832C26.2831 177.328 26.7838 176.66 27.1165 176.008C27.1638 175.915 27.2078 175.822 27.2488 175.73C27.3592 175.982 27.4873 176.215 27.6303 176.43C28.1352 177.187 28.8049 177.686 29.4593 178.013C29.544 178.055 29.6287 178.095 29.7128 178.132C29.4833 178.237 29.27 178.357 29.0722 178.49C28.3208 178.994 27.8202 179.662 27.4875 180.314Z" fill="#F5F8FA" stroke="#A666E3"/>
</g>
<g filter="url(#filter5_f_284_586)">
<path d="M161.394 191.622C161.343 191.72 161.297 191.819 161.254 191.916C161.145 191.673 161.019 191.447 160.879 191.239C160.375 190.487 159.707 189.987 159.055 189.654C158.956 189.604 158.858 189.557 158.76 189.514C159.004 189.405 159.229 189.28 159.438 189.14C160.189 188.636 160.69 187.967 161.022 187.315C161.07 187.222 161.114 187.13 161.155 187.038C161.265 187.29 161.393 187.523 161.536 187.737C162.041 188.495 162.711 188.993 163.365 189.32C163.45 189.363 163.535 189.402 163.619 189.439C163.389 189.544 163.176 189.664 162.978 189.797C162.227 190.301 161.726 190.97 161.394 191.622Z" fill="#F5F8FA" stroke="#A666E3"/>
</g>
<g filter="url(#filter6_f_284_586)">
<path d="M28.0828 105.922C28.0326 106.02 27.986 106.119 27.943 106.216C27.8342 105.973 27.7084 105.747 27.5686 105.539C27.0643 104.788 26.3962 104.287 25.744 103.954C25.6455 103.904 25.5472 103.857 25.4496 103.814C25.6932 103.706 25.9186 103.58 26.127 103.44C26.8783 102.936 27.379 102.268 27.7117 101.615C27.759 101.523 27.8031 101.43 27.844 101.338C27.9544 101.59 28.0825 101.823 28.2255 102.037C28.7304 102.795 29.4001 103.293 30.0545 103.621C30.1392 103.663 30.2239 103.703 30.3081 103.74C30.0785 103.844 29.8653 103.965 29.6675 104.097C28.9161 104.602 28.4154 105.27 28.0828 105.922Z" fill="#F5F8FA" stroke="#A666E3"/>
</g>
<g filter="url(#filter7_f_284_586)">
<path d="M132.232 29.7443C132.182 29.8428 132.135 29.9411 132.092 30.0387C131.983 29.7951 131.858 29.5696 131.718 29.3613C131.213 28.6099 130.545 28.1093 129.893 27.7766C129.795 27.7264 129.696 27.6799 129.599 27.6368C129.842 27.528 130.068 27.4022 130.276 27.2624C131.027 26.7582 131.528 26.09 131.861 25.4378C131.908 25.345 131.952 25.2523 131.993 25.1602C132.104 25.4125 132.232 25.6453 132.375 25.8597C132.88 26.6171 133.549 27.1158 134.204 27.443C134.288 27.4854 134.373 27.525 134.457 27.5619C134.228 27.6669 134.014 27.7869 133.817 27.9197C133.065 28.424 132.565 29.0921 132.232 29.7443Z" fill="#F5F8FA" stroke="#A666E3"/>
</g>
<g filter="url(#filter8_f_284_586)">
<path d="M185.794 63.6672C185.744 63.7656 185.697 63.8639 185.654 63.9616C185.546 63.7179 185.42 63.4925 185.28 63.2842C184.776 62.5328 184.108 62.0321 183.455 61.6994C183.357 61.6492 183.259 61.6027 183.161 61.5596C183.405 61.4508 183.63 61.3251 183.838 61.1853C184.59 60.681 185.09 60.0129 185.423 59.3606C185.47 59.2678 185.514 59.1751 185.555 59.083C185.666 59.3354 185.794 59.5682 185.937 59.7826C186.442 60.5399 187.112 61.0386 187.766 61.3659C187.851 61.4082 187.935 61.4478 188.019 61.4848C187.79 61.5897 187.577 61.7098 187.379 61.8425C186.627 62.3468 186.127 63.0149 185.794 63.6672Z" fill="#F5F8FA" stroke="#A666E3"/>
</g>
<g filter="url(#filter9_f_284_586)">
<path d="M189.96 173.172C189.91 173.271 189.863 173.369 189.82 173.467C189.712 173.223 189.586 172.998 189.446 172.789C188.942 172.038 188.274 171.537 187.621 171.205C187.523 171.154 187.425 171.108 187.327 171.065C187.571 170.956 187.796 170.83 188.004 170.691C188.756 170.186 189.256 169.518 189.589 168.866C189.636 168.773 189.68 168.68 189.721 168.588C189.832 168.841 189.96 169.073 190.103 169.288C190.608 170.045 191.278 170.544 191.932 170.871C192.017 170.913 192.101 170.953 192.185 170.99C191.956 171.095 191.743 171.215 191.545 171.348C190.793 171.852 190.293 172.52 189.96 173.172Z" fill="#F5F8FA" stroke="#A666E3"/>
</g>
<g filter="url(#filter10_f_284_586)">
<path d="M67.957 196.383C67.9068 196.481 67.8603 196.58 67.8172 196.677C67.7084 196.434 67.5827 196.208 67.4428 196C66.9385 195.248 66.2704 194.748 65.6182 194.415C65.5198 194.365 65.4215 194.318 65.3238 194.275C65.5675 194.166 65.7929 194.041 66.0012 193.901C66.7526 193.397 67.2533 192.728 67.5859 192.076C67.6333 191.983 67.6773 191.891 67.7183 191.799C67.8287 192.051 67.9568 192.284 68.0998 192.498C68.6047 193.256 69.2743 193.754 69.9288 194.081C70.0135 194.124 70.0981 194.163 70.1823 194.2C69.9528 194.305 69.7395 194.425 69.5417 194.558C68.7903 195.062 68.2897 195.731 67.957 196.383Z" fill="#F5F8FA" stroke="#A666E3"/>
</g>
<g filter="url(#filter11_f_284_586)">
<path d="M72.718 8.91449C72.6678 9.01294 72.6213 9.11125 72.5782 9.20888C72.4694 8.96525 72.3437 8.73981 72.2038 8.53147C71.6995 7.78011 71.0314 7.27943 70.3792 6.94676C70.2808 6.89655 70.1824 6.85004 70.0848 6.80696C70.3284 6.69816 70.5539 6.57241 70.7622 6.4326C71.5136 5.92833 72.0143 5.2602 72.3469 4.60795C72.3943 4.51513 72.4383 4.42244 72.4793 4.33033C72.5896 4.5827 72.7178 4.81547 72.8607 5.02987C73.3657 5.78726 74.0353 6.28594 74.6897 6.61317C74.7745 6.65555 74.8591 6.69513 74.9433 6.7321C74.7137 6.83703 74.5005 6.9571 74.3027 7.08986C73.5513 7.59415 73.0506 8.26226 72.718 8.91449Z" fill="#F5F8FA" stroke="#A666E3"/>
</g>
<g filter="url(#filter12_f_284_586)">
<path d="M156.633 19.0318C156.582 19.1302 156.536 19.2286 156.493 19.3262C156.384 19.0826 156.258 18.8571 156.118 18.6488C155.614 17.8974 154.946 17.3967 154.294 17.0641C154.195 17.0139 154.097 16.9673 153.999 16.9243C154.243 16.8155 154.468 16.6897 154.677 16.5499C155.428 16.0456 155.929 15.3775 156.261 14.7253C156.309 14.6324 156.353 14.5397 156.394 14.4476C156.504 14.7 156.632 14.9328 156.775 15.1472C157.28 15.9046 157.95 16.4033 158.604 16.7305C158.689 16.7729 158.774 16.8124 158.858 16.8494C158.628 16.9543 158.415 17.0744 158.217 17.2072C157.466 17.7115 156.965 18.3796 156.633 19.0318Z" fill="#F5F8FA" stroke="#A666E3"/>
</g>
<path d="M40.0266 52.3487L25.403 77.6776L78.5637 108.37L93.1873 83.041L40.0266 52.3487Z" fill="#F5F8FA" stroke="#A666E3"/>
<path d="M39.8436 51.6657L24.72 77.8606L78.7467 109.053L93.8704 82.858L39.8436 51.6657Z" stroke="#A666E3"/>
<path d="M89.3222 92.2696L84.6234 100.408L92.762 105.107L97.4608 96.9684L89.3222 92.2696Z" fill="#F5F8FA" stroke="#A666E3"/>
<path d="M89.1392 91.5866L83.9403 100.591L92.945 105.79L98.1438 96.7854L89.1392 91.5866Z" stroke="#A666E3"/>
<path d="M73.662 105.572L88.5493 79.7859" stroke="#A666E3"/>
<path d="M67.523 102.027L82.4104 76.2416" stroke="#A666E3"/>
<path d="M61.3836 98.4826L76.271 72.6969" stroke="#A666E3"/>
<path d="M55.244 94.938L70.1313 69.1523" stroke="#A666E3"/>
<path d="M49.1046 91.3934L63.9919 65.6077" stroke="#A666E3"/>
<path d="M42.9654 87.849L57.8528 62.0634" stroke="#A666E3"/>
<path d="M36.826 84.3044L51.7134 58.5187" stroke="#A666E3"/>
<path d="M30.4503 81.1689L45.574 54.974" stroke="#A666E3"/>
<path d="M39.7172 53.776L91.6968 83.7864" stroke="#A666E3"/>
<path d="M36.4091 59.5056L88.3887 89.516" stroke="#A666E3"/>
<path d="M32.8644 65.6451L84.844 95.6555" stroke="#A666E3"/>
<path d="M29.5561 71.3755L81.5356 101.386" stroke="#A666E3"/>
<path d="M26.248 77.1051L78.2275 107.115" stroke="#A666E3"/>
<path d="M106.349 82.9688C108.299 79.5913 112.619 78.434 115.996 80.384L132.367 89.8359C135.745 91.7859 136.902 96.1051 134.952 99.4826L111.794 139.593C110.888 141.162 108.882 141.7 107.313 140.794L84.3926 127.561C82.8232 126.655 82.2856 124.648 83.1917 123.079L106.349 82.9688Z" fill="#F5F8FA" stroke="#A666E3"/>
<path d="M116.246 79.951C112.629 77.8629 108.004 79.1022 105.916 82.7188L82.7587 122.829C81.7145 124.638 82.334 126.95 84.1426 127.994L107.063 141.227C108.871 142.271 111.183 141.651 112.227 139.843L135.385 99.7326C137.473 96.116 136.234 91.491 132.617 89.4029L116.246 79.951Z" stroke="#A666E3"/>
<path d="M115.042 79.255C115.948 77.6855 117.954 77.148 119.524 78.0541L132.621 85.6159C134.191 86.522 134.728 88.5283 133.822 90.0977L133.127 91.3021L114.346 80.4594L115.042 79.255Z" fill="#F5F8FA" stroke="#A666E3"/>
<path d="M119.774 77.621C117.965 76.5769 115.653 77.1964 114.609 79.005L113.663 80.6424L133.31 91.9851L134.255 90.3477C135.299 88.5391 134.68 86.227 132.871 85.1829L119.774 77.621Z" stroke="#A666E3"/>
<path d="M119.734 78.69C120.901 76.6686 123.485 75.9761 125.507 77.1432L130.418 79.979C132.44 81.1461 133.132 83.7304 131.965 85.7518L131.742 86.1378L119.511 79.076L119.734 78.69Z" fill="#F5F8FA" stroke="#A666E3"/>
<path d="M125.757 76.7102C123.496 75.405 120.606 76.1794 119.301 78.44L118.828 79.259L131.925 86.8208L132.398 86.0018C133.703 83.7413 132.929 80.8511 130.668 79.546L125.757 76.7102Z" stroke="#A666E3"/>
<path d="M111.168 162.403L63.7505 135.026C68.5546 127.235 78.7186 124.631 86.6981 129.238L104.707 139.636C112.687 144.243 115.514 154.347 111.168 162.403Z" fill="#F5F8FA" stroke="#A666E3"/>
<path d="M86.9481 128.805C78.5846 123.977 67.8899 126.842 63.0613 135.206L111.358 163.09C116.186 154.726 113.321 144.032 104.957 139.203L86.9481 128.805Z" stroke="#A666E3"/>
<path d="M87.4963 150.487L82.033 159.949C81.8148 159.739 81.5679 159.552 81.2938 159.394C81.0198 159.236 80.7342 159.115 80.4431 159.032L85.9064 149.569L87.4963 150.487ZM78.754 159.957L78.6602 160.12L79.0932 160.37L81.5491 161.788L81.9821 162.038L82.0759 161.875C82.294 162.593 82.2261 163.396 81.8218 164.096C81.0469 165.438 79.3276 165.899 77.9855 165.124C76.6433 164.349 76.1827 162.63 76.9575 161.288C77.3618 160.588 78.0232 160.127 78.754 159.957Z" fill="#F5F8FA" stroke="#A666E3"/>
<path d="M195.147 141.907L180.523 167.236L127.362 136.544L141.986 111.215L195.147 141.907Z" fill="#F5F8FA" stroke="#A666E3"/>
<path d="M195.83 141.724L180.706 167.919L126.679 136.727L141.803 110.532L195.83 141.724Z" stroke="#A666E3"/>
<path d="M135.926 119.177L131.228 127.315L123.089 122.616L127.788 114.478L135.926 119.177Z" fill="#F5F8FA" stroke="#A666E3"/>
<path d="M136.609 118.994L131.411 127.998L122.406 122.799L127.605 113.795L136.609 118.994Z" stroke="#A666E3"/>
<path d="M132.237 139.39L147.124 113.604" stroke="#A666E3"/>
<path d="M138.376 142.934L153.263 117.148" stroke="#A666E3"/>
<path d="M144.515 146.479L159.402 120.693" stroke="#A666E3"/>
<path d="M150.655 150.023L165.542 124.238" stroke="#A666E3"/>
<path d="M156.794 153.568L171.681 127.782" stroke="#A666E3"/>
<path d="M162.933 157.112L177.82 131.327" stroke="#A666E3"/>
<path d="M169.073 160.657L183.96 134.871" stroke="#A666E3"/>
<path d="M174.976 164.611L190.099 138.416" stroke="#A666E3"/>
<path d="M194.065 142.889L142.086 112.878" stroke="#A666E3"/>
<path d="M190.757 148.619L138.778 118.608" stroke="#A666E3"/>
<path d="M187.212 154.758L135.233 124.748" stroke="#A666E3"/>
<path d="M183.904 160.488L131.925 130.478" stroke="#A666E3"/>
<path d="M180.596 166.218L128.616 136.208" stroke="#A666E3"/>
<path d="M113.077 92.0376L106.938 88.4929" stroke="#A666E3" stroke-linecap="round"/>
<path d="M109.452 135.513L103.313 131.968" stroke="#A666E3" stroke-linecap="round"/>
<path d="M93.5724 118.19C95.8181 119.486 96.5888 122.363 95.2923 124.608C93.9957 126.854 91.1192 127.625 88.8736 126.328C86.6279 125.032 85.8571 122.155 87.1537 119.909C88.4502 117.664 91.3267 116.893 93.5724 118.19Z" fill="#F5F8FA" stroke="#A666E3"/>
<path d="M115.718 100.961C116.382 101.344 116.61 102.195 116.226 102.86C115.843 103.524 114.991 103.752 114.327 103.369C113.663 102.985 113.435 102.134 113.818 101.469C114.202 100.805 115.053 100.577 115.718 100.961Z" fill="#F5F8FA" stroke="#A666E3"/>
<path d="M112.645 106.281C113.31 106.665 113.538 107.516 113.154 108.18C112.771 108.845 111.919 109.073 111.255 108.689C110.591 108.306 110.362 107.454 110.746 106.79C111.13 106.126 111.981 105.897 112.645 106.281Z" fill="#F5F8FA" stroke="#A666E3"/>
<path d="M109.573 111.602C110.238 111.986 110.466 112.837 110.082 113.502C109.699 114.166 108.847 114.394 108.183 114.01C107.519 113.627 107.29 112.775 107.674 112.111C108.058 111.447 108.909 111.219 109.573 111.602Z" fill="#F5F8FA" stroke="#A666E3"/>
<path d="M106.502 116.923C107.166 117.306 107.394 118.158 107.011 118.822C106.627 119.486 105.776 119.715 105.111 119.331C104.447 118.947 104.219 118.096 104.602 117.432C104.986 116.767 105.837 116.539 106.502 116.923Z" fill="#F5F8FA" stroke="#A666E3"/>
<path d="M120.06 111.258L128.922 95.9095" stroke="#A666E3" stroke-linecap="round"/>
<defs>
<filter id="filter0_f_284_586" x="189.533" y="7.31649" width="12.387" height="12.387" filterUnits="userSpaceOnUse" color-interpolation-filters="sRGB">
<feFlood flood-opacity="0" result="BackgroundImageFix"/>
<feBlend mode="normal" in="SourceGraphic" in2="BackgroundImageFix" result="shape"/>
<feGaussianBlur stdDeviation="0.716206" result="effect1_foregroundBlur_284_586"/>
</filter>
<filter id="filter1_f_284_586" x="50.8654" y="41.8344" width="12.387" height="12.387" filterUnits="userSpaceOnUse" color-interpolation-filters="sRGB">
<feFlood flood-opacity="0" result="BackgroundImageFix"/>
<feBlend mode="normal" in="SourceGraphic" in2="BackgroundImageFix" result="shape"/>
<feGaussianBlur stdDeviation="0.716206" result="effect1_foregroundBlur_284_586"/>
</filter>
<filter id="filter2_f_284_586" x="191.318" y="70.1987" width="12.387" height="12.387" filterUnits="userSpaceOnUse" color-interpolation-filters="sRGB">
<feFlood flood-opacity="0" result="BackgroundImageFix"/>
<feBlend mode="normal" in="SourceGraphic" in2="BackgroundImageFix" result="shape"/>
<feGaussianBlur stdDeviation="0.716206" result="effect1_foregroundBlur_284_586"/>
</filter>
<filter id="filter3_f_284_586" x="24.0844" y="17.2315" width="12.387" height="12.387" filterUnits="userSpaceOnUse" color-interpolation-filters="sRGB">
<feFlood flood-opacity="0" result="BackgroundImageFix"/>
<feBlend mode="normal" in="SourceGraphic" in2="BackgroundImageFix" result="shape"/>
<feGaussianBlur stdDeviation="0.716206" result="effect1_foregroundBlur_284_586"/>
</filter>
<filter id="filter4_f_284_586" x="21.1086" y="171.967" width="12.387" height="12.387" filterUnits="userSpaceOnUse" color-interpolation-filters="sRGB">
<feFlood flood-opacity="0" result="BackgroundImageFix"/>
<feBlend mode="normal" in="SourceGraphic" in2="BackgroundImageFix" result="shape"/>
<feGaussianBlur stdDeviation="0.716206" result="effect1_foregroundBlur_284_586"/>
</filter>
<filter id="filter5_f_284_586" x="155.015" y="183.275" width="12.387" height="12.387" filterUnits="userSpaceOnUse" color-interpolation-filters="sRGB">
<feFlood flood-opacity="0" result="BackgroundImageFix"/>
<feBlend mode="normal" in="SourceGraphic" in2="BackgroundImageFix" result="shape"/>
<feGaussianBlur stdDeviation="0.716206" result="effect1_foregroundBlur_284_586"/>
</filter>
<filter id="filter6_f_284_586" x="21.7038" y="97.575" width="12.387" height="12.387" filterUnits="userSpaceOnUse" color-interpolation-filters="sRGB">
<feFlood flood-opacity="0" result="BackgroundImageFix"/>
<feBlend mode="normal" in="SourceGraphic" in2="BackgroundImageFix" result="shape"/>
<feGaussianBlur stdDeviation="0.716206" result="effect1_foregroundBlur_284_586"/>
</filter>
<filter id="filter7_f_284_586" x="125.853" y="21.3974" width="12.387" height="12.387" filterUnits="userSpaceOnUse" color-interpolation-filters="sRGB">
<feFlood flood-opacity="0" result="BackgroundImageFix"/>
<feBlend mode="normal" in="SourceGraphic" in2="BackgroundImageFix" result="shape"/>
<feGaussianBlur stdDeviation="0.716206" result="effect1_foregroundBlur_284_586"/>
</filter>
<filter id="filter8_f_284_586" x="179.415" y="55.3203" width="12.387" height="12.387" filterUnits="userSpaceOnUse" color-interpolation-filters="sRGB">
<feFlood flood-opacity="0" result="BackgroundImageFix"/>
<feBlend mode="normal" in="SourceGraphic" in2="BackgroundImageFix" result="shape"/>
<feGaussianBlur stdDeviation="0.716206" result="effect1_foregroundBlur_284_586"/>
</filter>
<filter id="filter9_f_284_586" x="183.581" y="164.826" width="12.387" height="12.387" filterUnits="userSpaceOnUse" color-interpolation-filters="sRGB">
<feFlood flood-opacity="0" result="BackgroundImageFix"/>
<feBlend mode="normal" in="SourceGraphic" in2="BackgroundImageFix" result="shape"/>
<feGaussianBlur stdDeviation="0.716206" result="effect1_foregroundBlur_284_586"/>
</filter>
<filter id="filter10_f_284_586" x="61.5781" y="188.036" width="12.387" height="12.387" filterUnits="userSpaceOnUse" color-interpolation-filters="sRGB">
<feFlood flood-opacity="0" result="BackgroundImageFix"/>
<feBlend mode="normal" in="SourceGraphic" in2="BackgroundImageFix" result="shape"/>
<feGaussianBlur stdDeviation="0.716206" result="effect1_foregroundBlur_284_586"/>
</filter>
<filter id="filter11_f_284_586" x="66.3391" y="0.567589" width="12.387" height="12.387" filterUnits="userSpaceOnUse" color-interpolation-filters="sRGB">
<feFlood flood-opacity="0" result="BackgroundImageFix"/>
<feBlend mode="normal" in="SourceGraphic" in2="BackgroundImageFix" result="shape"/>
<feGaussianBlur stdDeviation="0.716206" result="effect1_foregroundBlur_284_586"/>
</filter>
<filter id="filter12_f_284_586" x="150.254" y="10.6849" width="12.387" height="12.387" filterUnits="userSpaceOnUse" color-interpolation-filters="sRGB">
<feFlood flood-opacity="0" result="BackgroundImageFix"/>
<feBlend mode="normal" in="SourceGraphic" in2="BackgroundImageFix" result="shape"/>
<feGaussianBlur stdDeviation="0.716206" result="effect1_foregroundBlur_284_586"/>
</filter>
</defs>
</svg>
