<svg width="23" height="22" viewBox="0 0 23 22" fill="none" xmlns="http://www.w3.org/2000/svg">
<path d="M11.8485 16.4267C11.961 16.383 12.0638 16.3176 12.151 16.2342L16.7343 11.6508C16.8198 11.5654 16.8876 11.4639 16.9338 11.3522C16.9801 11.2406 17.0039 11.1209 17.0039 11C17.0039 10.7559 16.9069 10.5218 16.7343 10.3492C16.6489 10.2637 16.5474 10.1959 16.4357 10.1496C16.324 10.1034 16.2044 10.0796 16.0835 10.0796C15.8394 10.0796 15.6053 10.1766 15.4327 10.3492L12.4168 13.3742L12.4168 6.41667C12.4168 6.17355 12.3202 5.94039 12.1483 5.76849C11.9764 5.59658 11.7433 5.5 11.5002 5.5C11.257 5.5 11.0239 5.59658 10.852 5.76849C10.6801 5.94039 10.5835 6.17355 10.5835 6.41667L10.5835 13.3742L7.56765 10.3492C7.48244 10.2632 7.38106 10.1951 7.26935 10.1485C7.15765 10.102 7.03783 10.078 6.91682 10.078C6.79581 10.078 6.676 10.102 6.56429 10.1485C6.45259 10.1951 6.35121 10.2632 6.26599 10.3492C6.18007 10.4344 6.11188 10.5358 6.06534 10.6475C6.0188 10.7592 5.99484 10.879 5.99484 11C5.99484 11.121 6.0188 11.2408 6.06534 11.3525C6.11188 11.4642 6.18007 11.5656 6.26599 11.6508L10.8493 16.2342C10.9365 16.3176 11.0393 16.383 11.1518 16.4267C11.375 16.5183 11.6253 16.5183 11.8485 16.4267Z" fill="url(#paint0_linear_399_3440)"/>
<defs>
<linearGradient id="paint0_linear_399_3440" x1="11.4994" y1="5.5" x2="11.4994" y2="16.4954" gradientUnits="userSpaceOnUse">
<stop stop-color="#9B51E0"/>
<stop offset="1" stop-color="#4A90E2"/>
</linearGradient>
</defs>
</svg>
