<svg width="63" height="62" viewBox="0 0 63 62" fill="none" xmlns="http://www.w3.org/2000/svg">
<circle cx="31.7348" cy="31.102" r="30.7465" fill="#A666E3" fill-opacity="0.28"/>
<path d="M23.3207 43.5568L25.3158 44.4305L25.6027 43.785L23.6076 42.9114L23.3207 43.5568ZM25.8895 44.6978L27.8846 45.5715L28.1715 44.926L26.1764 44.0523L25.8895 44.6978ZM37.1103 43.785L37.3972 44.4305L39.3923 43.5568L39.1054 42.9114L37.1103 43.785ZM28.4779 45.8192L30.4535 46.7125L30.7404 46.067L28.7648 45.1933L28.4779 45.8192ZM20.7388 42.4158L22.7339 43.2895L23.0208 42.6636L21.0257 41.7704L20.7388 42.4158ZM34.5219 44.926L34.8088 45.5715L36.8039 44.6978L36.517 44.0523L34.5219 44.926ZM31.9596 46.067L32.2465 46.7125L34.2415 45.8192L33.9547 45.1933L31.9596 46.067ZM39.6791 42.6636L39.966 43.2895L41.9611 42.4158L41.6742 41.7704L39.6791 42.6636ZM27.8846 19.8439H25.7005V20.5285H27.8846V19.8439ZM24.8072 19.8439H22.6165V20.5285H24.8007L24.8072 19.8439ZM21.7233 19.8439H19.5587V20.5285H21.7298L21.7233 19.8439ZM30.949 19.8439H28.7844V20.5285H30.949V19.8439ZM37.1103 19.8439H34.9261V20.5285H37.1103V19.8439ZM40.1942 19.8439H38.0101V20.5285H40.1942V19.8439ZM34.0264 19.8439H31.8618V20.5285H34.0264V19.8439ZM43.2521 19.8439H41.0809V20.5285H43.2521V19.8439ZM20.2433 39.697H19.5391V41.8812H20.2433V39.697ZM24.8072 25.6206H22.6165V26.3051H24.8007L24.8072 25.6206ZM20.2433 26.3117H21.7298V25.6271H19.5391V27.8112H20.2433V26.3117ZM31.2554 41.2162C34.548 41.2162 37.2081 38.5561 37.2081 35.2635C37.2081 31.9905 34.548 29.3108 31.2554 29.3108C27.9824 29.3108 25.3027 31.9905 25.3027 35.2635C25.3027 38.5561 27.9824 41.2162 31.2554 41.2162ZM28.1128 33.9726C28.1128 32.3165 30.0362 31.8992 31.3467 31.8992C32.4486 31.8992 33.2505 32.2774 34.235 32.6816L33.6613 33.7835H33.6026C33.1853 33.138 31.9857 32.9294 31.2815 32.9294C30.6947 32.9294 29.3386 33.0467 29.3386 33.9008C29.3386 35.3091 34.4567 33.2358 34.4567 36.3719C34.4567 38.0279 32.4029 38.4061 31.1315 38.4061C29.9514 38.4061 29.0191 38.217 28.0541 37.6107L28.6409 36.411H28.6996C29.0973 37.2064 30.2383 37.3825 31.0403 37.3825C31.6075 37.3825 33.1723 37.3042 33.1723 36.4501C33.1723 34.7484 28.1128 36.8609 28.1128 33.9726ZM20.2433 28.4372H19.5391V30.6278H20.2433V28.4372ZM42.5675 41.8812H43.2716V39.697H42.5675V41.8812ZM20.2433 36.8804H19.5391V39.0646H20.2433V36.8804ZM16.8008 17.0469V43.5177L31.2554 49.9463L46.01 43.5177V17.0469H16.8008ZM44.1062 42.2854L31.275 47.873L18.7046 42.2854V24.6752H44.1127V42.2854H44.1062ZM44.1062 22.7714H18.7046V18.9507H44.1127V22.7714H44.1062ZM20.2433 31.2538H19.5391V33.4379H20.2433V31.2538ZM20.2433 34.0704H19.5391V36.2545H20.2433V34.0704ZM27.8846 25.6206H25.7005V26.3051H27.8846V25.6206ZM42.5675 36.2545H43.2716V34.0704H42.5675V36.2545ZM42.5675 33.4379H43.2716V31.2538H42.5675V33.4379ZM30.949 25.6206H28.7844V26.3051H30.949V25.6206ZM42.5675 30.6278H43.2716V28.4437H42.5675V30.6278ZM42.5675 39.0711H43.2716V36.887H42.5675V39.0711ZM34.0264 25.6206H31.8618V26.3051H34.0264V25.6206ZM37.1103 25.6206H34.9261V26.3051H37.1103V25.6206ZM42.5675 27.8112H43.2716V25.6271H41.0875V26.3117H42.574L42.5675 27.8112ZM40.1942 25.6206H38.0101V26.3051H40.1942V25.6206Z" fill="#5801A9"/>
</svg>
