<svg width="55" height="55" viewBox="0 0 55 55" fill="none" xmlns="http://www.w3.org/2000/svg">
<path d="M49.1241 12.7216C49.8723 12.7745 50.4467 13.0314 50.8397 13.7721C51.3386 14.7245 51.845 15.639 51.7619 16.9012C51.4142 16.9315 51.0816 17.0373 50.7793 16.9768C49.8874 16.7803 49.0031 16.5157 48.1113 16.2739C47.7636 16.1832 47.4386 16.0547 47.0909 16.0094C44.9973 15.7448 42.8962 15.5181 40.8026 15.2384C40.2433 15.1629 39.684 15.0268 39.1549 14.8303C38.5503 14.6036 37.9834 14.3693 37.3107 14.407C36.9101 14.4297 36.4945 14.2257 36.0863 14.135C35.2625 13.9611 34.4462 13.7495 33.6148 13.6285C32.1259 13.4094 30.7351 13.0163 29.5107 12.1094C29.6543 11.5274 30.0776 11.6483 30.3573 11.7617C30.9997 12.0262 31.6346 12.0111 32.2166 11.7164C33.5317 11.0512 34.8468 11.3989 36.177 11.5652C36.8799 11.6483 37.5752 11.9204 38.263 11.8977C40.0316 11.8373 41.7624 12.2983 43.5537 12.1245C44.4456 12.0338 45.3752 12.3588 46.2897 12.4873C46.6677 13.4547 47.5595 13.1373 48.27 13.2733L48.2624 13.1902C48.6479 13.1977 48.9805 13.1071 49.1014 12.6838L49.1241 12.7216Z" fill="#DC1D16"/>
<path d="M4.54593 33.4159C5.86104 34.4438 6.65464 35.5246 7.48603 36.5827C8.718 38.1322 10.1163 39.5607 11.4616 41.0269C12.225 41.8659 13.0413 42.667 13.7744 43.5362C14.3186 44.1862 14.8703 44.8286 15.4447 45.4484C15.9813 46.0304 16.0267 47.0432 16.4877 47.731C17.6744 49.5222 17.886 51.5025 17.8633 53.5507C17.8558 53.8152 17.75 54.1025 17.629 54.3443C17.4552 54.6844 16.7221 54.7676 16.5104 54.4653C16.3139 54.178 16.1325 53.8606 16.0192 53.5356C15.2633 51.2077 14.0994 49.1066 12.7087 47.1112C10.9703 44.6019 9.3302 42.0095 7.51625 39.5606C6.16335 37.7542 5.18081 35.8496 4.54593 33.4159Z" fill="#DC1D16"/>
<path d="M37.7641 32.1234C36.6001 32.2594 35.9124 31.8135 35.2095 31.5339C33.6298 30.8763 31.9972 30.4379 30.3345 30.0449C28.2711 29.5536 26.1926 29.017 24.3938 27.7775C24.0537 27.5432 23.6228 27.4147 23.2449 27.2333C22.1263 26.6891 22.0659 26.281 22.9502 25.0792C24.4391 26.024 26.2077 26.1298 27.8705 26.5682C28.4601 26.7193 29.1705 26.674 29.7676 26.5153C30.4327 26.349 31.0449 26.3263 31.6269 26.6211C32.7833 27.203 34.0379 27.3996 35.285 27.649C35.7612 27.7472 36.2147 27.9588 36.6984 28.1251C36.7211 28.8734 36.6455 29.5687 36.8042 30.2112C36.9478 30.8083 37.3559 31.3373 37.7641 32.1234Z" fill="#DC1D16"/>
<path d="M19.8212 24.4897C20.2445 24.6409 20.6677 24.792 21.1968 24.9885C20.3729 25.4647 20.3729 25.4647 19.8212 24.4897Z" fill="#DC1D16"/>
<path d="M48.2548 13.1827L48.2624 13.2658C48.5496 13.0844 48.8368 12.903 49.1241 12.7217L49.0863 12.6687C48.8142 12.835 48.5345 13.0088 48.2548 13.1827Z" fill="#DC1D16"/>
<path d="M48.2545 13.1827C48.5342 13.0088 48.8063 12.8425 49.0935 12.6763C48.9801 13.1071 48.64 13.1902 48.2545 13.1827Z" fill="white"/>
</svg>
