<svg width="25" height="28" viewBox="0 0 25 28" fill="none" xmlns="http://www.w3.org/2000/svg">
<path d="M22.0112 23.4132C21.6299 23.6229 21.271 23.9076 20.8598 24.0275C20.0598 24.2597 19.2897 24.2447 18.7364 23.4282C18.5495 23.1585 18.2504 22.9113 17.9439 22.7914C17.1962 22.4993 16.5308 22.0648 15.8206 21.7351C14.8934 21.3081 14.1159 20.7238 13.3757 20.0646C13.1514 19.8623 12.9346 19.6601 12.6953 19.4878C12.0748 19.0308 11.7458 19.0757 11.1551 19.6675C10.3402 20.4766 9.51777 21.2707 8.91964 22.267C8.51591 22.9337 7.97757 23.4207 7.25233 23.6979C6.86355 23.8477 6.58692 24.0724 6.47477 24.5219C6.16076 25.7804 5.18133 26.4472 4.13461 27.1738C3.31965 26.4172 2.14582 26.3872 1.47292 25.4134C1.7047 24.1623 1.9215 22.8963 2.35515 21.6677C2.57197 21.0609 2.76635 20.4391 2.87103 19.8024C3.2299 17.5325 3.89534 15.3526 4.71777 13.1501C4.41123 12.5808 3.82806 12.3111 3.27479 11.974C2.12339 11.2773 1.08414 10.4233 0.351427 9.26216C-0.381282 8.10102 0.0598171 7.20955 1.41309 7.10468C3.14766 6.96234 4.88225 6.82001 6.61682 6.67767C6.91589 6.6552 7.20747 6.61025 7.50653 6.5653C7.88036 6.49788 8.17946 6.30311 8.24675 5.92106C8.45609 4.79736 9.05419 3.92088 9.7869 3.06688C10.1458 2.63988 10.2654 1.98814 10.4374 1.42629C10.5794 0.961831 10.6542 0.474896 10.7514 0.0179285C12.5682 -0.124406 14.0187 0.587265 14.9009 1.92071C15.7757 3.24667 16.8149 4.46775 17.5477 5.89858C17.772 6.34057 18.1907 6.53534 18.6766 6.47541C19.4168 6.38551 20.1495 6.25067 20.8822 6.11583C21.1738 6.06339 21.4579 5.95102 21.7421 5.85363C22.7439 5.50154 23.6037 5.84614 24.3962 6.44545C25.0093 6.9099 25.1439 7.43429 24.8523 8.16095C24.7401 8.43812 24.5757 8.69283 24.4261 8.94753C24.1047 9.50938 23.8056 10.0637 23.6037 10.693C23.4617 11.1425 23.1402 11.6069 22.7663 11.8916C21.7869 12.6407 20.8673 13.5022 19.5065 13.8019C19.656 14.124 19.7981 14.3787 19.8953 14.6409C20.1196 15.2477 20.3738 15.847 20.5233 16.4763C20.643 17.0081 20.6205 17.57 21.114 17.9446C21.1514 17.9745 21.1813 18.027 21.1888 18.0719C21.5102 19.8024 22.0037 21.5179 22.0112 23.4132ZM7.5215 18.821C8.05234 18.3041 8.32898 17.9595 8.68038 17.7048C9.03178 17.4501 9.42804 17.1879 9.83925 17.0905C11.2449 16.7609 12.5907 16.9257 13.8467 17.7048C14.8187 18.3041 15.843 18.8285 16.5832 19.7425C16.7028 19.8923 16.8747 20.0121 17.0392 20.117C17.3607 20.3268 17.7944 20.1095 17.8168 19.7425C17.8243 19.6451 17.8318 19.5402 17.8168 19.4428C17.6075 18.3191 17.5252 17.1729 17.0841 16.1017C16.9719 15.8245 16.8448 15.5473 16.7775 15.2627C16.5757 14.3787 16.9271 13.5846 17.7495 13.1801C18.1233 13.0003 18.4299 12.7831 18.6467 12.4385C19.2299 11.517 19.656 10.5207 20.1121 9.41948C19.8056 9.28464 19.5589 9.12732 19.3047 9.09736C19.1402 9.07488 18.9308 9.21722 18.7663 9.3146C18.2131 9.65171 17.6822 9.56181 17.2561 9.14979C16.6206 8.52802 15.9103 7.90624 15.4991 7.14213C14.9458 6.11583 14.1533 5.29179 13.5178 4.34789C13.4505 4.24301 13.2785 4.21304 13.0841 4.11566C12.5682 5.32924 12.0598 6.49788 11.5738 7.68151C11.058 8.94004 10.4972 9.23969 9.13646 8.8876C8.68786 8.76774 8.24673 8.70781 7.82057 8.88011C7.11776 9.15729 6.40001 9.29962 5.65234 9.37453C5.45048 9.39701 5.15888 9.60676 5.1215 9.77906C5.07664 9.95885 5.24114 10.2435 5.39815 10.4008C5.68226 10.6705 6.01868 10.8878 6.34766 11.1125C6.59438 11.2848 6.86355 11.4122 7.1028 11.592C7.78317 12.1238 8.05233 12.7756 7.88785 13.682C7.64112 15.0454 7.5215 16.4388 7.37197 17.8247C7.35701 18.0419 7.43926 18.2817 7.5215 18.821Z" fill="#4A90E2"/>
</svg>
