<svg width="44" height="276" viewBox="0 0 44 276" fill="none" xmlns="http://www.w3.org/2000/svg">
<circle cx="21.9823" cy="21.9823" r="21.9823" fill="#4A90E2"/>
<path fill-rule="evenodd" clip-rule="evenodd" d="M21.9824 33.5675C23.5038 33.5675 25.0103 33.2678 26.4158 32.6856C27.8214 32.1034 29.0986 31.25 30.1744 30.1743C31.2502 29.0985 32.1035 27.8213 32.6857 26.4157C33.268 25.0101 33.5676 23.5036 33.5676 21.9822C33.5676 20.4608 33.268 18.9543 32.6857 17.5487C32.1035 16.1432 31.2502 14.866 30.1744 13.7902C29.0986 12.7144 27.8214 11.8611 26.4158 11.2788C25.0103 10.6966 23.5038 10.397 21.9824 10.397C18.9098 10.397 15.963 11.6176 13.7903 13.7902C11.6177 15.9629 10.3971 18.9096 10.3971 21.9822C10.3971 25.0548 11.6177 28.0016 13.7903 30.1743C15.963 32.3469 18.9098 33.5675 21.9824 33.5675ZM21.6837 26.6678L28.12 18.9443L26.1428 17.2966L20.6076 23.9376L17.7434 21.0722L15.9233 22.8923L19.785 26.7541L20.7814 27.7504L21.6837 26.6678Z" fill="white"/>
<circle cx="21.9823" cy="99.3273" r="21.9823" fill="#4A90E2"/>
<path fill-rule="evenodd" clip-rule="evenodd" d="M21.9824 110.912C23.5038 110.912 25.0103 110.613 26.4158 110.031C27.8214 109.448 29.0986 108.595 30.1744 107.519C31.2502 106.443 32.1035 105.166 32.6857 103.761C33.268 102.355 33.5676 100.849 33.5676 99.3272C33.5676 97.8058 33.268 96.2993 32.6857 94.8937C32.1035 93.4881 31.2502 92.211 30.1744 91.1352C29.0986 90.0594 27.8214 89.206 26.4158 88.6238C25.0103 88.0416 23.5038 87.7419 21.9824 87.7419C18.9098 87.7419 15.963 88.9625 13.7903 91.1352C11.6177 93.3078 10.3971 96.2546 10.3971 99.3272C10.3971 102.4 11.6177 105.347 13.7903 107.519C15.963 109.692 18.9098 110.912 21.9824 110.912ZM21.6837 104.013L28.12 96.2893L26.1428 94.6416L20.6076 101.283L17.7434 98.4171L15.9233 100.237L19.785 104.099L20.7814 105.095L21.6837 104.013Z" fill="white"/>
<circle cx="21.9823" cy="176.672" r="21.9823" fill="#4A90E2"/>
<path fill-rule="evenodd" clip-rule="evenodd" d="M21.9824 188.258C23.5038 188.258 25.0103 187.958 26.4158 187.376C27.8214 186.794 29.0986 185.94 30.1744 184.864C31.2502 183.789 32.1035 182.511 32.6857 181.106C33.268 179.7 33.5676 178.194 33.5676 176.672C33.5676 175.151 33.268 173.645 32.6857 172.239C32.1035 170.833 31.2502 169.556 30.1744 168.48C29.0986 167.405 27.8214 166.551 26.4158 165.969C25.0103 165.387 23.5038 165.087 21.9824 165.087C18.9098 165.087 15.963 166.308 13.7903 168.48C11.6177 170.653 10.3971 173.6 10.3971 176.672C10.3971 179.745 11.6177 182.692 13.7903 184.864C15.963 187.037 18.9098 188.258 21.9824 188.258ZM21.6837 181.358L28.12 173.635L26.1428 171.987L20.6076 178.628L17.7434 175.762L15.9233 177.583L19.785 181.444L20.7814 182.441L21.6837 181.358Z" fill="white"/>
<circle cx="21.9823" cy="254.018" r="21.9823" fill="#4A90E2"/>
<path fill-rule="evenodd" clip-rule="evenodd" d="M21.9824 265.603C23.5038 265.603 25.0103 265.303 26.4158 264.721C27.8214 264.139 29.0986 263.285 30.1744 262.21C31.2502 261.134 32.1035 259.857 32.6857 258.451C33.268 257.046 33.5676 255.539 33.5676 254.018C33.5676 252.496 33.268 250.99 32.6857 249.584C32.1035 248.179 31.2502 246.901 30.1744 245.826C29.0986 244.75 27.8214 243.896 26.4158 243.314C25.0103 242.732 23.5038 242.432 21.9824 242.432C18.9098 242.432 15.963 243.653 13.7903 245.826C11.6177 247.998 10.3971 250.945 10.3971 254.018C10.3971 257.09 11.6177 260.037 13.7903 262.21C15.963 264.382 18.9098 265.603 21.9824 265.603ZM21.6837 258.703L28.12 250.98L26.1428 249.332L20.6076 255.973L17.7434 253.108L15.9233 254.928L19.785 258.789L20.7814 259.786L21.6837 258.703Z" fill="white"/>
<line x1="22" y1="47" x2="22" y2="75" stroke="#4A90E2" stroke-width="2" stroke-dasharray="4 4"/>
<line x1="22" y1="125" x2="22" y2="153" stroke="#4A90E2" stroke-width="2" stroke-dasharray="4 4"/>
<line x1="22" y1="202" x2="22" y2="230" stroke="#4A90E2" stroke-width="2" stroke-dasharray="4 4"/>
</svg>
