<svg width="79" height="79" viewBox="0 0 79 79" fill="none" xmlns="http://www.w3.org/2000/svg">
<path fill-rule="evenodd" clip-rule="evenodd" d="M39.5 78.875C44.6708 78.875 49.791 77.8565 54.5682 75.8778C59.3454 73.899 63.686 70.9986 67.3423 67.3423C70.9986 63.686 73.899 59.3454 75.8778 54.5682C77.8565 49.791 78.875 44.6708 78.875 39.5C78.875 34.3292 77.8565 29.209 75.8778 24.4318C73.899 19.6546 70.9986 15.314 67.3423 11.6577C63.686 8.00136 59.3454 5.10102 54.5682 3.12224C49.791 1.14346 44.6708 0.125 39.5 0.125C29.0571 0.125 19.0419 4.27343 11.6577 11.6577C4.27343 19.0419 0.125 29.0571 0.125 39.5C0.125 49.9429 4.27343 59.9581 11.6577 67.3423C19.0419 74.7266 29.0571 78.875 39.5 78.875ZM38.485 55.425L60.36 29.175L53.64 23.575L34.8275 46.1456L25.0931 36.4069L18.9069 42.5931L32.0319 55.7181L35.4181 59.1044L38.485 55.425Z" fill="#18C354"/>
</svg>
