<svg width="19" height="16" viewBox="0 0 19 16" fill="none" xmlns="http://www.w3.org/2000/svg">
<path d="M2.3001 15.7008C1.71662 15.7008 1.15704 15.469 0.744463 15.0564C0.331883 14.6438 0.100098 14.0843 0.100098 13.5008V2.50078C0.100098 1.9173 0.331883 1.35773 0.744463 0.945146C1.15704 0.532566 1.71662 0.300781 2.3001 0.300781H3.4001C3.98357 0.300781 4.54315 0.532566 4.95573 0.945146C5.36831 1.35773 5.6001 1.9173 5.6001 2.50078V13.5008C5.6001 14.0843 5.36831 14.6438 4.95573 15.0564C4.54315 15.469 3.98357 15.7008 3.4001 15.7008H2.3001ZM8.9001 15.7008C8.31662 15.7008 7.75704 15.469 7.34446 15.0564C6.93188 14.6438 6.7001 14.0843 6.7001 13.5008V2.50078C6.7001 1.9173 6.93188 1.35773 7.34446 0.945146C7.75704 0.532566 8.31662 0.300781 8.9001 0.300781H10.0001C10.5836 0.300781 11.1432 0.532566 11.5557 0.945146C11.9683 1.35773 12.2001 1.9173 12.2001 2.50078V13.5008C12.2001 14.0843 11.9683 14.6438 11.5557 15.0564C11.1432 15.469 10.5836 15.7008 10.0001 15.7008H8.9001ZM15.5001 15.7008C14.9166 15.7008 14.357 15.469 13.9445 15.0564C13.5319 14.6438 13.3001 14.0843 13.3001 13.5008V2.50078C13.3001 1.9173 13.5319 1.35773 13.9445 0.945146C14.357 0.532566 14.9166 0.300781 15.5001 0.300781H16.6001C17.1836 0.300781 17.7432 0.532566 18.1557 0.945146C18.5683 1.35773 18.8001 1.9173 18.8001 2.50078V13.5008C18.8001 14.0843 18.5683 14.6438 18.1557 15.0564C17.7432 15.469 17.1836 15.7008 16.6001 15.7008H15.5001Z" fill="#9747FF"/>
</svg>
