<svg width="20" height="20" viewBox="0 0 20 20" fill="none" xmlns="http://www.w3.org/2000/svg">
<path d="M10.8334 10.0001H14.1668M7.5001 13.3334H14.1668M18.3334 7.39925C18.2776 6.11425 18.1218 5.27758 17.6834 4.61591C17.4341 4.23892 17.1215 3.90793 16.7593 3.63758C15.7876 2.91675 14.4168 2.91675 11.6734 2.91675H8.3276C5.5851 2.91675 4.21344 2.91675 3.24177 3.63758C2.88177 3.90425 2.56927 4.23508 2.31677 4.61591C1.87927 5.27758 1.72344 6.11425 1.66677 7.39925C1.65844 7.61841 1.84677 7.78675 2.05427 7.78675C3.20927 7.78675 4.14594 8.77758 4.14594 10.0001C4.14594 11.2226 3.20927 12.2134 2.05427 12.2134C1.84677 12.2134 1.6576 12.3817 1.6676 12.6017C1.72344 13.8859 1.87927 14.7226 2.3176 15.3851C2.56698 15.7618 2.87965 16.0925 3.24177 16.3626C4.21344 17.0834 5.5851 17.0834 8.3276 17.0834H11.6734C14.4159 17.0834 15.7876 17.0834 16.7593 16.3626C17.1193 16.0959 17.4318 15.7651 17.6843 15.3842C18.1218 14.7226 18.2776 13.8859 18.3334 12.6009V7.39925Z" stroke="white" stroke-width="1.125" stroke-linecap="round" stroke-linejoin="round"/>
</svg>
