<svg width="56" height="57" viewBox="0 0 56 57" fill="none" xmlns="http://www.w3.org/2000/svg">
<circle cx="28" cy="28.5" r="28" fill="#F0F2F5"/>
<path d="M21.0003 25.584C21.0003 22.0402 23.8732 19.1673 27.417 19.1673C30.5562 19.1673 33.171 21.4227 33.7252 24.4018C33.8029 24.8195 34.1016 25.162 34.5049 25.2958C36.8275 26.0661 38.5003 28.2562 38.5003 30.834C38.5003 34.0556 35.8887 36.6673 32.667 36.6673C32.0227 36.6673 31.5003 37.1897 31.5003 37.834C31.5003 38.4783 32.0227 39.0007 32.667 39.0007C37.1773 39.0007 40.8337 35.3443 40.8337 30.834C40.8337 27.4594 38.7876 24.5655 35.871 23.3202C34.873 19.585 31.4674 16.834 27.417 16.834C22.5845 16.834 18.667 20.7515 18.667 25.584C18.667 25.701 18.6693 25.8175 18.6739 25.9335C16.5792 27.1419 15.167 29.4053 15.167 32.0007C15.167 35.8666 18.301 39.0007 22.167 39.0007C22.8113 39.0007 23.3337 38.4783 23.3337 37.834C23.3337 37.1897 22.8113 36.6673 22.167 36.6673C19.5897 36.6673 17.5003 34.578 17.5003 32.0007C17.5003 30.0671 18.6765 28.4055 20.3571 27.6976C20.8434 27.4928 21.1316 26.987 21.0601 26.4642C21.0207 26.177 21.0003 25.8832 21.0003 25.584Z" fill="#475367"/>
<path d="M27.2252 31.1287C27.6673 30.7358 28.3334 30.7358 28.7754 31.1287L30.5254 32.6842C31.007 33.1123 31.0504 33.8497 30.6223 34.3313C30.2478 34.7526 29.6366 34.8385 29.167 34.5668V40.1673C29.167 40.8117 28.6447 41.334 28.0003 41.334C27.356 41.334 26.8337 40.8117 26.8337 40.1673V34.5668C26.3641 34.8385 25.7528 34.7526 25.3783 34.3313C24.9503 33.8497 24.9937 33.1123 25.4752 32.6842L27.2252 31.1287Z" fill="#475367"/>
</svg>
