<svg width="44" height="44" viewBox="0 0 44 44" fill="none" xmlns="http://www.w3.org/2000/svg">
<rect width="44" height="44" rx="22" fill="#F5F5F5"/>
<path d="M19.0004 27.7505C18.5904 27.7505 18.2504 27.4105 18.2504 27.0005V22.8105L17.5304 23.5305C17.2404 23.8205 16.7604 23.8205 16.4704 23.5305C16.1804 23.2405 16.1804 22.7605 16.4704 22.4705L18.4704 20.4705C18.6804 20.2605 19.0104 20.1905 19.2904 20.3105C19.5704 20.4205 19.7504 20.7005 19.7504 21.0005V27.0005C19.7504 27.4105 19.4104 27.7505 19.0004 27.7505Z" fill="#A020F0"/>
<path d="M21.0004 23.7495C20.8104 23.7495 20.6204 23.6795 20.4704 23.5295L18.4704 21.5295C18.1804 21.2395 18.1804 20.7595 18.4704 20.4695C18.7604 20.1795 19.2404 20.1795 19.5304 20.4695L21.5304 22.4695C21.8204 22.7595 21.8204 23.2395 21.5304 23.5295C21.3804 23.6795 21.1904 23.7495 21.0004 23.7495Z" fill="#A020F0"/>
<path d="M25 32.75H19C13.57 32.75 11.25 30.43 11.25 25V19C11.25 13.57 13.57 11.25 19 11.25H24C24.41 11.25 24.75 11.59 24.75 12C24.75 12.41 24.41 12.75 24 12.75H19C14.39 12.75 12.75 14.39 12.75 19V25C12.75 29.61 14.39 31.25 19 31.25H25C29.61 31.25 31.25 29.61 31.25 25V20C31.25 19.59 31.59 19.25 32 19.25C32.41 19.25 32.75 19.59 32.75 20V25C32.75 30.43 30.43 32.75 25 32.75Z" fill="#A020F0"/>
<path d="M32 20.7505H28C24.58 20.7505 23.25 19.4205 23.25 16.0005V12.0005C23.25 11.7005 23.43 11.4205 23.71 11.3105C23.99 11.1905 24.31 11.2605 24.53 11.4705L32.53 19.4705C32.74 19.6805 32.81 20.0105 32.69 20.2905C32.57 20.5705 32.3 20.7505 32 20.7505ZM24.75 13.8105V16.0005C24.75 18.5805 25.42 19.2505 28 19.2505H30.19L24.75 13.8105Z" fill="#A020F0"/>
</svg>
