<svg width="17" height="16" viewBox="0 0 17 16" fill="none" xmlns="http://www.w3.org/2000/svg">
<path d="M12.7156 9.32812C12.7156 9.32812 12.7156 9.33125 12.7188 9.33125C13.0063 9.9375 13.1687 10.6156 13.1687 11.3313C13.1656 13.9094 11.0781 16 8.5 16C5.92188 16 3.83437 13.9094 3.83437 11.3344C3.83437 10.6188 3.99688 9.94063 4.28437 9.33438C4.3375 9.22188 4.39687 9.10938 4.45937 9C4.59687 8.7625 4.75312 8.54063 4.92812 8.33438C5.78437 7.31563 7.06875 6.66875 8.50313 6.66875C9.55313 6.66875 10.5219 7.01562 11.3031 7.60313C11.5875 7.81875 11.8469 8.0625 12.0781 8.3375C12.2531 8.54375 12.4094 8.76875 12.5469 9.00313C12.6094 9.10938 12.6656 9.22188 12.7188 9.33125L12.7156 9.32812ZM13.5406 8.74063C12.6 6.91563 10.6969 5.66563 8.5 5.66563C6.30312 5.66563 4.4 6.91563 3.45937 8.74063L0.5 6.33437L8.5 0L16.5 6.33437L13.5406 8.74375V8.74063Z" fill="#9747FF"/>
</svg>
