<svg width="19" height="19" viewBox="0 0 19 19" fill="none" xmlns="http://www.w3.org/2000/svg">
<path d="M19 9.50005V9.4953C19 6.68409 17.7761 4.15947 15.8325 2.42334L15.823 2.41542C15.799 2.38957 15.7722 2.36647 15.7431 2.34655L15.7415 2.34576C14.0152 0.830325 11.7955 -0.00341765 9.49842 0.000840203C7.09809 0.000840203 4.90675 0.892257 3.23634 2.36317L3.24663 2.35447C3.22656 2.36981 3.208 2.38704 3.19121 2.40592C2.18704 3.29515 1.38326 4.38837 0.83311 5.61165C0.282956 6.83492 -0.00101601 8.16113 2.73136e-06 9.50242C2.73136e-06 12.3128 1.22234 14.8375 3.16429 16.5744L3.17379 16.5823C3.19906 16.6107 3.22718 16.6364 3.25771 16.6591L3.25929 16.6599C4.985 18.1733 7.20313 19.0058 9.49842 19.0016C11.8044 19.0052 14.0321 18.1649 15.7613 16.6393L15.751 16.648C16.7726 15.7598 17.5915 14.6625 18.1523 13.4304C18.7131 12.1983 19.0028 10.8601 19.0016 9.50638V9.50084L19 9.50005ZM15.4676 15.679C14.9968 15.2986 14.4907 14.964 13.9563 14.6799L13.9048 14.6546C14.3901 13.2557 14.6823 11.6431 14.71 9.96555V9.95288H18.0833C17.9698 12.1232 17.0356 14.1693 15.47 15.6766L15.4676 15.679ZM9.95284 14.4875C10.9685 14.5422 11.9178 14.7654 12.7933 15.1288L12.7363 15.1082C12.0349 16.7074 11.0477 17.8062 9.95284 18.0477V14.4875ZM9.95284 13.5819V9.95288H13.8067C13.776 11.4557 13.5154 12.9449 13.034 14.3688L13.0649 14.2651C12.0822 13.8605 11.0367 13.6296 9.975 13.5827L9.95363 13.5819H9.95284ZM9.95284 9.04722V5.41821C11.0431 5.36862 12.1165 5.12994 13.125 4.71284L13.0625 4.7358C13.5019 6.01751 13.7718 7.49476 13.8067 9.03059V9.04722H9.95284ZM9.95284 4.51255V0.954007C11.0477 1.19547 12.0349 2.28955 12.7363 3.89347C11.9178 4.23388 10.9685 4.45634 9.97579 4.51176L9.95284 4.51255ZM12.2123 1.34588C13.1454 1.65644 14.0179 2.12565 14.7915 2.73288L14.7733 2.71863C14.4226 2.99413 14.0291 3.2538 13.6143 3.47942L13.57 3.50159C13.2356 2.71004 12.7746 1.97821 12.2051 1.3348L12.2123 1.34351V1.34588ZM9.04559 0.956382V4.51255C8.06905 4.46279 7.10829 4.2459 6.20509 3.8713L6.26209 3.89188C6.96667 2.29272 7.9523 1.19467 9.04717 0.953215L9.04559 0.956382ZM5.42925 3.49922C5.00022 3.26815 4.59134 3.00147 4.20692 2.70201L4.22592 2.71626C4.97695 2.12682 5.82222 1.66859 6.726 1.36092L6.78617 1.34272C6.23212 1.96911 5.78082 2.67933 5.44904 3.44697L5.42925 3.49922ZM9.04717 5.41742V9.04642H5.19334C5.22817 7.49397 5.49813 6.01672 5.96838 4.6313L5.9375 4.73501C6.92024 5.13758 7.9649 5.36815 9.02579 5.41663L9.04717 5.41742ZM9.04717 9.95209V13.5811C7.95689 13.6307 6.88352 13.8694 5.87496 14.2865L5.9375 14.2635C5.49813 12.9826 5.22817 11.5045 5.19334 9.96871V9.95209H9.04717ZM9.04717 14.4868V18.0453C7.9523 17.8038 6.96509 16.7098 6.26367 15.1058C7.08225 14.7654 8.03146 14.5438 9.02421 14.4883L9.04717 14.4868ZM6.79092 17.6534C5.85864 17.3424 4.98634 16.8744 4.21167 16.2696L4.23067 16.2838C4.58138 16.0083 4.97484 15.7487 5.38967 15.523L5.434 15.5009C5.76585 16.2926 6.2268 17.0237 6.79804 17.6645L6.79092 17.6566V17.6534ZM13.5708 15.5001C14.0299 15.7495 14.4234 16.0083 14.7931 16.2973L14.7741 16.283C14.0231 16.8725 13.1778 17.3307 12.274 17.6384L12.2138 17.6566C12.7678 17.0304 13.2191 16.3205 13.551 15.5531L13.5708 15.5017V15.5001ZM18.0833 9.04722H14.71C14.6852 7.40926 14.4025 5.78544 13.8724 4.23547L13.9048 4.34472C14.464 4.05019 14.9935 3.70236 15.4858 3.30605L15.4668 3.3203C17.0298 4.82151 17.9644 6.86025 18.0817 9.02426L18.0833 9.04722ZM3.53242 3.32109C3.98842 3.69159 4.50063 4.03121 5.04371 4.32017L5.09517 4.34551C4.60988 5.74438 4.31775 7.35701 4.29004 9.03455V9.04722H0.915961C1.0294 6.87686 1.96359 4.83078 3.52925 3.32347L3.53242 3.32109ZM0.916753 9.95288H4.29004C4.3148 11.5908 4.59746 13.2147 5.12763 14.7646L5.09517 14.6554C4.50063 14.9713 3.98921 15.3109 3.51421 15.694L3.53321 15.6798C1.97019 14.1786 1.03557 12.1398 0.918336 9.97584L0.917544 9.95367L0.916753 9.95288Z" fill="white"/>
</svg>
